<svg width="159" height="40" viewBox="0 0 159 40" fill="none" xmlns="http://www.w3.org/2000/svg">
<path d="M23.109 22.206C24.2046 23.0927 25.4296 23.9203 26.7841 24.6888C28.1344 25.4364 29.5428 26.0959 31.0095 26.6673C32.4971 27.2344 33.9695 27.674 35.4267 27.9861C35.1312 28.3513 34.8235 28.8169 34.5036 29.3831C34.1795 29.9283 33.8701 30.4923 33.5754 31.075C33.3016 31.6535 33.082 32.1774 32.9166 32.6466C31.0148 32.077 29.133 31.2855 27.2713 30.2722C25.4052 29.238 23.6307 28.0654 21.9477 26.7543L23.7662 35.6585L18.9065 36.651L17.1136 27.8723C16.0709 29.6965 14.8792 31.4313 13.5387 33.0769C12.1939 34.7015 10.748 36.1508 9.20102 37.4248C8.86909 37.0789 8.45333 36.6956 7.95374 36.2751C7.47933 35.8712 6.97569 35.4841 6.44284 35.114C5.92662 34.7186 5.45883 34.4004 5.03946 34.1595C6.90855 32.8632 8.65113 31.3207 10.2672 29.5318C11.879 27.722 13.1915 25.8862 14.2048 24.0245L4.5795 25.9903L3.65743 21.4755L15.3207 19.0935L14.6611 15.8641L5.41206 17.7531L4.49 13.2383L13.7391 11.3493L12.8234 6.86588L17.6831 5.87338L18.5988 10.3568L28.0673 8.42305L28.9894 12.9379L19.5208 14.8716L20.1804 18.101L32.0317 15.6805L32.9538 20.1954L23.109 22.206ZM56.8151 19.2643C58.2523 20.6477 59.9043 21.907 61.7711 23.0422C63.6575 24.1544 65.5784 25.0285 67.5339 25.6643C67.2173 25.9892 66.8651 26.4025 66.4771 26.9043C66.0891 27.406 65.7232 27.9168 65.3794 28.4364C65.0569 28.9543 64.7948 29.4247 64.5931 29.8474C62.7339 29.0754 60.9312 28.0742 59.1852 26.8438C57.4604 25.6117 55.8629 24.2304 54.3926 22.6997L55.0947 31.5038L50.1504 31.8981L49.4483 23.0941C48.2161 24.8188 46.825 26.4279 45.2748 27.9212C43.7229 29.3932 42.0903 30.6577 40.3769 31.7146C40.1125 31.3505 39.7693 30.9391 39.3475 30.4805C38.9257 30.0219 38.4835 29.5757 38.0209 29.1418C37.5795 28.7061 37.1662 28.3539 36.781 28.085C38.6304 27.1242 40.4089 25.9444 42.1164 24.5456C43.824 23.1467 45.2891 21.6602 46.5118 20.086L37.1974 20.8289L36.8437 16.395L42.3622 15.9549C42.1327 15.2241 41.7795 14.4177 41.3025 13.5355C40.8255 12.6533 40.3332 11.8472 39.8256 11.1172L42.7031 9.76416L37.8545 10.1509L37.5009 5.71696L47.9955 4.87993L47.7335 1.59436L52.6778 1.20002L52.9398 4.48559L63.6578 3.63075L64.0114 8.06467L59.5137 8.4234L62.8093 9.0915C62.3557 10.1121 61.8995 11.1009 61.4408 12.0577C61.0016 12.9916 60.5859 13.8166 60.1936 14.5327L65.7121 14.0925L66.0657 18.5265L56.8151 19.2643ZM44.1704 9.64713C44.7436 10.3933 45.2793 11.2066 45.7775 12.0871C46.2741 12.9463 46.6354 13.7201 46.8615 14.4083L43.9572 15.8277L48.8377 15.4384L48.3492 9.31385L44.1704 9.64713ZM53.2935 8.91951L53.782 15.0441L58.503 14.6675L55.7867 14.0174C56.1526 13.2392 56.5101 12.3546 56.8591 11.3638C57.2081 10.3729 57.4869 9.44109 57.6955 8.56841L53.2935 8.91951ZM85.7688 28.6709L82.2391 26.2974C83.2307 25.7847 84.1183 25.1521 84.9017 24.3995C85.7012 23.6309 86.3246 22.7825 86.7719 21.8542C87.2353 20.9099 87.4666 19.9337 87.4659 18.9257C87.4487 17.3257 86.9998 15.974 86.119 14.8706C85.2542 13.7673 84.0457 13.0481 82.4935 12.7132C82.5097 12.9692 82.5178 13.2252 82.518 13.4812C82.5193 15.2252 82.2804 16.8734 81.8015 18.4257C81.3386 19.978 80.7476 21.3624 80.0285 22.579C79.549 23.3793 78.9575 24.1157 78.254 24.7882C77.5665 25.4607 76.8229 25.9972 76.0232 26.3978C75.2394 26.7983 74.4556 26.9989 73.6716 26.9994C72.6796 27.0001 71.8474 26.7207 71.175 26.1612C70.5026 25.6017 69.9981 24.858 69.6614 23.9303C69.3407 22.9865 69.18 21.9546 69.1792 20.8346C69.1787 20.0666 69.2981 19.1785 69.5373 18.1704C69.7926 17.1462 70.1919 16.1139 70.7352 15.0735C71.2944 14.0171 72.0137 13.0486 72.8931 12.168C73.7725 11.2714 74.836 10.5506 76.0836 10.0057C77.3472 9.44484 78.819 9.1638 80.499 9.16262C82.659 9.16109 84.5473 9.55975 86.1638 10.3586C87.7804 11.1575 89.0372 12.3246 89.9343 13.8599C90.8314 15.3793 91.2807 17.235 91.2822 19.427C91.283 20.563 91.0598 21.6992 90.6126 22.8355C90.1654 23.9718 89.5262 25.0442 88.6949 26.0528C87.8796 27.0454 86.9042 27.9181 85.7688 28.6709ZM72.7792 20.8561C72.7796 21.4161 72.86 21.928 73.0203 22.3919C73.1806 22.8398 73.4528 23.0636 73.8368 23.0633C74.0288 23.0632 74.3008 22.999 74.6527 22.8708C75.0046 22.7425 75.4044 22.4542 75.8521 22.0059C76.2997 21.5576 76.7632 20.8533 77.2426 19.8929C77.8018 18.7725 78.193 17.6522 78.4162 16.5321C78.6554 15.4119 78.7747 14.4038 78.774 13.5078C78.7739 13.2518 78.7657 13.0038 78.7495 12.7639C77.8057 13.0205 76.958 13.4531 76.2064 14.0617C75.4549 14.6542 74.8233 15.3426 74.3119 16.127C73.7365 16.9594 73.3371 17.8157 73.1137 18.6958C72.8903 19.56 72.7788 20.2801 72.7792 20.8561ZM106.208 16.5639L123.5 17.9105L122.345 32.7456L117.878 32.3977L117.968 31.2492L109.386 30.5809L109.296 31.7294L105.053 31.399L105.97 19.6266L104.24 21.6424C104.034 21.2626 103.778 20.8468 103.471 20.3949C103.163 19.943 102.846 19.4903 102.517 19.0368L101.568 31.2239L97.0379 30.8711L97.8056 21.0129C97.3487 21.3839 96.8829 21.7328 96.4081 22.0596C95.9349 22.3651 95.4634 22.6494 94.9936 22.9124C94.9204 22.4787 94.7785 21.9648 94.568 21.3707C94.3592 20.7552 94.138 20.1603 93.9046 19.5858C93.6712 19.0112 93.4482 18.5766 93.2358 18.2819C94.8138 17.5275 96.3176 16.4891 97.7473 15.1668C99.1769 13.8444 100.404 12.3779 101.428 10.7673L95.0792 10.2728L95.4022 6.1254L98.9435 6.40118L99.3981 0.562852L103.928 0.915647L103.474 6.75397L104.08 6.80118L104.858 6.70129L107.284 8.52712C106.344 10.7007 105.156 12.7694 103.719 14.7331C104.059 15.0378 104.459 15.4005 104.918 15.8215C105.377 16.2424 105.795 16.6494 106.171 17.0424L106.208 16.5639ZM124.669 3.71843L124.369 7.57875L106.822 6.21229L107.123 2.35197L124.669 3.71843ZM122.898 8.33082L122.24 16.7852L107.851 15.6647L108.51 7.21032L122.898 8.33082ZM118.355 11.4435L112.325 10.9739L112.203 12.5372L118.233 13.0067L118.355 11.4435ZM110.166 20.5632L110.052 22.0308L112.285 22.2047L112.399 20.7371L110.166 20.5632ZM118.748 21.2315L116.515 21.0576L116.4 22.5252L118.634 22.6991L118.748 21.2315ZM118.253 27.5803L118.37 26.0809L116.137 25.907L116.02 27.4064L118.253 27.5803ZM109.671 26.912L111.905 27.0859L112.021 25.5865L109.788 25.4125L109.671 26.912ZM153.882 33.9987C153.673 35.0448 153.394 35.8482 153.043 36.4091C152.687 36.9909 152.15 37.395 151.43 37.6214C150.732 37.852 149.935 37.9215 149.04 37.8301C148.161 37.7637 147.125 37.6117 145.933 37.3741C145.97 36.7506 145.926 35.9913 145.799 35.0961C145.694 34.205 145.549 33.4583 145.365 32.8559C145.963 33.0187 146.595 33.1772 147.261 33.3316C147.93 33.465 148.382 33.5442 148.616 33.5692C148.867 33.6192 149.043 33.6107 149.143 33.5437C149.269 33.46 149.357 33.2925 149.407 33.0415L153.253 13.7411L149.613 13.0155L151.352 13.7863C150.812 14.4184 150.279 15.0191 149.753 15.5885C149.247 16.162 148.772 16.6874 148.329 17.1646L151.624 17.8214L150.886 21.5245L144.421 20.2361L143.127 26.7323L144.664 27.0388L145.721 21.7351L149.582 22.5044L147.555 32.6725L143.695 31.9031L143.926 30.742L136.771 29.3159L136.427 31.0419L132.63 30.2851L134.769 19.5522L138.566 20.309L137.509 25.6127L139.016 25.913L140.31 19.4167L134.191 18.1971L134.929 14.4939L137.784 15.0631C137.746 14.4899 137.652 13.8729 137.501 13.2119C137.354 12.53 137.184 11.9089 136.991 11.3484L139.57 11.014L134.988 10.1008L130.185 34.2028L125.76 33.3209L131.42 4.91949L158.598 10.336L153.882 33.9987ZM144.55 15.9873C144.91 15.4934 145.294 14.9283 145.704 14.2921C146.114 13.6559 146.465 13.0406 146.757 12.4463L141.045 11.308C141.284 11.9647 141.483 12.657 141.643 13.3849C141.802 14.1127 141.893 14.7507 141.914 15.2988L140.295 15.5634L145.881 16.6768L144.55 15.9873Z" fill="#009E67"/>
</svg>
