<svg width="598" height="917" viewBox="0 0 598 917" fill="none" xmlns="http://www.w3.org/2000/svg">
<g opacity="0.5">
<mask id="mask0_446_2220" style="mask-type:luminance" maskUnits="userSpaceOnUse" x="495" y="72" width="75" height="79">
<path d="M551.594 144.671C550.568 148.184 544.914 150.845 540.914 150.038C535.397 148.924 535.461 141.706 527.766 138.807C526.064 138.164 523.343 137.139 520.25 138.006C513.643 139.86 513.14 148.192 507.12 149.819C503.982 150.668 500.269 149.442 498.262 147.489C490.842 140.256 501.789 118.112 508.266 105.015C515.024 91.3401 524.895 71.3736 535.195 72.1701C537.925 72.3813 540.967 74.0768 542.374 76.6782C546.361 84.06 535.468 95.5054 538.445 98.4634C540.165 100.173 544.109 96.6488 555.055 95.9458C558.228 95.7417 561.039 95.8363 563.958 97.1837C565.45 97.8727 568.432 99.2538 569.505 102.222C570.77 105.714 569.107 110.639 565.919 113.17C560.601 117.389 554.849 111.901 544.975 115.88C541.876 117.127 537.958 118.708 537.039 121.845C534.759 129.619 553.725 137.338 551.583 144.672L551.594 144.671Z" fill="white"/>
</mask>
<g mask="url(#mask0_446_2220)">
<mask id="mask1_446_2220" style="mask-type:luminance" maskUnits="userSpaceOnUse" x="568" y="93" width="107" height="102">
<path d="M674.697 160.669L597.621 93.6406L568.13 127.552L645.206 194.58L674.697 160.669Z" fill="white"/>
</mask>
<g mask="url(#mask1_446_2220)">
<path d="M608.579 158.696L531.503 91.668L530.072 93.3131L607.148 160.341L608.579 158.696Z" fill="#0077E6"/>
<path d="M614.476 151.915L537.4 84.8867L535.97 86.5318L613.045 153.56L614.476 151.915Z" fill="#0077E6"/>
<path d="M620.376 145.131L543.3 78.1025L541.869 79.7476L618.945 146.776L620.376 145.131Z" fill="#0077E6"/>
<path d="M626.272 138.349L549.196 71.3213L547.766 72.9664L624.841 139.994L626.272 138.349Z" fill="#0077E6"/>
<path d="M632.17 131.568L555.094 64.54L553.664 66.1851L630.739 133.213L632.17 131.568Z" fill="#0077E6"/>
</g>
<mask id="mask2_446_2220" style="mask-type:luminance" maskUnits="userSpaceOnUse" x="538" y="127" width="108" height="102">
<path d="M645.209 194.578L568.133 127.55L538.642 161.462L615.718 228.49L645.209 194.578Z" fill="white"/>
</mask>
<g mask="url(#mask2_446_2220)">
<path d="M579.088 192.608L502.012 125.58L500.582 127.225L577.657 194.253L579.088 192.608Z" fill="#0077E6"/>
<path d="M584.987 185.824L507.911 118.796L506.48 120.441L583.556 187.469L584.987 185.824Z" fill="#0077E6"/>
<path d="M626.475 215.948L549.399 148.92L547.969 150.566L625.045 217.594L626.475 215.948Z" fill="#0077E6"/>
<path d="M590.884 179.043L513.809 112.015L512.378 113.66L589.454 180.688L590.884 179.043Z" fill="#0077E6"/>
<path d="M632.372 209.167L555.296 142.139L553.866 143.784L630.941 210.812L632.372 209.167Z" fill="#0077E6"/>
<path d="M596.781 172.261L519.706 105.233L518.275 106.879L595.351 173.906L596.781 172.261Z" fill="#0077E6"/>
<path d="M638.27 202.386L561.194 135.358L559.763 137.003L636.839 204.031L638.27 202.386Z" fill="#0077E6"/>
<path d="M602.681 165.477L525.605 98.4492L524.175 100.094L601.251 167.122L602.681 165.477Z" fill="#0077E6"/>
<path d="M644.169 195.602L567.094 128.574L565.663 130.219L642.739 197.247L644.169 195.602Z" fill="#0077E6"/>
</g>
<mask id="mask3_446_2220" style="mask-type:luminance" maskUnits="userSpaceOnUse" x="491" y="26" width="107" height="102">
<path d="M597.618 93.6383L520.542 26.6104L491.052 60.5221L568.127 127.55L597.618 93.6383Z" fill="white"/>
</mask>
<g mask="url(#mask3_446_2220)">
<path d="M608.579 158.696L531.503 91.6685L530.072 93.3136L607.148 160.342L608.579 158.696Z" fill="#0077E6"/>
<path d="M531.502 91.6681L454.427 24.6401L452.996 26.2852L530.072 93.3132L531.502 91.6681Z" fill="#0077E6"/>
<path d="M572.991 121.793L495.915 54.7646L494.484 56.4098L571.56 123.438L572.991 121.793Z" fill="#0077E6"/>
<path d="M614.476 151.915L537.4 84.8867L535.969 86.5318L613.045 153.56L614.476 151.915Z" fill="#0077E6"/>
<path d="M537.399 84.8869L460.324 17.8589L458.893 19.504L535.969 86.532L537.399 84.8869Z" fill="#0077E6"/>
<path d="M578.888 115.012L501.812 47.9839L500.381 49.629L577.457 116.657L578.888 115.012Z" fill="#0077E6"/>
<path d="M620.376 145.131L543.3 78.103L541.869 79.7481L618.945 146.776L620.376 145.131Z" fill="#0077E6"/>
<path d="M543.299 78.1027L466.224 11.0747L464.793 12.7198L541.869 79.7478L543.299 78.1027Z" fill="#0077E6"/>
<path d="M584.787 108.228L507.711 41.1997L506.281 42.8448L583.357 109.873L584.787 108.228Z" fill="#0077E6"/>
<path d="M626.272 138.35L549.196 71.3218L547.766 72.9669L624.841 139.995L626.272 138.35Z" fill="#0077E6"/>
<path d="M549.197 71.3214L472.121 4.29346L470.69 5.93857L547.766 72.9665L549.197 71.3214Z" fill="#0077E6"/>
<path d="M590.685 101.446L513.609 34.418L512.178 36.0631L589.254 103.091L590.685 101.446Z" fill="#0077E6"/>
<path d="M632.17 131.568L555.094 64.54L553.664 66.1851L630.739 133.213L632.17 131.568Z" fill="#0077E6"/>
<path d="M596.582 94.6652L519.506 27.6372L518.075 29.2823L595.151 96.3103L596.582 94.6652Z" fill="#0077E6"/>
</g>
<mask id="mask4_446_2220" style="mask-type:luminance" maskUnits="userSpaceOnUse" x="461" y="60" width="108" height="102">
<path d="M568.13 127.547L491.054 60.519L461.563 94.4308L538.639 161.459L568.13 127.547Z" fill="white"/>
</mask>
<g mask="url(#mask4_446_2220)">
<path d="M579.088 192.608L502.012 125.58L500.582 127.225L577.657 194.253L579.088 192.608Z" fill="#0077E6"/>
<path d="M502.012 125.579L424.937 58.5513L423.506 60.1964L500.582 127.224L502.012 125.579Z" fill="#0077E6"/>
<path d="M543.5 155.704L466.424 88.6763L464.994 90.3214L542.069 157.349L543.5 155.704Z" fill="#0077E6"/>
<path d="M584.988 185.823L507.912 118.795L506.481 120.441L583.557 187.468L584.988 185.823Z" fill="#0077E6"/>
<path d="M507.912 118.796L430.836 51.7676L429.405 53.4127L506.481 120.441L507.912 118.796Z" fill="#0077E6"/>
<path d="M626.476 215.948L549.4 148.92L547.969 150.566L625.045 217.594L626.476 215.948Z" fill="#0077E6"/>
<path d="M549.399 148.921L472.324 81.8926L470.893 83.5377L547.969 150.566L549.399 148.921Z" fill="#0077E6"/>
<path d="M590.885 179.043L513.809 112.015L512.378 113.66L589.454 180.688L590.885 179.043Z" fill="#0077E6"/>
<path d="M513.809 112.014L436.733 44.9863L435.303 46.6314L512.378 113.659L513.809 112.014Z" fill="#0077E6"/>
<path d="M632.373 209.167L555.297 142.139L553.866 143.784L630.942 210.812L632.373 209.167Z" fill="#0077E6"/>
<path d="M555.297 142.139L478.221 75.1113L476.791 76.7564L553.866 143.784L555.297 142.139Z" fill="#0077E6"/>
<path d="M596.782 172.261L519.706 105.233L518.275 106.879L595.351 173.906L596.782 172.261Z" fill="#0077E6"/>
<path d="M519.706 105.233L442.63 38.2051L441.2 39.8502L518.275 106.878L519.706 105.233Z" fill="#0077E6"/>
<path d="M638.27 202.386L561.194 135.358L559.763 137.003L636.839 204.031L638.27 202.386Z" fill="#0077E6"/>
<path d="M561.194 135.358L484.118 68.3301L482.688 69.9752L559.763 137.003L561.194 135.358Z" fill="#0077E6"/>
<path d="M602.681 165.477L525.605 98.4492L524.175 100.094L601.251 167.122L602.681 165.477Z" fill="#0077E6"/>
<path d="M525.606 98.4489L448.53 31.4209L447.1 33.066L524.175 100.094L525.606 98.4489Z" fill="#0077E6"/>
<path d="M644.169 195.602L567.093 128.574L565.663 130.219L642.738 197.247L644.169 195.602Z" fill="#0077E6"/>
<path d="M567.094 128.573L490.018 61.5454L488.587 63.1905L565.663 130.218L567.094 128.573Z" fill="#0077E6"/>
</g>
<mask id="mask5_446_2220" style="mask-type:luminance" maskUnits="userSpaceOnUse" x="432" y="94" width="107" height="102">
<path d="M538.639 161.459L461.563 94.4312L432.073 128.343L509.148 195.371L538.639 161.459Z" fill="white"/>
</mask>
<g mask="url(#mask5_446_2220)">
<path d="M514.011 189.613L436.936 122.585L435.505 124.231L512.581 191.259L514.011 189.613Z" fill="#0077E6"/>
<path d="M519.909 182.833L442.833 115.805L441.402 117.45L518.478 184.478L519.909 182.833Z" fill="#0077E6"/>
<path d="M561.394 212.955L484.318 145.927L482.888 147.572L559.963 214.6L561.394 212.955Z" fill="#0077E6"/>
<path d="M525.806 176.051L448.73 109.023L447.299 110.669L524.375 177.697L525.806 176.051Z" fill="#0077E6"/>
<path d="M567.294 206.171L490.218 139.143L488.787 140.788L565.863 207.816L567.294 206.171Z" fill="#0077E6"/>
<path d="M531.705 169.267L454.629 102.239L453.199 103.884L530.274 170.912L531.705 169.267Z" fill="#0077E6"/>
<path d="M573.19 199.389L496.115 132.361L494.684 134.006L571.76 201.034L573.19 199.389Z" fill="#0077E6"/>
<path d="M496.115 132.361L419.039 65.333L417.608 66.9781L494.684 134.006L496.115 132.361Z" fill="#0077E6"/>
<path d="M537.603 162.486L460.527 95.458L459.096 97.1031L536.172 164.131L537.603 162.486Z" fill="#0077E6"/>
</g>
</g>
<path d="M498.53 147.801C498.427 147.712 498.325 147.623 498.233 147.528C490.792 140.271 501.703 118.192 508.228 104.998C511.59 98.2018 515.769 89.7447 520.371 83.1407C525.785 75.3731 530.639 71.7706 535.209 72.1238C538.138 72.3481 541.106 74.213 542.423 76.6568C544.692 80.8563 542.148 86.4045 540.107 90.8616C538.557 94.2454 537.219 97.1671 538.485 98.4289C538.512 98.4518 538.538 98.4747 538.564 98.4976C539.384 99.2101 540.704 98.8203 543.045 98.1321C545.578 97.3874 549.407 96.258 555.063 95.8945C558.351 95.6829 561.124 95.8145 563.992 97.1385C565.45 97.8137 568.484 99.2182 569.566 102.205C570.83 105.697 569.213 110.63 565.963 113.208C563.319 115.304 560.523 115.014 557.283 114.675C553.866 114.32 549.993 113.916 545.008 115.925C541.893 117.179 538.015 118.742 537.101 121.856C535.952 125.77 540.293 129.726 544.495 133.552C548.72 137.403 552.712 141.039 551.647 144.68C551.158 146.348 549.609 147.928 547.398 149.017C545.252 150.072 542.827 150.473 540.913 150.085C538.259 149.55 536.91 147.639 535.346 145.425C533.668 143.053 531.764 140.361 527.763 138.852C523.351 137.188 521.425 137.73 520.277 138.051C516.92 138.993 515.136 141.629 513.41 144.181C511.713 146.689 510.112 149.062 507.144 149.862C503.973 150.719 500.504 149.502 498.54 147.795L498.53 147.801ZM540.55 74.5205C539.079 73.2406 537.127 72.3709 535.191 72.2207C530.658 71.8727 525.834 75.4585 520.444 83.1931C515.847 89.7911 511.668 98.2426 508.309 105.036C501.797 118.209 490.9 140.248 498.297 147.455C500.171 149.288 503.802 150.667 507.106 149.775C510.035 148.984 511.626 146.629 513.313 144.134C515.047 141.567 516.843 138.91 520.237 137.962C523.343 137.091 526.123 138.136 527.783 138.763C531.813 140.281 533.723 142.983 535.41 145.369C536.962 147.567 538.305 149.462 540.923 149.992C542.816 150.373 545.217 149.977 547.343 148.932C549.533 147.856 551.063 146.297 551.543 144.658C552.588 141.075 548.62 137.459 544.417 133.629C540.198 129.783 535.834 125.806 536.999 121.831C537.928 118.671 541.83 117.097 544.964 115.834C549.971 113.817 553.861 114.219 557.286 114.576C560.504 114.912 563.28 115.201 565.892 113.13C569.112 110.58 570.71 105.694 569.461 102.242C568.392 99.2937 565.384 97.9009 563.938 97.2303C561.09 95.913 558.331 95.7829 555.057 95.996C549.415 96.3611 545.592 97.4844 543.061 98.2316C540.69 98.931 539.35 99.3252 538.493 98.5797C538.466 98.5568 538.437 98.5313 538.408 98.5059C537.092 97.2009 538.442 94.2472 540.007 90.8284C542.041 86.3916 544.572 80.8642 542.325 76.7104C541.89 75.9048 541.274 75.1658 540.539 74.5271L540.55 74.5205Z" fill="#0077E6"/>
<path d="M113.736 76.5541C104.83 79.9807 99.2127 68.6543 86.6781 67.6478C73.4456 66.5815 69.5119 78.3776 57.3265 75.9844C50.5257 74.6481 43.3017 69.3163 41.8163 62.6707C39.3769 51.7441 53.146 40.4048 63.4091 31.9534C68.3658 27.8728 72.5944 25.2497 78.5915 21.5285C87.9866 15.6977 93.3363 12.3786 101.083 10.2062C108.728 8.06132 115.962 6.02922 123.219 9.0005C129.009 11.3715 133 18.4684 140.752 32.5651C149.969 49.3319 149.587 53.5157 148.555 56.3556C146.908 60.8714 142.274 65.6271 137.762 65.3946C131.419 65.0691 129.733 55.1304 122.555 54.8522C119.728 54.7443 116.214 56.1429 115.319 58.5019C113.81 62.4633 120.687 66.4519 119.425 71.3366C118.553 74.7018 114.377 76.3099 113.747 76.5557L113.736 76.5541Z" fill="#D5F72C"/>
<path d="M549.641 386.833C547.062 390.332 539.657 390.773 535.516 388.051C529.804 384.296 532.819 376.183 525.401 369.427C523.76 367.932 521.137 365.543 517.327 365.121C509.187 364.22 505.227 373.391 497.835 372.5C493.982 372.037 490.332 368.972 488.886 365.86C483.541 354.341 504.806 334.319 517.386 322.478C530.515 310.112 549.689 292.059 560.876 297.622C563.841 299.096 566.551 302.387 567.062 305.959C568.508 316.091 551.666 324.069 553.787 328.754C555.013 331.462 560.857 329.272 573.377 333.436C577.008 334.643 580.111 336.022 582.824 338.864C584.211 340.317 586.98 343.226 586.969 347.059C586.958 351.571 583.092 356.375 578.497 357.786C570.832 360.137 566.642 351.341 553.983 351.359C550.012 351.362 544.988 351.37 542.681 354.493C536.963 362.23 555.013 379.527 549.628 386.829L549.641 386.833Z" fill="#0054A7"/>
<path d="M72.4283 292.822C68.5839 293.477 37.4706 298.762 29.0405 282.747C21.7517 268.905 37.3341 250.392 42.3932 244.38C43.3006 243.3 65.4769 217.404 81.6962 220.501C89.0581 221.907 94.7508 229.208 92.347 235.406C88.739 244.711 68.9546 246.211 66.1028 255.319C64.6944 259.814 67.8202 264.861 72.5674 266.338C82.9018 269.55 96.4381 254.444 105.653 257.563C111.088 259.404 112.575 266.751 110.481 272.358C105.01 287.007 74.033 292.552 72.4283 292.822Z" fill="#E60019"/>
<path d="M344.348 318.544C339.786 320.974 339.307 322 333.62 325.061C331.12 326.406 326.344 328.98 322.791 330.023C313.177 332.849 302.19 327.5 296.777 323.145C283.645 312.574 280.696 289.603 295.025 275.541C308.005 262.805 328.603 263.819 330.932 263.964C336.949 264.34 341.965 265.943 343.37 266.414C347.036 267.637 353.491 269.775 358.735 275.278C366.728 283.668 366.321 293.599 366.17 295.794C365.891 299.873 365.353 307.73 359.11 312.45C355.032 315.532 352.885 313.983 344.342 318.538L344.348 318.544Z" fill="#00E695"/>
<path d="M339.167 301.392C338.82 302.268 336.603 307.494 329.698 308.966C329.335 309.043 322.035 310.49 316.609 306.326C311.809 302.639 312.537 297.676 312.65 297.015C313.44 292.329 317.82 289.897 318.543 289.512C322.771 287.25 327.197 287.64 328.381 287.759C329.803 287.901 334.25 288.352 337.308 291.295C341.408 295.243 339.574 300.372 339.168 301.396L339.167 301.392Z" fill="white"/>
<path d="M260.153 552.793C261.343 562.713 282.532 568.33 307.482 565.339C332.431 562.348 351.693 551.882 350.504 541.962C349.315 532.042 328.125 526.425 303.175 529.416C278.226 532.406 258.964 542.873 260.153 552.793Z" fill="#F7B52C"/>
<path d="M328.073 476.985C319.114 508.434 293.334 535.614 281.273 531.541C271.421 528.209 275.877 505.752 262.919 499.984C248.912 493.748 233.826 515.57 222.739 510.216C210.846 504.474 211.287 471.204 220.798 445.153C233.471 410.451 269.623 368.354 299.357 377.083C328.609 385.668 338.71 439.623 328.073 476.985Z" fill="#E6009D"/>
<path d="M303.048 445.356C301.162 453.79 294.708 463.459 288.209 463.5C283.771 463.525 283.028 459.051 275.794 456.85C268.031 454.483 264.57 458.322 260.777 455.761C255.229 452.011 255.53 438.963 259.877 429.83C264.396 420.349 276.122 409.129 288.386 412.517C301.473 416.134 305.651 433.737 303.05 445.349L303.048 445.356Z" fill="white"/>
<path d="M551.293 597.648C549.804 599.591 547.271 600.794 544.974 600.933C542.294 601.094 541.252 599.719 538.415 598.958C534.384 597.874 531.225 599.234 528.186 599.912C520.783 601.563 514.012 599.182 509.246 597.502C507.512 596.892 493.952 591.931 489.714 581.134C483.629 565.641 498.573 542.803 518.614 535.572C533.516 530.197 548.87 534.373 558.261 540.853C559.504 541.709 573.955 551.897 570.913 560.574C569.683 564.091 565.566 567.391 561.724 567.412C557.1 567.443 556.294 562.708 549.888 561.176C549.075 560.982 542.253 559.444 538.423 563.26C534.266 567.4 535.869 575.605 538.606 576.459C540.696 577.109 542.6 573.206 546.311 573.639C549.104 573.965 550.785 576.496 551.163 577.06C552.517 579.099 552.155 580.545 552.16 586.75C552.169 594.52 552.746 595.752 551.295 597.64L551.293 597.648Z" fill="#E60019"/>
<path d="M74.8218 696.755C95.7435 700.946 115.115 714.712 113.351 721.604C111.908 727.235 97.1068 725.334 94.3142 732.778C91.2946 740.823 106.447 748.719 103.787 755.099C100.935 761.942 79.4479 762.591 61.9682 757.944C38.6826 751.753 8.94869 732.555 12.4507 715.598C15.8949 698.915 49.9664 691.779 74.8218 696.755Z" fill="#F7702C"/>
<path d="M56.2153 711.681C61.7892 712.515 68.4859 715.884 68.9775 719.538C69.3112 722.033 66.4791 722.572 65.5769 726.699C64.6062 731.129 67.3293 732.972 65.9488 735.174C63.9276 738.396 55.4916 738.578 49.2914 736.38C42.8537 734.094 34.7794 727.801 36.0869 720.813C37.4829 713.355 48.5358 710.531 56.2105 711.68L56.2153 711.681Z" fill="white"/>
<mask id="mask6_446_2220" style="mask-type:luminance" maskUnits="userSpaceOnUse" x="271" y="48" width="89" height="87">
<path d="M324.206 125.517C320.323 127.35 288.901 142.168 276.023 128.182C264.891 116.095 276.66 92.3042 280.48 84.5778C281.165 83.1909 298.027 49.7971 315.871 48.1102C323.971 47.3447 331.788 53.1646 330.808 60.2827C329.338 70.9686 308.892 78.4715 308.169 88.7271C307.811 93.7894 312.363 98.0553 317.728 98.1501C329.408 98.3534 339.875 78.693 350.354 79.1371C356.534 79.4015 359.937 86.5335 359.135 92.9487C357.041 109.71 325.827 124.755 324.206 125.517Z" fill="white"/>
</mask>
<g mask="url(#mask6_446_2220)">
<mask id="mask7_446_2220" style="mask-type:luminance" maskUnits="userSpaceOnUse" x="314" y="62" width="126" height="120">
<path d="M439.12 107.946L398.896 62.2485L314.955 136.137L355.179 181.834L439.12 107.946Z" fill="white"/>
</mask>
<g mask="url(#mask7_446_2220)">
<path d="M319.334 142.913C321.195 145.028 325.309 144.449 328.522 141.621C331.735 138.792 332.831 134.785 330.969 132.67C329.108 130.555 324.994 131.134 321.781 133.962C318.568 136.79 317.472 140.798 319.334 142.913Z" fill="#F7B52C"/>
<path d="M344.166 137.275C346.027 139.39 350.141 138.811 353.354 135.983C356.568 133.155 357.663 129.147 355.801 127.033C353.94 124.918 349.826 125.496 346.613 128.324C343.4 131.153 342.304 135.16 344.166 137.275Z" fill="#F7B52C"/>
<path d="M330.757 122.042C332.619 124.157 336.733 123.579 339.946 120.751C343.159 117.922 344.255 113.915 342.393 111.8C340.532 109.685 336.418 110.264 333.205 113.092C329.991 115.92 328.896 119.928 330.757 122.042Z" fill="#F7B52C"/>
<path d="M355.594 116.401C357.456 118.516 361.57 117.938 364.783 115.11C367.996 112.281 369.092 108.274 367.23 106.159C365.369 104.044 361.255 104.622 358.041 107.451C354.828 110.279 353.733 114.286 355.594 116.401Z" fill="#F7B52C"/>
</g>
<mask id="mask8_446_2220" style="mask-type:luminance" maskUnits="userSpaceOnUse" x="274" y="16" width="125" height="121">
<path d="M398.896 62.2484L358.672 16.5513L274.731 90.4395L314.955 136.137L398.896 62.2484Z" fill="white"/>
</mask>
<g mask="url(#mask8_446_2220)">
<path d="M305.926 127.68C307.788 129.795 311.901 129.217 315.115 126.388C318.328 123.56 319.423 119.553 317.562 117.438C315.7 115.323 311.586 115.901 308.373 118.73C305.16 121.558 304.064 125.565 305.926 127.68Z" fill="#F7B52C"/>
<path d="M292.518 112.448C294.379 114.563 298.493 113.984 301.706 111.156C304.92 108.328 306.015 104.32 304.154 102.205C302.292 100.09 298.178 100.669 294.965 103.497C291.752 106.325 290.656 110.333 292.518 112.448Z" fill="#F7B52C"/>
<path d="M279.109 97.2153C280.971 99.3302 285.085 98.7519 288.298 95.9236C291.511 93.0952 292.607 89.0879 290.745 86.973C288.884 84.858 284.77 85.4364 281.557 88.2647C278.343 91.0931 277.248 95.1004 279.109 97.2153Z" fill="#F7B52C"/>
<path d="M330.758 122.042C332.62 124.157 336.733 123.579 339.947 120.751C343.16 117.922 344.255 113.915 342.394 111.8C340.532 109.685 336.418 110.264 333.205 113.092C329.992 115.92 328.896 119.928 330.758 122.042Z" fill="#F7B52C"/>
<path d="M317.35 106.811C319.211 108.925 323.325 108.347 326.538 105.519C329.752 102.69 330.847 98.6831 328.986 96.5682C327.124 94.4533 323.01 95.0316 319.797 97.8599C316.584 100.688 315.488 104.696 317.35 106.811Z" fill="#F7B52C"/>
<path d="M303.942 91.5776C305.804 93.6926 309.918 93.1142 313.131 90.2859C316.344 87.4575 317.439 83.4502 315.578 81.3353C313.716 79.2204 309.602 79.7987 306.389 82.627C303.176 85.4554 302.08 89.4627 303.942 91.5776Z" fill="#F7B52C"/>
<path d="M290.534 76.3452C292.395 78.4601 296.509 77.8818 299.723 75.0535C302.936 72.2251 304.031 68.2178 302.17 66.1029C300.308 63.9879 296.194 64.5663 292.981 67.3946C289.768 70.223 288.672 74.2303 290.534 76.3452Z" fill="#F7B52C"/>
<path d="M342.187 101.169C344.048 103.284 348.162 102.706 351.375 99.8772C354.589 97.0488 355.684 93.0415 353.822 90.9266C351.961 88.8117 347.847 89.39 344.634 92.2183C341.421 95.0467 340.325 99.054 342.187 101.169Z" fill="#F7B52C"/>
<path d="M328.778 85.9365C330.64 88.0514 334.754 87.4731 337.967 84.6448C341.18 81.8164 342.276 77.8091 340.414 75.6942C338.553 73.5792 334.439 74.1576 331.226 76.9859C328.012 79.8143 326.917 83.8216 328.778 85.9365Z" fill="#F7B52C"/>
<path d="M315.37 70.7041C317.232 72.819 321.346 72.2407 324.559 69.4123C327.772 66.584 328.868 62.5767 327.006 60.4617C325.144 58.3468 321.03 58.9251 317.817 61.7535C314.604 64.5818 313.509 68.5892 315.37 70.7041Z" fill="#F7B52C"/>
<path d="M353.611 80.2988C355.473 82.4137 359.587 81.8354 362.8 79.0071C366.013 76.1787 367.108 72.1714 365.247 70.0565C363.385 67.9415 359.271 68.5199 356.058 71.3482C352.845 74.1766 351.749 78.1839 353.611 80.2988Z" fill="#F7B52C"/>
<path d="M340.203 65.0664C342.064 67.1813 346.178 66.603 349.391 63.7746C352.605 60.9463 353.7 56.939 351.839 54.8241C349.977 52.7091 345.863 53.2875 342.65 56.1158C339.437 58.9441 338.341 62.9515 340.203 65.0664Z" fill="#F7B52C"/>
<path d="M326.795 49.8345C328.656 51.9494 332.77 51.3711 335.983 48.5427C339.196 45.7144 340.292 41.7071 338.43 39.5921C336.569 37.4772 332.455 38.0555 329.242 40.8839C326.028 43.7122 324.933 47.7195 326.795 49.8345Z" fill="#F7B52C"/>
</g>
<mask id="mask9_446_2220" style="mask-type:luminance" maskUnits="userSpaceOnUse" x="190" y="90" width="125" height="121">
<path d="M314.96 136.132L274.735 90.4351L190.794 164.323L231.019 210.02L314.96 136.132Z" fill="white"/>
</mask>
<g mask="url(#mask9_446_2220)">
<path d="M281.093 133.317C282.955 135.432 287.069 134.854 290.282 132.026C293.495 129.197 294.591 125.19 292.729 123.075C290.868 120.96 286.754 121.538 283.54 124.367C280.327 127.195 279.232 131.202 281.093 133.317Z" fill="#F7B52C"/>
<path d="M267.685 118.085C269.547 120.2 273.661 119.622 276.874 116.793C280.087 113.965 281.183 109.958 279.321 107.843C277.459 105.728 273.345 106.306 270.132 109.134C266.919 111.963 265.824 115.97 267.685 118.085Z" fill="#F7B52C"/>
<path d="M305.925 127.68C307.787 129.795 311.901 129.217 315.114 126.388C318.327 123.56 319.423 119.553 317.561 117.438C315.7 115.323 311.586 115.901 308.373 118.73C305.159 121.558 304.064 125.565 305.925 127.68Z" fill="#F7B52C"/>
<path d="M292.518 112.448C294.379 114.563 298.493 113.984 301.706 111.156C304.92 108.328 306.015 104.32 304.154 102.205C302.292 100.09 298.178 100.669 294.965 103.497C291.752 106.325 290.656 110.333 292.518 112.448Z" fill="#F7B52C"/>
<path d="M279.109 97.2153C280.971 99.3302 285.085 98.7519 288.298 95.9236C291.511 93.0952 292.607 89.0879 290.745 86.973C288.884 84.858 284.77 85.4364 281.557 88.2647C278.343 91.0931 277.248 95.1004 279.109 97.2153Z" fill="#F7B52C"/>
</g>
<mask id="mask10_446_2220" style="mask-type:luminance" maskUnits="userSpaceOnUse" x="234" y="-30" width="125" height="121">
<path d="M358.672 16.5512L318.447 -29.146L234.506 44.7422L274.731 90.4394L358.672 16.5512Z" fill="white"/>
</mask>
<g mask="url(#mask10_446_2220)">
<path d="M265.701 81.9829C267.563 84.0978 271.677 83.5195 274.89 80.6911C278.103 77.8628 279.199 73.8555 277.337 71.7406C275.475 69.6256 271.362 70.204 268.148 73.0323C264.935 75.8606 263.84 79.868 265.701 81.9829Z" fill="#F7B52C"/>
<path d="M290.533 76.3452C292.395 78.4601 296.509 77.8818 299.722 75.0535C302.935 72.2251 304.031 68.2178 302.169 66.1029C300.308 63.9879 296.194 64.5663 292.98 67.3946C289.767 70.223 288.672 74.2303 290.533 76.3452Z" fill="#F7B52C"/>
<path d="M277.126 61.1128C278.987 63.2277 283.101 62.6494 286.314 59.821C289.527 56.9927 290.623 52.9854 288.761 50.8704C286.9 48.7555 282.786 49.3338 279.573 52.1622C276.36 54.9905 275.264 58.9978 277.126 61.1128Z" fill="#F7B52C"/>
<path d="M263.717 45.8804C265.579 47.9953 269.693 47.417 272.906 44.5886C276.119 41.7603 277.215 37.7529 275.353 35.638C273.492 33.5231 269.378 34.1014 266.164 36.9298C262.951 39.7581 261.856 43.7654 263.717 45.8804Z" fill="#F7B52C"/>
<path d="M301.962 55.4717C303.824 57.5866 307.938 57.0083 311.151 54.1799C314.364 51.3516 315.46 47.3443 313.598 45.2293C311.737 43.1144 307.623 43.6927 304.41 46.5211C301.196 49.3494 300.101 53.3567 301.962 55.4717Z" fill="#F7B52C"/>
<path d="M326.795 49.834C328.656 51.9489 332.77 51.3706 335.983 48.5422C339.196 45.7139 340.292 41.7066 338.43 39.5916C336.569 37.4767 332.455 38.055 329.242 40.8834C326.028 43.7117 324.933 47.719 326.795 49.834Z" fill="#F7B52C"/>
</g>
<mask id="mask11_446_2220" style="mask-type:luminance" maskUnits="userSpaceOnUse" x="150" y="44" width="125" height="121">
<path d="M274.735 90.4355L234.511 44.7383L150.57 118.627L190.794 164.324L274.735 90.4355Z" fill="white"/>
</mask>
<g mask="url(#mask11_446_2220)">
<path d="M265.701 81.9834C267.562 84.0983 271.676 83.52 274.89 80.6916C278.103 77.8633 279.198 73.856 277.337 71.741C275.475 69.6261 271.361 70.2044 268.148 73.0328C264.935 75.8611 263.839 79.8685 265.701 81.9834Z" fill="#F7B52C"/>
</g>
</g>
<path d="M275.696 128.045C264.964 115.853 276.566 92.4039 280.4 84.6551C280.445 84.5666 284.947 75.5052 291.67 66.5218C295.447 61.4718 299.211 57.3857 302.858 54.3706C307.394 50.6209 311.771 48.5198 315.866 48.1324C319.802 47.7606 323.781 48.9027 326.771 51.2725C329.822 53.685 331.307 56.9955 330.846 60.3538C330.11 65.7053 324.611 70.2922 319.292 74.7303C313.779 79.3294 308.569 83.6769 308.211 88.7941C307.861 93.6977 312.311 98.0807 317.73 98.1713C323.655 98.2764 329.297 93.2074 334.759 88.3074C340.124 83.4929 345.193 78.9392 350.358 79.1614C353.242 79.2832 355.738 80.9247 357.397 83.7795C358.929 86.4159 359.579 89.7857 359.173 93.0197C358.69 96.8671 356.629 100.936 353.037 105.115C350.149 108.479 346.26 111.928 341.487 115.362C332.989 121.48 324.541 125.488 324.189 125.657C315.894 129.569 287.91 141.322 275.94 128.322C275.86 128.23 275.777 128.136 275.696 128.045ZM328.295 52.9205C327.815 52.3752 327.271 51.8595 326.66 51.3804C323.731 49.0603 319.674 47.895 315.821 48.2586C311.762 48.6408 307.418 50.7236 302.913 54.4518C299.28 57.4548 295.526 61.5327 291.764 66.5634C285.055 75.5345 280.554 84.5786 280.512 84.6702C276.691 92.3966 265.116 115.8 275.807 127.947C275.888 128.038 275.968 128.13 276.049 128.221C287.978 141.176 315.897 129.452 324.169 125.551C324.524 125.384 332.953 121.382 341.437 115.277C346.193 111.852 350.068 108.415 352.944 105.066C356.511 100.915 358.558 96.8754 359.035 93.0596C359.436 89.8469 358.795 86.4964 357.269 83.8763C355.622 81.0438 353.146 79.4165 350.294 79.2937C345.191 79.0765 340.154 83.6017 334.817 88.3917C329.33 93.3192 323.652 98.4137 317.664 98.3107C315.071 98.2678 312.534 97.2242 310.71 95.4505C308.831 93.6332 307.896 91.2827 308.067 88.8451C308.43 83.6588 313.916 79.0842 319.221 74.6583C324.511 70.2446 329.978 65.6862 330.704 60.3977C331.073 57.7371 330.201 55.1039 328.286 52.9287L328.295 52.9205Z" fill="#F7B52C"/>
<mask id="mask12_446_2220" style="mask-type:luminance" maskUnits="userSpaceOnUse" x="6" y="473" width="91" height="76">
<path d="M51.1093 543.579C46.9475 549.496 35.4644 549.805 28.2302 547.693C15.3117 543.921 6.44258 529.64 6.38232 516.509C6.28019 494.318 31.3745 482.244 36.0634 479.989C38.3175 478.906 66.2597 465.903 82.7532 479.7C89.9902 485.751 92.4471 494.805 94.2324 501.379C95.7511 506.973 97.6915 514.523 94.4937 522.561C93.5055 525.05 91.6958 529.425 87.1325 532.083C81.4851 535.372 75.2174 533.936 74.3208 533.717C69.2494 532.478 68.6274 529.818 64.5565 529.876C60.0761 529.939 56.7892 533.216 56.0311 533.973C52.4451 537.549 53.2109 540.576 51.1006 543.576L51.1093 543.579Z" fill="white"/>
</mask>
<g mask="url(#mask12_446_2220)">
<mask id="mask13_446_2220" style="mask-type:luminance" maskUnits="userSpaceOnUse" x="62" y="495" width="81" height="81">
<path d="M142.132 563.172L129.991 495.663L62.1602 507.862L74.3011 575.371L142.132 563.172Z" fill="white"/>
</mask>
<g mask="url(#mask13_446_2220)">
<path d="M71.9604 552.097C72.4542 554.842 75.0906 556.665 77.849 556.169C80.6075 555.673 82.4434 553.045 81.9496 550.3C81.4559 547.555 78.8195 545.731 76.0611 546.227C73.3026 546.723 71.4667 549.351 71.9604 552.097Z" fill="#0054A7"/>
<path d="M69.5327 538.596C70.0264 541.341 72.6628 543.164 75.4213 542.668C78.1797 542.172 80.0156 539.544 79.5219 536.799C79.0282 534.054 76.3918 532.23 73.6333 532.726C70.8749 533.222 69.039 535.85 69.5327 538.596Z" fill="#0054A7"/>
<path d="M67.104 525.091C67.5977 527.836 70.2341 529.659 72.9926 529.163C75.751 528.667 77.5869 526.04 77.0932 523.294C76.5995 520.549 73.9631 518.725 71.2046 519.221C68.4462 519.718 66.6102 522.345 67.104 525.091Z" fill="#0054A7"/>
<path d="M64.6758 511.59C65.1695 514.335 67.8059 516.158 70.5644 515.662C73.3228 515.166 75.1587 512.539 74.665 509.793C74.1712 507.048 71.5348 505.224 68.7764 505.721C66.0179 506.217 64.182 508.844 64.6758 511.59Z" fill="#0054A7"/>
<path d="M84.5547 544.255C85.0484 547.001 87.6848 548.824 90.4433 548.328C93.2017 547.832 95.0376 545.204 94.5439 542.459C94.0502 539.713 91.4137 537.89 88.6553 538.386C85.8968 538.882 84.0609 541.51 84.5547 544.255Z" fill="#0054A7"/>
<path d="M82.1264 530.754C82.6202 533.5 85.2566 535.323 88.015 534.827C90.7735 534.331 92.6094 531.703 92.1157 528.958C91.6219 526.212 88.9855 524.389 86.2271 524.885C83.4686 525.381 81.6327 528.009 82.1264 530.754Z" fill="#0054A7"/>
<path d="M79.6982 517.253C80.1919 519.998 82.8284 521.822 85.5868 521.325C88.3453 520.829 90.1812 518.202 89.6874 515.456C89.1937 512.711 86.5573 510.888 83.7988 511.384C81.0404 511.88 79.2045 514.507 79.6982 517.253Z" fill="#0054A7"/>
<path d="M77.2705 503.752C77.7642 506.497 80.4006 508.321 83.1591 507.824C85.9175 507.328 87.7534 504.701 87.2597 501.955C86.766 499.21 84.1296 497.387 81.3711 497.883C78.6127 498.379 76.7767 501.006 77.2705 503.752Z" fill="#0054A7"/>
<path d="M94.7246 522.911C95.2183 525.657 97.8547 527.48 100.613 526.984C103.372 526.488 105.208 523.86 104.714 521.115C104.22 518.37 101.584 516.546 98.8252 517.042C96.0668 517.538 94.2309 520.166 94.7246 522.911Z" fill="#0054A7"/>
<path d="M92.2969 509.41C92.7906 512.156 95.427 513.979 98.1854 513.483C100.944 512.987 102.78 510.359 102.286 507.614C101.792 504.869 99.1559 503.045 96.3975 503.541C93.639 504.037 91.8031 506.665 92.2969 509.41Z" fill="#0054A7"/>
</g>
<mask id="mask14_446_2220" style="mask-type:luminance" maskUnits="userSpaceOnUse" x="-6" y="507" width="81" height="81">
<path d="M74.3011 575.371L62.1602 507.862L-5.67039 520.061L6.47056 587.57L74.3011 575.371Z" fill="white"/>
</mask>
<g mask="url(#mask14_446_2220)">
<path d="M1.70602 550.794C2.19976 553.539 4.83617 555.363 7.59462 554.866C10.3531 554.37 12.189 551.743 11.6953 548.997C11.2015 546.252 8.5651 544.429 5.80666 544.925C3.04821 545.421 1.21229 548.048 1.70602 550.794Z" fill="#0054A7"/>
<path d="M-0.722686 537.288C-0.228953 540.034 2.40746 541.857 5.16591 541.361C7.92436 540.865 9.76027 538.237 9.26654 535.492C8.77281 532.747 6.13639 530.923 3.37795 531.419C0.619499 531.915 -1.21642 534.543 -0.722686 537.288Z" fill="#0054A7"/>
<path d="M-3.15091 523.787C-2.65718 526.533 -0.0207594 528.356 2.73769 527.86C5.49613 527.364 7.33205 524.736 6.83832 521.991C6.34458 519.246 3.70817 517.422 0.949723 517.918C-1.80872 518.414 -3.64464 521.042 -3.15091 523.787Z" fill="#0054A7"/>
<path d="M14.2998 542.952C14.7935 545.697 17.4299 547.521 20.1884 547.025C22.9468 546.529 24.7827 543.901 24.289 541.156C23.7953 538.41 21.1589 536.587 18.4004 537.083C15.642 537.579 13.8061 540.207 14.2998 542.952Z" fill="#0054A7"/>
<path d="M11.8721 529.451C12.3658 532.196 15.0022 534.02 17.7606 533.524C20.5191 533.028 22.355 530.4 21.8613 527.655C21.3675 524.909 18.7311 523.086 15.9727 523.582C13.2142 524.078 11.3783 526.706 11.8721 529.451Z" fill="#0054A7"/>
<path d="M9.44383 515.95C9.93756 518.695 12.574 520.519 15.3324 520.023C18.0909 519.527 19.9268 516.899 19.433 514.154C18.9393 511.408 16.3029 509.585 13.5444 510.081C10.786 510.577 8.9501 513.205 9.44383 515.95Z" fill="#0054A7"/>
<path d="M29.3222 548.611C29.816 551.357 32.4524 553.18 35.2108 552.684C37.9693 552.188 39.8052 549.56 39.3115 546.815C38.8177 544.069 36.1813 542.246 33.4229 542.742C30.6644 543.238 28.8285 545.866 29.3222 548.611Z" fill="#0054A7"/>
<path d="M26.894 535.11C27.3878 537.856 30.0242 539.679 32.7826 539.183C35.5411 538.687 37.377 536.059 36.8832 533.314C36.3895 530.568 33.7531 528.745 30.9947 529.241C28.2362 529.737 26.4003 532.365 26.894 535.11Z" fill="#0054A7"/>
<path d="M24.4663 521.609C24.96 524.355 27.5964 526.178 30.3549 525.682C33.1133 525.186 34.9492 522.558 34.4555 519.813C33.9618 517.067 31.3254 515.244 28.5669 515.74C25.8085 516.236 23.9726 518.864 24.4663 521.609Z" fill="#0054A7"/>
<path d="M44.3447 554.275C44.8384 557.02 47.4749 558.844 50.2333 558.347C52.9917 557.851 54.8277 555.224 54.3339 552.478C53.8402 549.733 51.2038 547.909 48.4453 548.406C45.6869 548.902 43.851 551.529 44.3447 554.275Z" fill="#0054A7"/>
<path d="M41.9165 540.774C42.4102 543.519 45.0466 545.343 47.8051 544.846C50.5635 544.35 52.3994 541.723 51.9057 538.977C51.412 536.232 48.7756 534.409 46.0171 534.905C43.2587 535.401 41.4227 538.028 41.9165 540.774Z" fill="#0054A7"/>
<path d="M39.4887 527.273C39.9825 530.018 42.6189 531.842 45.3773 531.345C48.1358 530.849 49.9717 528.222 49.478 525.476C48.9842 522.731 46.3478 520.908 43.5894 521.404C40.8309 521.9 38.995 524.527 39.4887 527.273Z" fill="#0054A7"/>
<path d="M37.06 513.768C37.5538 516.513 40.1902 518.337 42.9486 517.841C45.7071 517.345 47.543 514.717 47.0493 511.971C46.5555 509.226 43.9191 507.403 41.1607 507.899C38.4022 508.395 36.5663 511.023 37.06 513.768Z" fill="#0054A7"/>
<path d="M56.9385 546.433C57.4322 549.178 60.0686 551.002 62.827 550.506C65.5855 550.01 67.4214 547.382 66.9277 544.636C66.4339 541.891 63.7975 540.068 61.0391 540.564C58.2806 541.06 56.4447 543.688 56.9385 546.433Z" fill="#0054A7"/>
<path d="M54.5107 532.932C55.0045 535.677 57.6409 537.501 60.3993 537.005C63.1578 536.509 64.9937 533.881 64.4999 531.135C64.0062 528.39 61.3698 526.567 58.6113 527.063C55.8529 527.559 54.017 530.187 54.5107 532.932Z" fill="#0054A7"/>
<path d="M52.0825 519.431C52.5762 522.176 55.2126 524 57.9711 523.504C60.7295 523.008 62.5654 520.38 62.0717 517.635C61.578 514.889 58.9416 513.066 56.1831 513.562C53.4247 514.058 51.5888 516.686 52.0825 519.431Z" fill="#0054A7"/>
<path d="M49.6543 505.93C50.148 508.675 52.7844 510.499 55.5429 510.003C58.3013 509.507 60.1372 506.879 59.6435 504.134C59.1498 501.388 56.5134 499.565 53.7549 500.061C50.9965 500.557 49.1605 503.185 49.6543 505.93Z" fill="#0054A7"/>
</g>
<mask id="mask15_446_2220" style="mask-type:luminance" maskUnits="userSpaceOnUse" x="50" y="428" width="80" height="80">
<path d="M129.991 495.663L117.85 428.154L50.0191 440.353L62.16 507.862L129.991 495.663Z" fill="white"/>
</mask>
<g mask="url(#mask15_446_2220)">
<path d="M64.6762 511.59C65.17 514.335 67.8064 516.158 70.5648 515.662C73.3233 515.166 75.1592 512.539 74.6655 509.793C74.1717 507.048 71.5353 505.224 68.7769 505.721C66.0184 506.217 64.1825 508.844 64.6762 511.59Z" fill="#0054A7"/>
<path d="M62.2485 498.089C62.7422 500.834 65.3787 502.657 68.1371 502.161C70.8956 501.665 72.7315 499.038 72.2377 496.292C71.744 493.547 69.1076 491.723 66.3491 492.22C63.5907 492.716 61.7548 495.343 62.2485 498.089Z" fill="#0054A7"/>
<path d="M59.8203 484.588C60.314 487.333 62.9504 489.157 65.7089 488.66C68.4673 488.164 70.3032 485.537 69.8095 482.791C69.3158 480.046 66.6794 478.222 63.9209 478.719C61.1625 479.215 59.3266 481.842 59.8203 484.588Z" fill="#0054A7"/>
<path d="M57.3921 471.087C57.8858 473.832 60.5222 475.656 63.2807 475.159C66.0391 474.663 67.875 472.036 67.3813 469.29C66.8876 466.545 64.2511 464.721 61.4927 465.218C58.7343 465.714 56.8983 468.341 57.3921 471.087Z" fill="#0054A7"/>
<path d="M77.271 503.752C77.7647 506.497 80.4011 508.321 83.1596 507.824C85.918 507.328 87.7539 504.701 87.2602 501.955C86.7665 499.21 84.13 497.387 81.3716 497.883C78.6132 498.379 76.7772 501.006 77.271 503.752Z" fill="#0054A7"/>
<path d="M74.8427 490.251C75.3365 492.996 77.9729 494.82 80.7313 494.324C83.4898 493.827 85.3257 491.2 84.832 488.454C84.3382 485.709 81.7018 483.886 78.9434 484.382C76.1849 484.878 74.349 487.505 74.8427 490.251Z" fill="#0054A7"/>
<path d="M72.414 476.746C72.9078 479.491 75.5442 481.315 78.3026 480.819C81.0611 480.323 82.897 477.695 82.4033 474.949C81.9095 472.204 79.2731 470.381 76.5147 470.877C73.7562 471.373 71.9203 474.001 72.414 476.746Z" fill="#0054A7"/>
<path d="M89.8686 495.91C90.3624 498.655 92.9988 500.478 95.7572 499.982C98.5157 499.486 100.352 496.858 99.8578 494.113C99.3641 491.368 96.7277 489.544 93.9693 490.04C91.2108 490.536 89.3749 493.164 89.8686 495.91Z" fill="#0054A7"/>
<path d="M87.4404 482.409C87.9341 485.154 90.5706 486.977 93.329 486.481C96.0874 485.985 97.9234 483.357 97.4296 480.612C96.9359 477.867 94.2995 476.043 91.541 476.539C88.7826 477.035 86.9467 479.663 87.4404 482.409Z" fill="#0054A7"/>
<path d="M85.0127 468.908C85.5064 471.653 88.1428 473.476 90.9013 472.98C93.6597 472.484 95.4956 469.856 95.0019 467.111C94.5082 464.366 91.8717 462.542 89.1133 463.038C86.3549 463.534 84.5189 466.162 85.0127 468.908Z" fill="#0054A7"/>
</g>
<mask id="mask16_446_2220" style="mask-type:luminance" maskUnits="userSpaceOnUse" x="-18" y="440" width="81" height="81">
<path d="M62.16 507.862L50.019 440.353L-17.8115 452.551L-5.67055 520.06L62.16 507.862Z" fill="white"/>
</mask>
<g mask="url(#mask16_446_2220)">
<path d="M-3.15042 523.787C-2.65669 526.533 -0.0202711 528.356 2.73818 527.86C5.49662 527.364 7.33254 524.736 6.83881 521.991C6.34507 519.246 3.70866 517.422 0.950211 517.918C-1.80824 518.414 -3.64415 521.042 -3.15042 523.787Z" fill="#0054A7"/>
<path d="M9.44432 515.95C9.93805 518.695 12.5745 520.519 15.3329 520.023C18.0913 519.527 19.9273 516.899 19.4335 514.154C18.9398 511.408 16.3034 509.585 13.5449 510.081C10.7865 510.577 8.95059 513.205 9.44432 515.95Z" fill="#0054A7"/>
<path d="M7.0161 502.449C7.50983 505.194 10.1462 507.018 12.9047 506.522C15.6631 506.026 17.499 503.398 17.0053 500.653C16.5116 497.907 13.8752 496.084 11.1167 496.58C8.35827 497.076 6.52236 499.704 7.0161 502.449Z" fill="#0054A7"/>
<path d="M4.58739 488.944C5.08112 491.69 7.71752 493.513 10.476 493.017C13.2344 492.521 15.0703 489.893 14.5766 487.148C14.0829 484.402 11.4465 482.579 8.688 483.075C5.92956 483.571 4.09365 486.199 4.58739 488.944Z" fill="#0054A7"/>
<path d="M2.15965 475.443C2.65338 478.189 5.28979 480.012 8.04823 479.516C10.8067 479.02 12.6426 476.392 12.1489 473.647C11.6551 470.901 9.01872 469.078 6.26027 469.574C3.50182 470.07 1.66592 472.698 2.15965 475.443Z" fill="#0054A7"/>
<path d="M22.0381 508.108C22.5318 510.854 25.1682 512.677 27.9267 512.181C30.6851 511.685 32.521 509.057 32.0273 506.312C31.5335 503.566 28.8971 501.743 26.1387 502.239C23.3802 502.735 21.5443 505.363 22.0381 508.108Z" fill="#0054A7"/>
<path d="M19.6098 494.607C20.1036 497.353 22.74 499.176 25.4984 498.68C28.2569 498.184 30.0928 495.556 29.5991 492.811C29.1053 490.065 26.4689 488.242 23.7105 488.738C20.952 489.234 19.1161 491.862 19.6098 494.607Z" fill="#0054A7"/>
<path d="M17.1821 481.106C17.6758 483.852 20.3123 485.675 23.0707 485.179C25.8291 484.683 27.6651 482.055 27.1713 479.31C26.6776 476.564 24.0412 474.741 21.2827 475.237C18.5243 475.733 16.6884 478.361 17.1821 481.106Z" fill="#0054A7"/>
<path d="M37.06 513.768C37.5538 516.513 40.1902 518.337 42.9486 517.841C45.7071 517.345 47.543 514.717 47.0493 511.971C46.5555 509.226 43.9191 507.403 41.1607 507.899C38.4022 508.395 36.5663 511.023 37.06 513.768Z" fill="#0054A7"/>
<path d="M34.6318 500.267C35.1255 503.012 37.762 504.836 40.5204 504.34C43.2789 503.844 45.1148 501.216 44.621 498.47C44.1273 495.725 41.4909 493.902 38.7324 494.398C35.974 494.894 34.1381 497.522 34.6318 500.267Z" fill="#0054A7"/>
<path d="M32.2041 486.766C32.6978 489.511 35.3342 491.335 38.0927 490.839C40.8511 490.343 42.687 487.715 42.1933 484.969C41.6996 482.224 39.0632 480.401 36.3047 480.897C33.5463 481.393 31.7103 484.021 32.2041 486.766Z" fill="#0054A7"/>
<path d="M29.7759 473.265C30.2696 476.01 32.906 477.834 35.6645 477.338C38.4229 476.842 40.2588 474.214 39.7651 471.468C39.2713 468.723 36.6349 466.9 33.8765 467.396C31.118 467.892 29.2821 470.52 29.7759 473.265Z" fill="#0054A7"/>
<path d="M49.6543 505.93C50.148 508.675 52.7844 510.499 55.5429 510.003C58.3013 509.507 60.1372 506.879 59.6435 504.134C59.1498 501.388 56.5134 499.565 53.7549 500.061C50.9965 500.557 49.1605 503.185 49.6543 505.93Z" fill="#0054A7"/>
<path d="M47.2265 492.429C47.7203 495.174 50.3567 496.998 53.1151 496.502C55.8736 496.006 57.7095 493.378 57.2158 490.633C56.722 487.887 54.0856 486.064 51.3272 486.56C48.5687 487.056 46.7328 489.684 47.2265 492.429Z" fill="#0054A7"/>
<path d="M44.7983 478.928C45.2921 481.673 47.9285 483.497 50.6869 483.001C53.4454 482.505 55.2813 479.877 54.7875 477.132C54.2938 474.386 51.6574 472.563 48.8989 473.059C46.1405 473.555 44.3046 476.183 44.7983 478.928Z" fill="#0054A7"/>
</g>
</g>
<path d="M6.84096 521.978C6.51309 520.155 6.33978 518.325 6.33322 516.509C6.30829 511.398 7.6369 506.424 10.2757 501.732C12.4421 497.88 15.5096 494.181 19.3937 490.735C26.2461 484.657 33.6193 481.11 36.043 479.943C37.4319 479.273 44.8293 475.86 54.0625 474.216C59.4241 473.26 64.391 473.098 68.8272 473.725C74.3079 474.503 79.0068 476.499 82.7879 479.665C90.0351 485.726 92.4898 494.768 94.2841 501.37C95.6902 506.542 97.8104 514.363 94.5431 522.585C93.6618 524.801 91.8284 529.409 87.1617 532.13C81.6592 535.337 75.4943 534.061 74.3141 533.771C71.9545 533.196 70.5615 532.315 69.3303 531.536C67.938 530.66 66.7349 529.901 64.5664 529.931C62.5333 529.962 59.4076 530.692 56.0754 534.014C53.9604 536.121 53.3681 538.028 52.7976 539.874C52.3976 541.163 52.0181 542.382 51.1521 543.612C49.8263 545.499 46.9576 547.91 40.8282 548.702C36.7708 549.223 32.0551 548.867 28.2196 547.748C22.1157 545.968 16.5144 541.668 12.4454 535.647C9.61692 531.461 7.69938 526.751 6.84238 521.986L6.84096 521.978ZM95.6006 507.367C95.1995 505.137 94.6515 503.116 94.1815 501.392C92.3933 494.802 89.9421 485.78 82.7191 479.738C78.9488 476.587 74.2712 474.595 68.8078 473.822C64.3843 473.197 59.426 473.362 54.0756 474.312C44.8544 475.954 37.4689 479.364 36.0832 480.03C33.6635 481.196 26.2975 484.737 19.4556 490.805C10.7673 498.512 6.38676 507.159 6.43072 516.504C6.46006 523.031 8.62608 529.806 12.5228 535.576C16.5803 541.578 22.1622 545.861 28.2408 547.638C32.0637 548.755 36.7628 549.11 40.8083 548.591C46.898 547.806 49.7456 545.416 51.0624 543.546C51.9178 542.327 52.2949 541.116 52.6923 539.836C53.2693 537.981 53.8634 536.061 55.9954 533.935C59.3526 530.591 62.5015 529.854 64.5552 529.823C66.7562 529.791 67.9686 530.557 69.3757 531.447C70.6015 532.218 71.9891 533.091 74.3281 533.667C75.4996 533.954 81.6306 535.224 87.0995 532.035C91.7365 529.332 93.5616 524.745 94.4363 522.539C96.6021 517.087 96.3906 511.805 95.5912 507.36L95.6006 507.367Z" fill="#0054A7"/>
<path d="M75.9141 519.174C74.4361 519.395 72.2841 517.374 67.9721 513.332C65.3811 510.899 64.066 509.654 63.3217 508.138C61.8005 505.04 61.1053 499.874 63.7588 497.02C67.3264 493.182 75.8522 494.699 79.6908 499.279C85.3522 506.034 80.0526 518.557 75.9155 519.182L75.9141 519.174Z" fill="white"/>
<path d="M37.9952 537.192C36.5172 537.413 34.3651 535.391 30.0531 531.349C27.4621 528.917 26.147 527.671 25.4028 526.156C23.8815 523.057 23.1863 517.891 25.8399 515.038C29.4074 511.2 37.9333 512.716 41.7719 517.296C47.4332 524.051 42.1337 536.574 37.9966 537.2L37.9952 537.192Z" fill="white"/>
<mask id="mask17_446_2220" style="mask-type:luminance" maskUnits="userSpaceOnUse" x="279" y="833" width="95" height="78">
<path d="M317.219 896.746C311.917 906.892 311.247 910.633 309.309 910.623C306.488 910.607 302.441 902.639 303.876 895.541C305.02 889.889 308.665 889.628 311.256 881.119C312.786 876.101 312.499 872.956 311.845 870.645C311.238 868.515 310.2 866.681 309.427 865.748C303.3 858.358 282.076 869.05 280.106 865.767C277.826 861.97 298.632 834.811 328.418 833.631C341.473 833.113 362.041 837.353 369.986 852.457C374.587 861.206 373.669 871.158 373.394 874.15C373.02 878.185 372.195 886.021 366.63 893.633C364.389 896.696 357.09 906.671 348.713 905.959C336.878 904.954 332.324 883.435 325.223 884.846C323.288 885.232 321.24 889.077 317.228 896.752L317.219 896.746Z" fill="white"/>
</mask>
<g mask="url(#mask17_446_2220)">
<mask id="mask18_446_2220" style="mask-type:luminance" maskUnits="userSpaceOnUse" x="310" y="785" width="85" height="135">
<path d="M383.355 919.345L394.85 792.008L321.602 785.396L310.107 912.733L383.355 919.345Z" fill="white"/>
</mask>
<g mask="url(#mask18_446_2220)">
<path d="M307.382 976.671L318.877 849.334L316.262 849.098L304.767 976.435L307.382 976.671Z" fill="#E60019"/>
<path d="M318.878 849.335L330.373 721.998L327.757 721.762L316.262 849.098L318.878 849.335Z" fill="#E60019"/>
<path d="M320.453 913.667L331.948 786.33L329.333 786.094L317.838 913.43L320.453 913.667Z" fill="#E60019"/>
<path d="M322.03 977.993L333.525 850.657L330.91 850.421L319.415 977.757L322.03 977.993Z" fill="#E60019"/>
<path d="M333.525 850.657L345.02 723.32L342.405 723.084L330.91 850.421L333.525 850.657Z" fill="#E60019"/>
<path d="M335.101 914.989L346.596 787.652L343.981 787.416L332.486 914.753L335.101 914.989Z" fill="#E60019"/>
<path d="M336.682 979.316L348.177 851.979L345.562 851.743L334.067 979.08L336.682 979.316Z" fill="#E60019"/>
<path d="M348.177 851.98L359.672 724.643L357.057 724.407L345.562 851.743L348.177 851.98Z" fill="#E60019"/>
<path d="M349.754 916.312L361.249 788.975L358.633 788.739L347.138 916.075L349.754 916.312Z" fill="#E60019"/>
<path d="M351.329 980.638L362.824 853.302L360.208 853.066L348.713 980.402L351.329 980.638Z" fill="#E60019"/>
<path d="M362.824 853.302L374.319 725.965L371.704 725.729L360.209 853.066L362.824 853.302Z" fill="#E60019"/>
<path d="M364.4 917.634L375.895 790.297L373.279 790.061L361.784 917.398L364.4 917.634Z" fill="#E60019"/>
<path d="M365.976 981.961L377.471 854.624L374.856 854.388L363.361 981.724L365.976 981.961Z" fill="#E60019"/>
</g>
<mask id="mask19_446_2220" style="mask-type:luminance" maskUnits="userSpaceOnUse" x="236" y="778" width="86" height="135">
<path d="M310.112 912.733L321.607 785.396L248.36 778.784L236.865 906.121L310.112 912.733Z" fill="white"/>
</mask>
<g mask="url(#mask19_446_2220)">
<path d="M274.929 845.367L286.424 718.031L283.809 717.795L272.314 845.131L274.929 845.367Z" fill="#E60019"/>
<path d="M276.505 909.699L288 782.363L285.385 782.127L273.89 909.463L276.505 909.699Z" fill="#E60019"/>
<path d="M278.082 974.026L289.577 846.689L286.961 846.453L275.466 973.79L278.082 974.026Z" fill="#E60019"/>
<path d="M289.577 846.69L301.072 719.353L298.457 719.117L286.961 846.453L289.577 846.69Z" fill="#E60019"/>
<path d="M291.153 911.022L302.648 783.685L300.033 783.449L288.538 910.785L291.153 911.022Z" fill="#E60019"/>
<path d="M292.734 975.349L304.229 848.012L301.614 847.776L290.119 975.113L292.734 975.349Z" fill="#E60019"/>
<path d="M304.229 848.012L315.724 720.676L313.109 720.44L301.614 847.776L304.229 848.012Z" fill="#E60019"/>
<path d="M305.805 912.344L317.3 785.008L314.685 784.772L303.19 912.108L305.805 912.344Z" fill="#E60019"/>
</g>
</g>
<path d="M279.884 864.768C279.957 863.956 280.365 862.842 281.085 861.504C282.354 859.157 284.48 856.337 287.07 853.564C290.08 850.346 293.659 847.248 297.426 844.601C304.17 839.863 315.023 834.098 328.409 833.566C335.951 833.268 344.232 834.561 351.13 837.123C359.953 840.401 366.489 845.689 370.028 852.422C371.992 856.152 373.18 860.533 373.565 865.451C373.875 869.412 373.581 872.617 373.438 874.149C373.084 877.957 372.354 885.879 366.661 893.66C365.522 895.219 363.153 898.456 359.996 901.251C356.077 904.718 352.277 906.319 348.688 906.015C342.251 905.468 338.005 898.954 334.259 893.211C331.13 888.41 328.429 884.263 325.213 884.899C323.263 885.283 321.131 889.365 317.26 896.774C315.375 900.376 314.062 903.206 313.101 905.273C311.322 909.104 310.584 910.689 309.298 910.681C308.534 910.675 307.677 910.12 306.822 909.068C304.589 906.323 302.772 900.642 303.809 895.53C304.355 892.831 305.468 891.352 306.758 889.641C308.198 887.729 309.831 885.562 311.189 881.103C312.837 875.691 312.311 872.554 311.775 870.663C311.147 868.448 310.086 866.651 309.369 865.787C305.682 861.341 296.606 863.455 289.313 865.156C284.579 866.259 280.84 867.13 280.039 865.8C279.886 865.548 279.835 865.202 279.874 864.772L279.884 864.768ZM373.359 873.776C373.508 872.133 373.74 869.122 373.451 865.465C373.065 860.567 371.88 856.2 369.925 852.486C366.398 845.778 359.885 840.506 351.091 837.242C344.206 834.685 335.94 833.393 328.413 833.693C303.815 834.67 285.681 853.244 281.186 861.566C280.121 863.541 279.745 865.062 280.152 865.737C280.906 866.995 284.794 866.088 289.295 865.037C296.618 863.33 305.738 861.205 309.469 865.708C310.194 866.583 311.264 868.395 311.9 870.631C312.44 872.536 312.968 875.698 311.312 881.139C309.948 885.616 308.309 887.793 306.863 889.714C305.584 891.416 304.477 892.886 303.933 895.556C302.905 900.629 304.706 906.27 306.921 908.994C307.742 909.999 308.588 910.558 309.304 910.564C310.512 910.571 311.243 909.009 312.997 905.23C313.959 903.162 315.277 900.328 317.157 896.721C321.34 888.716 323.274 885.162 325.195 884.78C328.49 884.127 331.212 888.306 334.367 893.142C338.096 898.864 342.325 905.353 348.704 905.894C352.254 906.195 356.029 904.601 359.922 901.161C363.068 898.38 365.431 895.143 366.57 893.593C372.241 885.84 372.974 877.937 373.321 874.143C373.331 874.032 373.343 873.906 373.354 873.776L373.359 873.776Z" fill="#E60019"/>
<path d="M346.714 888.643C345.02 887.213 343.909 885.373 342.081 880.841C340.066 875.849 339.059 873.351 339.047 872.024C338.996 865.24 345.814 856.664 351.474 858.043C356.052 859.158 357.917 866.3 358.352 867.967C359.54 872.514 358.835 876.432 358.138 880.322C357.234 885.367 355.864 887.052 355.48 887.577C354.24 889.269 352.288 890.438 350.336 890.354C348.69 890.283 347.542 889.346 346.709 888.642L346.714 888.643Z" fill="white"/>
<path d="M483.503 712.46C492.842 730.267 538.944 720.239 547.309 735.825C551.183 743.045 546.522 754.938 538.176 759.152C519.559 768.542 487.32 737.364 469.292 747.974C462.98 751.691 462.653 758.032 455.062 759.116C448.03 760.116 439.311 755.956 435.718 749.934C432.686 744.857 434.768 740.911 440.816 723.395C449.288 698.861 449.511 694.165 455.772 691.551C462.834 688.603 472.921 690.232 478.225 695.12C484.007 700.449 480.097 705.985 483.502 712.466L483.503 712.46Z" fill="#1B66B0"/>
</g>
</svg>
