<?xml version="1.0" encoding="UTF-8"?>
<svg id="_レイヤー_2" data-name="レイヤー 2" xmlns="http://www.w3.org/2000/svg" viewBox="0 0 110.15 110.14">
  <defs>
    <style>
      .cls-1 {
        fill: none;
      }

      .cls-1, .cls-2, .cls-3 {
        stroke-width: 0px;
      }

      .cls-2 {
        fill: #191919;
      }

      .cls-3 {
        fill: #fff;
      }
    </style>
  </defs>
  <g id="_レイヤー_1-2" data-name="レイヤー 1">
    <g>
      <g>
        <g>
          <path class="cls-3" d="M68.26,42.09c-.16-.02-.32-.03-.51-.03l.51.03Z"/>
          <path class="cls-3" d="M88.74,43.15c.16.02.32.03.51.03l-.51-.03Z"/>
          <path class="cls-2" d="M28.69,29.82c-.82.07-1.66.03-2.49-.13.63-.15,1.24-.38,1.81-.67-.39-.53-.7-1.11-.94-1.72-.54.06-1.08.08-1.63.03.52-.07,1.02-.19,1.52-.34-.54-1.55-.61-3.27-.18-4.89-2.62,3.51-2.3,8.63.35,12.07,0,0,2.99-3.21,2.99-3.21-.3-.11-.58-.39-.85-.6-.21-.17-.4-.36-.58-.55Z"/>
          <path class="cls-2" d="M46.25,21.18c.3,1.77.17,3.7-.66,5.29,0,0,0,.01-.01.02.46.13.93.24,1.4.31-.52.04-1.05.03-1.56-.02-.33.58-.72,1.13-1.17,1.62.62.33,1.29.59,1.98.75-.97.19-1.95.2-2.9.08-.3.23-.62.43-.95.59,0,0,2.78,3.39,2.78,3.39,1.48-1.71,2.39-3.97,2.57-6.2.18-2.09-.41-4.08-1.47-5.82Z"/>
          <path class="cls-2" d="M84.45,38.73h-3.54c-1.86,0-3.37-1.51-3.37-3.37s1.51-3.37,3.37-3.37h3.54c.46,0,.84.37.84.84s-.37.84-.84.84h-3.54c-.94,0-1.7.76-1.7,1.7s.76,1.7,1.7,1.7h3.54c.46,0,.84.37.84.84s-.37.84-.84.84Z"/>
          <path class="cls-1" d="M69.72,41.13c0-.31,0-.67.01-1.09,0-.42.03-.86.06-1.33.03-.47.07-.96.13-1.45.04-.37.1-.74.16-1.1h-1.52c-.2.97-.46,1.95-.78,2.92-.34,1.02-.74,2.04-1.2,3.05-.44.97-.92,1.94-1.43,2.86.22,1.1.52,1.97.88,2.6.57.99,1.33,1.11,2.04.5.33-.28.63-.61.9-.99.28-.39.53-.79.74-1.19.16-.31.29-.56.4-.77-.04-.18-.08-.36-.11-.54-.19-1.05-.29-2.21-.29-3.46Z"/>
          <path class="cls-1" d="M72.73,37.75c.07-.57.11-1.11.13-1.6h-1.11c-.1.52-.19,1.15-.26,1.88-.08.84-.12,1.88-.12,3.09,0,.67.02,1.24.05,1.69,0,.05,0,.1.01.16.12-.31.23-.63.34-.97.23-.7.42-1.42.58-2.14.16-.72.29-1.43.37-2.12Z"/>
          <path class="cls-1" d="M72.63,34.06s-.03-.08-.05-.1c-.03.03-.07.07-.12.12h0c-.07.07-.16.22-.27.49h.57c-.04-.21-.08-.38-.14-.52Z"/>
          <path class="cls-1" d="M64.92,36.16c-.04.45-.08.91-.11,1.37-.05.78-.08,1.57-.08,2.35,0,.59.01,1.17.04,1.71,0,.17.02.33.03.49.22-.46.43-.94.63-1.43.35-.84.66-1.7.93-2.57.19-.62.36-1.26.51-1.93h-1.95Z"/>
          <path class="cls-1" d="M81.02,53.54c-.22.35-.42.72-.62,1.09-.34.66-.64,1.32-.89,1.97-.25.65-.44,1.28-.58,1.87-.13.58-.2,1.11-.2,1.56s.07.77.2.99c.1.18.26.26.5.26.21,0,.4-.11.59-.34.21-.27.4-.67.55-1.2.16-.54.28-1.21.36-1.99.08-.78.12-1.68.12-2.65,0-.4,0-.8-.02-1.21,0-.12,0-.24-.01-.36Z"/>
          <path class="cls-1" d="M65.85,34.58h1.28c.07-.56.11-1.05.11-1.48,0-1.06-.08-1.82-.25-2.27-.09-.24-.24-.52-.44-.52-.09,0-.2.1-.32.27-.17.25-.33.6-.48,1.04-.15.45-.3,1-.43,1.62-.09.42-.16.87-.23,1.34h.75Z"/>
          <path class="cls-1" d="M40.04,50.74c-.46.42-.9.88-1.31,1.36-.41.48-.77.98-1.08,1.5-.31.51-.55,1.05-.72,1.59-.17.53-.26,1.07-.26,1.61,0,.32.05.6.15.85.1.24.23.45.41.62.18.17.39.31.63.41.24.1.52.15.82.15,1.21,0,2.13-.63,2.82-1.94.71-1.35,1.07-3.36,1.07-5.98,0-.4,0-.8-.03-1.21-.01-.26-.03-.53-.05-.8-.33.2-.67.43-1.02.68-.49.35-.97.74-1.43,1.16Z"/>
          <path class="cls-2" d="M64.93,36.02c.14.09.3.14.48.14h.44v-1.58h-.44c-.11,0-.22.02-.31.05,0-.02,0-.03,0-.05h-1.67c-.01.1-.03.19-.05.29-.06.43-.11.86-.15,1.29h1.68s0-.09.01-.14Z"/>
          <path class="cls-2" d="M86.06,44.57c-.14.08-.24.21-.31.36-.21.44-.45.86-.71,1.26-.27.4-.56.78-.87,1.15-.31.37-.64.72-.97,1.06-.15.15-.3.3-.44.45.03-.46.06-.91.1-1.35.06-.67.11-1.25.16-1.75.05-.5.1-.9.13-1.21.04-.33.06-.5.06-.53,0-.23-.08-.43-.24-.59-.3-.3-.8-.32-1.12-.05-.15.13-.24.29-.27.47-.29,1.47-.65,2.6-1.06,3.36-.37.68-.77,1.03-1.18,1.03s-.58-.17-.66-.3c-.15-.24-.23-.59-.23-1.04,0-.49.05-.94.14-1.35.1-.42.2-.78.31-1.07.11-.29.21-.51.3-.66.05-.08.09-.15.12-.22h0c.09-.13.13-.28.13-.44,0-.21-.08-.41-.23-.57-.15-.17-.36-.26-.61-.26-.29,0-.53.13-.69.37h0c-.05.07-.11.16-.18.29-.12.21-.25.49-.39.87-.08.22-.16.48-.26.81-.1.09-.18.2-.24.34-.09.22-.24.53-.44.9-.2.37-.44.75-.71,1.12-.26.36-.55.67-.85.93-.5.43-.99.42-1.4.15-.21-.14-.42-.34-.61-.58-.2-.26-.38-.56-.53-.91-.14-.31-.27-.65-.38-1.02.14-.19.28-.45.44-.78.19-.39.39-.85.58-1.37s.38-1.09.57-1.7c.18-.61.35-1.25.5-1.89.15-.64.26-1.3.35-1.95.08-.6.12-1.18.13-1.72h10.15c.22,0,.42-.07.57-.21.17-.15.26-.35.26-.58s-.09-.44-.26-.58c-.16-.14-.35-.21-.57-.21h-10.24c-.04-.25-.08-.48-.13-.7-.08-.31-.18-.58-.32-.81-.14-.24-.32-.44-.53-.58-.45-.3-1.1-.3-1.59-.01-.23.13-.44.32-.63.56-.18.22-.34.49-.47.79-.1.23-.2.48-.28.75h-1.65c.06-.53.08-1.02.08-1.5,0-.77-.05-1.43-.15-1.97-.1-.55-.24-1.01-.42-1.36-.19-.38-.44-.66-.74-.83-.29-.17-.62-.26-.99-.26-.47,0-.9.19-1.27.57-.33.34-.63.8-.88,1.38-.24.56-.46,1.21-.63,1.94-.15.64-.28,1.32-.39,2.03h1.67c.07-.47.15-.92.23-1.34.13-.62.27-1.17.43-1.62.15-.44.31-.79.48-1.04.12-.17.23-.27.32-.27.2,0,.35.28.44.52.16.44.25,1.2.25,2.27,0,.43-.03.92-.11,1.48h-1.28v1.58h1.01c-.15.68-.31,1.31-.51,1.93-.27.86-.58,1.73-.93,2.57-.2.49-.41.97-.63,1.43,0-.16-.02-.33-.03-.49-.03-.54-.04-1.12-.04-1.71,0-.78.03-1.57.08-2.35.03-.47.07-.93.11-1.37h-1.68c-.04.4-.07.8-.1,1.2-.05.84-.08,1.67-.08,2.46,0,.54.02,1.18.05,1.88.03.71.1,1.44.19,2.19.03.26.07.52.12.77-.08.07-.15.16-.2.26-.29.57-.58,1.09-.87,1.55-.29.46-.58.85-.86,1.18-.27.31-.55.56-.8.73-.37.25-.69.28-1.05.16-.12-.04-.24-.13-.36-.25-.12-.14-.23-.34-.31-.6-.09-.27-.13-.64-.13-1.11,0-.36.01-.75.03-1.18.02-.43.05-.84.08-1.22l.08-1c.02-.29.04-.47.04-.53,0-.21-.07-.41-.21-.57-.31-.35-.87-.33-1.17-.03-.14.14-.23.32-.26.52-.09.69-.15,1.45-.2,2.31-.02.03-.03.05-.04.08-.07.17-.17.37-.28.6-.11.23-.24.47-.39.73-.15.26-.32.51-.49.76-.17.24-.36.46-.56.65-.19.19-.4.34-.61.45-.44.24-.91.2-1.17-.08-.17-.19-.31-.42-.4-.68-.1-.28-.16-.58-.19-.88-.03-.3-.04-.54-.02-.72l.18-2.35c0-.22-.07-.42-.21-.59-.28-.35-.84-.38-1.18-.07-.16.14-.25.32-.28.55l-.21,2.41c-.04.43-.14.81-.28,1.12-.15.32-.31.58-.5.78-.18.2-.37.34-.56.43-.18.09-.33.13-.45.13-.31,0-.53-.1-.7-.31-.18-.23-.27-.59-.27-1.07s.04-.88.12-1.23c.08-.36.17-.68.28-.94.11-.27.21-.48.3-.64.1-.18.18-.31.23-.4.03-.06.06-.12.09-.19.04-.09.06-.19.06-.28,0-.21-.08-.41-.23-.57-.23-.25-.59-.33-.92-.2-.12.05-.21.12-.3.23-.27.37-.49.74-.65,1.1-.16.36-.3.8-.43,1.32-.13.53-.2,1.14-.2,1.81,0,.45.06.86.18,1.23.12.37.3.7.53.97.23.27.51.48.83.63.72.34,1.69.32,2.56-.29.33-.23.63-.52.89-.87.18.38.41.69.69.93.42.36.95.54,1.57.54.45,0,.87-.1,1.27-.31.37-.2.72-.45,1.04-.75.28-.27.55-.57.79-.89,0,0,0,0,0,0,.12.44.3.83.54,1.16.24.33.55.6.9.8.65.36,1.54.44,2.35.03.34-.17.67-.4.98-.67.3-.27.59-.57.86-.91.26-.33.51-.66.72-1,.1-.15.19-.3.28-.45.13.41.28.77.45,1.1.3.59.67,1.08,1.1,1.45.46.39,1.01.59,1.64.59.41,0,.8-.09,1.16-.26.34-.17.67-.38.98-.65.3-.26.58-.56.83-.88.25-.32.47-.65.68-.97.01-.02.02-.04.03-.05,0,.02.02.04.03.05.38.79.85,1.42,1.39,1.87.57.46,1.21.7,1.93.7.41,0,.81-.11,1.19-.32.35-.2.68-.45.98-.75.23-.22.44-.47.64-.73.11.35.28.65.49.91.46.55,1.1.82,1.9.82.49,0,.95-.15,1.36-.45.13-.1.25-.2.37-.32,0,.12-.01.24-.02.36-.02.45-.04.88-.06,1.29-.32.38-.64.8-.95,1.26-.33.48-.65,1-.94,1.55-.3.54-.57,1.1-.82,1.66-.25.57-.47,1.14-.65,1.69-.18.55-.32,1.1-.42,1.63-.1.53-.15,1.03-.15,1.5,0,.89.2,1.59.6,2.1.41.53,1.01.8,1.76.8.46,0,.87-.12,1.22-.35.33-.22.63-.53.87-.91.24-.37.44-.81.59-1.32.15-.49.27-1.02.35-1.58.09-.56.15-1.14.19-1.74.04-.61.06-1.22.06-1.81,0-.73-.02-1.43-.06-2.09-.03-.6-.04-1.21,0-1.8.36-.4.74-.8,1.13-1.19.42-.43.84-.87,1.26-1.33.42-.46.82-.95,1.2-1.46.38-.52.73-1.1,1.03-1.73.04-.1.07-.21.07-.33,0-.21-.07-.41-.22-.57-.25-.29-.71-.36-1.05-.15ZM69.72,45.9c-.21.4-.46.8-.74,1.19-.27.38-.58.71-.9.99-.72.61-1.47.49-2.04-.5-.36-.63-.66-1.5-.88-2.6.51-.93.99-1.89,1.43-2.86.46-1.01.86-2.03,1.2-3.05.32-.97.59-1.96.78-2.92h1.52c-.06.36-.12.73-.16,1.1-.06.49-.1.98-.13,1.45-.03.47-.05.91-.06,1.33,0,.42-.01.78-.01,1.09,0,1.25.1,2.41.29,3.46.03.19.07.37.11.54-.11.21-.24.47-.4.77ZM72.46,34.08h0c.05-.06.09-.1.12-.12.01.02.03.06.05.1.05.13.1.31.14.52h-.57c.11-.28.21-.42.27-.49ZM71.78,42.01c-.11.33-.22.65-.34.97,0-.05,0-.1-.01-.16-.04-.45-.05-1.02-.05-1.69,0-1.21.04-2.25.12-3.09.07-.73.16-1.36.26-1.88h1.11c-.01.49-.05,1.03-.13,1.6-.09.69-.21,1.4-.37,2.12-.16.72-.36,1.44-.58,2.14ZM80.93,57.76c-.08.78-.2,1.45-.36,1.99-.15.52-.34.92-.55,1.2-.18.23-.37.34-.59.34-.24,0-.39-.08-.5-.26-.13-.23-.2-.56-.2-.99s.07-.98.2-1.56c.14-.59.33-1.22.58-1.87.25-.65.55-1.31.89-1.97.19-.37.4-.74.62-1.09,0,.12,0,.24.01.36.01.41.02.81.02,1.21,0,.98-.04,1.87-.12,2.65Z"/>
          <path class="cls-2" d="M63.43,34.58h-1.41c-.44,0-.79.35-.79.79s.35.79.79.79h1.21c.04-.44.09-.87.15-1.29.01-.1.03-.19.05-.29Z"/>
          <path class="cls-2" d="M64.93,36.02s0,.09-.01.14h.49c-.18,0-.34-.05-.48-.14Z"/>
          <path class="cls-2" d="M65.41,34.58h-.31s0,.03,0,.05c.1-.03.2-.05.31-.05Z"/>
          <path class="cls-2" d="M46.47,34.95c-.05-.28-.14-.61-.25-.97-.11-.37-.27-.76-.46-1.15-.23-.46-.55-.96-.95-1.47-.41-.52-.94-1.01-1.58-1.45-.65-.44-1.43-.81-2.34-1.09-.91-.28-2-.43-3.23-.43s-2.55.19-3.77.57c-1.22.38-2.39.9-3.49,1.56-1.1.66-2.12,1.45-3.04,2.35-.92.9-1.73,1.9-2.41,2.96-.67,1.07-1.21,2.21-1.59,3.39-.38,1.19-.58,2.41-.58,3.63s.17,2.21.5,3.1c.33.91.81,1.68,1.43,2.3.62.62,1.36,1.09,2.22,1.41,1.78.66,4.1.61,6.3-.05,1.15-.35,2.28-.87,3.36-1.55,1.08-.68,2.13-1.53,3.12-2.54.78-.79,1.52-1.7,2.21-2.69.03.57.06,1.13.11,1.7.07.84.16,1.7.27,2.56-.4.22-.84.49-1.3.81-.54.37-1.09.8-1.63,1.28-.55.49-1.09,1.02-1.61,1.59-.52.58-.99,1.2-1.4,1.84-.41.65-.74,1.34-.98,2.04-.25.71-.37,1.44-.37,2.17,0,.53.09,1.03.27,1.48.18.45.44.85.77,1.17.33.33.72.58,1.16.77.44.18.94.27,1.46.27,1.04,0,1.94-.27,2.66-.81.71-.53,1.29-1.25,1.71-2.14.42-.87.72-1.89.9-3.04.18-1.13.27-2.34.27-3.58,0-.53-.01-1.06-.04-1.57-.02-.45-.06-.89-.09-1.33.41-.2.75-.35,1-.45.31-.12.47-.18.47-.18h0c.17-.06.31-.16.41-.3.1-.14.16-.3.16-.48,0-.24-.09-.45-.26-.61-.16-.15-.36-.23-.6-.23-.08-.01-.17,0-.33.05-.11.03-.28.1-.51.19-.15.06-.34.14-.56.25-.1-.83-.18-1.63-.23-2.37-.06-.87-.09-1.68-.09-2.4,0-.47.01-.92.04-1.33.32-.62.56-1.17.72-1.64.17-.51.25-.93.25-1.27s-.1-.64-.28-.88c-.2-.25-.47-.38-.77-.38-.36,0-.86.19-1.15,1.11-.2.62-.33,1.48-.41,2.62-.66,1.17-1.41,2.29-2.23,3.34-.83,1.07-1.77,2.01-2.78,2.81-1.01.8-2.11,1.44-3.29,1.9-1.17.47-2.45.7-3.79.7-.77,0-1.5-.11-2.16-.32-.65-.21-1.22-.53-1.7-.98-.48-.44-.86-1.03-1.13-1.73-.28-.72-.41-1.59-.41-2.61,0-1.13.18-2.24.54-3.31.36-1.07.86-2.1,1.48-3.04.62-.95,1.37-1.83,2.22-2.62.85-.79,1.77-1.48,2.75-2.05.98-.57,2.01-1.02,3.07-1.33,1.06-.31,2.12-.47,3.16-.47,1.18,0,2.18.15,3,.43.81.29,1.49.65,2.02,1.07.53.42.94.89,1.24,1.39.31.51.54.99.68,1.43.15.44.24.81.27,1.11.05.47.06.54.06.54.03.23.12.42.28.56.33.3.87.29,1.16-.05.15-.17.22-.36.22-.57,0,0,0-.09-.02-.29-.01-.18-.05-.41-.1-.69ZM42.49,48.9c.02.27.03.54.05.8.02.41.03.82.03,1.21,0,2.62-.36,4.63-1.07,5.98-.69,1.3-1.61,1.94-2.82,1.94-.3,0-.57-.05-.82-.15-.24-.1-.45-.23-.63-.41-.17-.17-.31-.38-.41-.62-.1-.25-.15-.54-.15-.85,0-.54.09-1.08.26-1.61.17-.54.42-1.07.72-1.59.31-.52.67-1.02,1.08-1.5.41-.49.85-.94,1.31-1.36.46-.42.94-.81,1.43-1.16.35-.25.69-.48,1.02-.68Z"/>
          <path class="cls-2" d="M58.45,39.97c.44,0,.81-.15,1.12-.46.3-.3.46-.68.46-1.12,0-.22-.04-.42-.12-.61-.08-.19-.19-.36-.34-.5-.14-.14-.31-.26-.5-.34-.38-.16-.85-.16-1.23,0-.19.08-.36.19-.5.34-.14.14-.26.31-.34.5-.08.19-.12.4-.12.61,0,.44.15.81.46,1.12.3.3.68.46,1.12.46ZM58.33,38.26h0s.07-.05.12-.05c.04,0,.08,0,.13.06s.06.1.06.13c0,.04,0,.08-.05.12-.08.08-.19.08-.26,0-.04-.04-.05-.07-.05-.13s.02-.09.06-.14Z"/>
          <path class="cls-2" d="M58.59,38.52s.05-.08.05-.12c0-.04,0-.08-.06-.13s-.1-.06-.13-.06c-.05,0-.08.02-.12.05h0s-.06.08-.06.14.02.09.05.13c.08.08.18.07.26,0Z"/>
        </g>
        <g>
          <path class="cls-1" d="M58,72.46c-.15.64-.31,1.28-.5,1.89-.18.61-.37,1.18-.57,1.7s-.39.98-.58,1.37c-.16.33-.31.58-.44.78.11.36.24.7.38,1.02.16.35.34.65.53.91.19.25.39.44.61.58.42.27.9.28,1.4-.15.3-.26.59-.57.85-.93.27-.37.51-.74.71-1.12h0c.16-.3.29-.57.39-.78-.04-.16-.07-.33-.1-.51-.19-1.05-.29-2.21-.29-3.46,0-.31,0-.67.01-1.09,0-.42.03-.86.06-1.33,0-.07.01-.14.02-.22h-2.23c-.07.45-.15.9-.25,1.34Z"/>
          <path class="cls-1" d="M62.04,73.76c0,.67.02,1.24.05,1.69,0,.05,0,.1.01.16.12-.31.23-.63.34-.97.23-.7.42-1.42.58-2.14.1-.47.19-.93.26-1.38h-1.17c-.05.75-.08,1.63-.08,2.64Z"/>
          <path class="cls-1" d="M55.34,73.76c0,.67.02,1.24.05,1.69,0,.05,0,.1.01.16.12-.31.23-.63.34-.97.23-.7.42-1.42.58-2.14.1-.47.19-.93.26-1.38h-1.17c-.05.75-.08,1.63-.08,2.64Z"/>
          <path class="cls-1" d="M72.64,77.11c-.06-.19-.13-.34-.21-.44-.04-.06-.08-.08-.1-.08,0,0-.02.02-.05.05,0,0-.04.07-.04.33,0,.15.02.32.06.49s.11.35.19.51c.09.17.2.34.33.49,0,.01.02.02.03.03,0-.23-.02-.46-.05-.7-.03-.24-.09-.47-.15-.67Z"/>
          <path class="cls-1" d="M48.71,79.03c-.39-.58-.58-1.24-.58-1.96,0-.09,0-.18,0-.26-.1.08-.22.15-.36.22-.13.07-.27.16-.42.28-.15.12-.29.27-.41.45-.13.18-.23.4-.32.65-.08.25-.12.53-.12.84,0,.27.04.53.12.76.08.23.2.42.34.58.15.16.33.29.53.38.2.09.44.14.69.14.47,0,.86-.11,1.15-.32.23-.16.42-.36.57-.59-.48-.3-.88-.69-1.2-1.18Z"/>
          <path class="cls-1" d="M71.18,79.03c-.39-.58-.58-1.24-.58-1.96,0-.09,0-.18,0-.26-.1.08-.22.15-.36.22-.13.07-.27.16-.42.28-.15.12-.29.27-.41.45-.13.18-.23.4-.32.65-.08.25-.12.53-.12.84,0,.27.04.53.12.76.08.23.2.42.34.58.15.16.33.29.53.38.2.09.44.14.69.14.47,0,.86-.11,1.15-.32.23-.16.42-.36.57-.59-.48-.3-.88-.69-1.2-1.18Z"/>
          <path class="cls-1" d="M50.17,77.11c-.06-.19-.13-.34-.21-.44-.04-.06-.08-.08-.1-.08,0,0-.02.02-.05.05,0,0-.04.07-.04.33,0,.15.02.32.06.49s.11.35.19.51c.09.17.2.34.33.49,0,.01.02.02.03.03,0-.23-.02-.46-.05-.7-.03-.24-.09-.47-.15-.67Z"/>
          <path class="cls-2" d="M90.81,77.37c-.25-.3-.71-.37-1.06-.15-.14.09-.24.21-.32.37-.1.23-.25.54-.46.93-.2.38-.44.75-.72,1.12-.27.36-.57.67-.88.93-.28.23-.56.35-.85.35-.13,0-.23-.03-.3-.08-.08-.06-.14-.13-.18-.24-.05-.13-.09-.28-.11-.46-.02-.19-.03-.4-.03-.61,0-.17,0-.35.02-.55l.08-1.15c.01-.18.02-.34.02-.47,0-.58-.13-1.08-.4-1.48-.29-.44-.74-.67-1.33-.67-.29,0-.6.08-.92.25-.31.16-.62.43-.91.79-.28.34-.54.71-.79,1.09-.25.38-.49.76-.72,1.14-.16.27-.32.54-.46.81.02-.24.04-.48.06-.71.04-.41.07-.79.09-1.15.02-.36.04-.63.04-.8,0-.24-.02-.49-.07-.72-.05-.24-.12-.46-.22-.67-.11-.22-.26-.4-.45-.54-.2-.14-.44-.22-.72-.22-.46,0-.91.28-1.34.82-.39.5-.79,1.24-1.23,2.28l-.02.05c-.13.25-.25.45-.36.62-.15.21-.31.38-.49.5-.18.13-.38.23-.6.29-.22.07-.48.1-.76.1.03-.22.05-.44.05-.65,0-.59-.05-1.11-.16-1.54-.11-.44-.26-.81-.45-1.1-.2-.3-.44-.53-.7-.67-.27-.15-.56-.22-.86-.22-.52,0-.94.21-1.25.62-.06.08-.12.18-.17.27-.03-.08-.08-.16-.14-.23-.14-.15-.33-.22-.57-.22-.19,0-.44.08-.77.25-.31.16-.62.4-.92.72-.2.21-.39.48-.59.82-.15.09-.27.23-.34.41-.09.22-.24.53-.44.9-.2.37-.44.75-.71,1.12-.26.36-.55.67-.85.93-.5.43-.99.42-1.4.15-.21-.14-.42-.34-.61-.58-.2-.26-.38-.56-.53-.91-.14-.31-.27-.65-.38-1.02.14-.19.28-.45.44-.78.19-.39.39-.85.58-1.37s.38-1.09.57-1.7c.18-.61.35-1.25.5-1.89.1-.44.18-.89.25-1.34h-1.67c-.07.46-.16.92-.26,1.38-.16.72-.36,1.44-.58,2.14-.11.33-.22.65-.34.97,0-.05,0-.1-.01-.16-.04-.45-.05-1.02-.05-1.69,0-1,.03-1.88.08-2.64h-1.64c0,.07-.01.15-.02.22-.03.47-.05.91-.06,1.33,0,.42-.01.78-.01,1.09,0,1.25.1,2.41.29,3.46.03.17.07.34.1.51-.09.21-.22.47-.39.78h0c-.2.37-.44.75-.71,1.12-.26.36-.55.67-.85.93-.5.43-.99.42-1.4.15-.21-.14-.42-.34-.61-.58-.2-.26-.38-.56-.53-.91-.14-.31-.27-.65-.38-1.02.14-.19.28-.45.44-.78.19-.39.39-.85.58-1.37s.38-1.09.57-1.7c.18-.61.35-1.25.5-1.89.1-.44.18-.89.25-1.34h-1.67c-.07.46-.16.92-.26,1.38-.16.72-.36,1.44-.58,2.14-.11.33-.22.65-.34.97,0-.05,0-.1-.01-.16-.04-.45-.05-1.02-.05-1.69,0-1,.03-1.88.08-2.64h-1.64c0,.07-.01.15-.02.22-.03.47-.05.91-.06,1.33,0,.42-.01.78-.01,1.09,0,1.25.1,2.41.29,3.46.03.19.07.37.11.55-.11.2-.2.36-.29.49-.15.21-.31.38-.49.5-.18.13-.38.23-.6.29-.22.07-.48.1-.76.1.03-.22.05-.44.05-.65,0-.59-.05-1.11-.16-1.54-.11-.44-.26-.81-.45-1.1-.2-.3-.44-.53-.7-.67-.27-.15-.56-.22-.86-.22-.52,0-.94.21-1.25.62-.06.08-.12.18-.17.27-.03-.08-.08-.16-.14-.23-.14-.15-.33-.22-.57-.22-.19,0-.44.08-.77.25-.31.16-.62.4-.92.72-.3.31-.57.71-.8,1.18-.23.48-.35,1.05-.35,1.69,0,.5.08.97.24,1.39.16.43.4.79.7,1.1.3.3.65.54,1.05.71.74.31,1.69.33,2.45.09.34-.11.66-.27.94-.46.28-.19.53-.42.74-.68.16-.2.31-.41.44-.64.14.02.29.03.45.03h0c.47,0,.9-.05,1.29-.17.38-.12.73-.29,1.04-.49.19-.13.36-.27.52-.42.04.1.08.19.12.28.38.79.85,1.42,1.39,1.87.57.46,1.21.7,1.93.7.41,0,.81-.11,1.19-.32.35-.2.68-.45.98-.75.3-.29.57-.62.81-.98.13-.2.26-.4.38-.59,0,.02.02.04.03.07.38.79.85,1.42,1.39,1.87.57.46,1.21.7,1.93.7.41,0,.81-.11,1.19-.32.35-.2.68-.45.98-.75.22-.22.43-.45.61-.7.16.37.37.69.64.96.3.3.65.54,1.05.71.4.17.84.25,1.32.25.4,0,.78-.06,1.13-.17.34-.11.66-.27.94-.46.28-.19.53-.42.74-.68.16-.2.31-.41.44-.64.14.02.29.03.45.03h0c.47,0,.9-.05,1.29-.17.38-.12.73-.29,1.04-.49.31-.21.58-.45.81-.73.22-.27.42-.55.59-.86.04-.08.08-.17.12-.27v-.03c.34-.79.61-1.35.81-1.65.01-.02.02-.03.03-.05,0,.14.01.28.01.42,0,.17,0,.39-.03.64-.02.26-.04.54-.07.84l-.08.92c-.03.31-.06.59-.08.86-.03.27-.05.5-.07.69-.02.21-.03.34-.03.41,0,.38.11.69.33.91.38.38,1.05.48,1.61.07.23-.17.44-.46.66-.91.09-.2.22-.46.38-.76.16-.31.34-.64.53-.98.19-.34.39-.68.61-1.03.22-.34.43-.66.63-.93.2-.26.39-.48.56-.64.18-.16.28-.18.27-.19,0,0,.03.02.07.07,0,0,.07.08.07.41,0,.17,0,.35-.02.54-.01.19-.03.38-.05.57-.02.2-.04.39-.06.57-.01.19-.02.35-.02.5,0,.34.03.69.08,1.02.06.36.17.69.34.98.17.31.42.56.72.75.31.19.71.29,1.18.29.42,0,.83-.11,1.22-.32.36-.2.7-.45,1.02-.75.31-.29.59-.62.84-.97.25-.35.47-.68.65-.99.19-.31.34-.59.45-.83.11-.23.19-.39.23-.47.04-.1.07-.21.07-.31,0-.2-.07-.39-.22-.56ZM49.34,80.81c-.3.21-.69.32-1.15.32-.26,0-.49-.05-.69-.14-.2-.09-.38-.22-.53-.38-.15-.16-.26-.36-.34-.58-.08-.23-.12-.49-.12-.76,0-.31.04-.6.12-.84.08-.25.19-.47.32-.65.13-.18.27-.33.41-.45.15-.12.29-.22.42-.28.14-.07.26-.14.36-.22,0,.08,0,.17,0,.26,0,.72.2,1.38.58,1.96.32.48.73.88,1.2,1.18-.15.23-.34.43-.57.59ZM50.34,78.46c-.13-.15-.24-.32-.33-.49-.09-.17-.15-.34-.19-.51s-.06-.34-.06-.49c0-.25.04-.33.04-.33.03-.02.05-.04.05-.05.02,0,.06.03.1.08.08.11.15.26.21.44.06.2.12.43.15.67.03.24.05.47.05.7,0-.01-.02-.02-.03-.03ZM71.81,80.81c-.3.21-.69.32-1.15.32-.26,0-.49-.05-.69-.14-.2-.09-.38-.22-.53-.38-.15-.16-.26-.36-.34-.58-.08-.23-.12-.49-.12-.76,0-.31.04-.6.12-.84.08-.25.19-.47.32-.65.13-.18.27-.33.41-.45.15-.12.29-.22.42-.28.14-.07.26-.14.36-.22,0,.08,0,.17,0,.26,0,.72.2,1.38.58,1.96.32.48.73.88,1.2,1.18-.15.23-.34.43-.57.59ZM72.82,78.46c-.13-.15-.24-.32-.33-.49-.09-.17-.15-.34-.19-.51s-.06-.34-.06-.49c0-.25.04-.33.04-.33.03-.02.05-.04.05-.05.02,0,.06.03.1.08.08.11.15.26.21.44.06.2.12.43.15.67.03.24.05.47.05.7,0-.01-.02-.02-.03-.03Z"/>
          <path class="cls-2" d="M43.1,75.83c-.14.07-.25.17-.32.3-.39.62-.92,1.25-1.58,1.86-.66.62-1.43,1.18-2.29,1.68-.86.5-1.81.9-2.82,1.21-1.76.53-3.71.57-5.64.24-.83-.14-1.63-.36-2.39-.66-.76-.29-1.47-.67-2.13-1.12-.65-.45-1.22-.99-1.71-1.6-.48-.61-.86-1.32-1.14-2.11-.27-.79-.41-1.68-.41-2.66,0-1.08.17-2.09.51-2.99.34-.91.8-1.74,1.36-2.48.57-.74,1.24-1.39,1.99-1.94.76-.56,1.57-1.03,2.41-1.4.84-.37,1.7-.66,2.56-.84,2.01-.43,3.81-.34,5.4.06.91.23,1.71.55,2.38.95.66.4,1.19.89,1.58,1.46.37.55.56,1.17.56,1.83,0,.61-.15,1.2-.45,1.77-.31.57-.74,1.08-1.27,1.52-.54.44-1.18.8-1.91,1.07-1.12.41-2.41.53-3.68.26-.43-.09-.83-.24-1.18-.45-.34-.2-.62-.47-.84-.8-.2-.31-.31-.71-.31-1.18,0-.3.05-.57.14-.82.1-.26.21-.48.33-.67.12-.19.23-.33.33-.43.08-.08.12-.14.11-.13l.07-.05c.18-.17.28-.39.28-.64,0-.23-.09-.44-.25-.59-.21-.19-.49-.26-.82-.19-.12.03-.22.09-.32.19l-.24.24c-.17.17-.35.4-.53.69-.18.29-.35.63-.5,1.03-.16.41-.24.87-.24,1.36,0,.59.12,1.15.35,1.67.23.52.58.97,1.03,1.35.45.38,1.01.68,1.67.89.65.21,1.41.32,2.25.32,1.04,0,2.04-.17,2.96-.51.92-.34,1.74-.8,2.43-1.38.7-.58,1.25-1.27,1.65-2.05.4-.78.61-1.62.61-2.49,0-.94-.25-1.81-.74-2.58-.48-.76-1.15-1.42-1.97-1.95-.82-.53-1.78-.95-2.87-1.24-2.06-.55-4.52-.59-6.76-.05-1.06.26-2.09.63-3.05,1.11-.96.48-1.86,1.07-2.67,1.76-.81.69-1.52,1.47-2.11,2.32-.59.86-1.06,1.8-1.39,2.8-.33,1.01-.5,2.08-.5,3.21s.16,2.21.49,3.15c.32.94.77,1.8,1.34,2.54.57.74,1.24,1.39,2.01,1.93.76.54,1.59.99,2.47,1.34.88.35,1.81.62,2.76.79.95.17,1.92.26,2.88.26,1.23,0,2.44-.18,3.59-.52,1.15-.35,2.22-.81,3.2-1.37s1.85-1.21,2.61-1.92c.76-.71,1.38-1.44,1.83-2.17.05-.08.08-.16.09-.24.01-.07.02-.13.02-.2,0-.2-.07-.39-.21-.55-.24-.27-.66-.34-1-.17Z"/>
          <path class="cls-2" d="M70.22,71.9h-21.37c-.93,0-1.68-.74-1.68-1.64,0-2.42,1.86-4.39,4.22-4.58,1.04-1.69,2.84-2.74,4.83-2.83,1.38-1.6,3.35-2.51,5.47-2.51,3.58,0,6.58,2.57,7.14,6.1,0,.04.06.09.12.11,1.46.52,2.55,1.73,2.91,3.24.12.52,0,1.05-.32,1.46-.32.41-.8.64-1.32.64ZM51.74,67.2c-1.68,0-3.04,1.36-3.04,3.04,0,.06.07.12.15.12h21.37s.09-.02.11-.06c.02-.02.05-.08.03-.15-.24-1-.96-1.8-1.93-2.15-.6-.21-1.03-.72-1.12-1.32-.44-2.78-2.81-4.8-5.63-4.8-1.77,0-3.41.81-4.5,2.21l-.24.3h-.48s0-.01,0-.01c-1.67,0-3.18.92-3.95,2.41l-.22.43-.55-.02h0Z"/>
          <g>
            <path class="cls-2" d="M58.32,65.87c-.17-.34-.4-.59-.66-.74-.26-.15-.56-.23-.88-.23-.43,0-.81.17-1.13.51-.3.31-.56.72-.79,1.23-.22.5-.41,1.08-.57,1.74-.06.24-.11.49-.16.74-.05.26-.1.53-.15.81.71-.09,1.15-.33,1.59-.56.01-.06.02-.12.03-.17.01-.07.02-.14.04-.2.11-.56.24-1.04.38-1.45.13-.39.28-.71.43-.93.1-.16.21-.25.29-.25.18,0,.31.25.39.47.15.4.22,1.08.22,2.03,0,0,0,0,0,0,0,.14-.02.28-.02.42l1.49.08c0-.12,0-.24,0-.36,0-.05,0-.1,0-.15,0-.69-.04-1.29-.13-1.77-.09-.49-.21-.9-.38-1.22Z"/>
            <path class="cls-2" d="M65.46,67.08c-.09-.49-.21-.9-.38-1.22-.17-.34-.4-.59-.66-.74-.26-.15-.56-.23-.88-.23-.43,0-.81.17-1.13.51-.3.31-.56.72-.79,1.23-.22.5-.41,1.08-.57,1.74-.08.35-.16.72-.23,1.09-.02.12-.04.24-.06.36.32.09.69.15,1.18.15.1,0,.2,0,.29,0,.02-.14.05-.28.07-.42.03-.18.06-.37.1-.55.11-.56.24-1.04.38-1.45.13-.39.28-.71.43-.93.1-.16.21-.25.29-.25.18,0,.31.25.39.47.15.4.22,1.08.22,2.03,0,.18-.02.37-.03.55,0,.07,0,.14-.01.22l1.48.08c.02-.27.03-.55.03-.81,0-.02,0-.03,0-.05,0-.69-.04-1.29-.13-1.77Z"/>
          </g>
        </g>
      </g>
      <g>
        <path class="cls-2" d="M47.65,109.65l-1.28-.13.7-6.96,1.28.13-.7,6.96ZM47.95,105.66l3.8.38-.11,1.1-3.8-.38.11-1.1ZM51.95,103.05l1.29.13-.7,6.96-1.29-.13.7-6.96Z"/>
        <path class="cls-2" d="M41.36,101.04c.52.15.97.38,1.37.69.39.3.71.66.94,1.07.23.41.38.85.43,1.32s0,.95-.14,1.45c-.15.5-.37.93-.68,1.3-.3.37-.66.66-1.08.87-.42.21-.87.34-1.37.38s-1-.01-1.52-.17c-.52-.15-.97-.38-1.36-.68-.39-.3-.7-.65-.93-1.06-.23-.41-.37-.85-.43-1.32-.05-.47,0-.96.14-1.46.15-.5.37-.93.68-1.3s.66-.66,1.08-.88c.42-.22.87-.34,1.36-.38.49-.04,1,.02,1.51.17ZM41.04,102.13c-.34-.1-.67-.14-.99-.1-.32.03-.61.12-.89.27s-.51.35-.72.6c-.2.25-.36.55-.46.9-.1.34-.14.68-.11,1,.03.32.12.62.27.89.15.27.35.51.6.71.25.2.54.35.88.45s.67.14,1,.11c.33-.03.62-.12.9-.27s.51-.35.72-.6c.21-.25.36-.54.46-.89.1-.34.13-.67.1-.99s-.13-.62-.28-.9c-.15-.28-.35-.52-.61-.72s-.55-.35-.89-.45Z"/>
        <path class="cls-2" d="M35.75,99.26l-3.31,6.17-.94-.5-.28-5.95.49.26-5.07,3.08-.94-.5,3.29-6.18,1.1.59-2.39,4.47-.22-.12,4.26-2.57.52.28.27,5-.26-.14,2.4-4.47,1.09.58Z"/>
        <path class="cls-2" d="M25.15,94.11l-3.08-2.47.69-.86,4.09,3.29-4.38,5.46-3.98-3.2.69-.86,2.97,2.39,3-3.74ZM23.36,96.5l-2.71-2.18.67-.83,2.71,2.18-.67.83Z"/>
        <path class="cls-2" d="M21.09,89.29l-5.31,4.56-.7-.81,1.88-5.65.36.42-5.84,1.05-.7-.81,5.29-4.58.81.95-3.84,3.31-.16-.19,4.9-.86.38.45-1.55,4.76-.2-.23,3.84-3.31.81.94Z"/>
        <path class="cls-2" d="M15.15,82.13l-7.64.73-.63-1.11,4.52-6.21.68,1.19-4.15,5.47-.26-.45,6.82-.77.66,1.16ZM13.02,81.67l-1.06.19-1.87-3.28.71-.81,2.22,3.89Z"/>
        <path class="cls-2" d="M10.74,73.98l-6.61,2.31-1.02-2.9c-.25-.71-.33-1.38-.25-2.02.08-.64.32-1.2.71-1.67.39-.48.92-.83,1.58-1.06s1.29-.28,1.9-.16,1.14.42,1.6.86c.46.45.82,1.02,1.07,1.73l1.02,2.9ZM9.27,73.12l-.56-1.59c-.17-.5-.42-.89-.73-1.19-.32-.29-.68-.49-1.09-.57-.41-.08-.84-.05-1.3.11-.47.16-.83.41-1.09.73s-.42.7-.49,1.12,0,.89.17,1.39l.56,1.6,4.53-1.59Z"/>
        <path class="cls-2" d="M6.74,64.27l-.65-3.9,1.09-.18.86,5.18-6.91,1.14-.84-5.04,1.09-.18.62,3.76,4.74-.79ZM3.8,64.85l-.57-3.43,1.06-.17.57,3.43-1.06.17Z"/>
        <path class="cls-2" d="M7,54.19l-7-.22.04-1.3,7,.22-.04,1.3Z"/>
        <path class="cls-2" d="M7.77,46.98c-.08.53-.25,1.01-.5,1.43-.25.42-.56.77-.93,1.05-.38.28-.79.48-1.25.6s-.95.13-1.47.05c-.52-.08-.98-.25-1.38-.5-.4-.25-.73-.57-1-.96-.27-.39-.46-.82-.56-1.29-.1-.48-.11-.98-.03-1.51.09-.57.27-1.07.54-1.5.27-.44.62-.79,1.05-1.05l.65.95c-.31.21-.56.46-.74.75-.18.29-.3.61-.36.97-.06.36-.05.7.02,1.02.07.32.2.61.38.86.18.25.41.47.69.64s.59.29.95.34c.36.06.69.05,1.01-.03.32-.08.6-.21.85-.4.25-.19.46-.42.63-.7.17-.28.28-.6.33-.96.06-.36.04-.7-.04-1.03s-.25-.65-.48-.95l.91-.71c.33.38.56.82.68,1.32.12.5.14,1.04.05,1.61Z"/>
        <path class="cls-2" d="M8.03,40.66l1.24-3.75,1.04.35-1.65,4.98-6.64-2.2,1.61-4.85,1.04.35-1.2,3.62,4.56,1.51ZM5.16,39.82l1.1-3.3,1.02.34-1.1,3.3-1.02-.34Z"/>
        <path class="cls-2" d="M14.67,29.2c-.29.46-.63.83-1.02,1.12-.39.29-.81.49-1.27.6s-.92.13-1.38.06-.92-.25-1.37-.53c-.45-.28-.8-.61-1.07-1-.27-.39-.45-.81-.55-1.28-.1-.46-.1-.93,0-1.41.09-.48.28-.95.57-1.4.3-.49.67-.88,1.08-1.17.42-.3.88-.48,1.38-.55l.22,1.13c-.37.08-.7.21-.98.4-.28.19-.52.44-.71.75-.19.31-.32.63-.38.95s-.06.63.01.94c.07.31.19.59.38.86.19.27.43.5.74.69.31.19.62.31.94.36.32.05.63.04.94-.03.31-.07.59-.21.85-.4.26-.19.49-.45.69-.76.19-.3.31-.63.36-.96s.03-.69-.07-1.06l1.12-.29c.15.48.19.98.11,1.48-.08.51-.28,1.01-.58,1.5Z"/>
        <path class="cls-2" d="M17.33,25.19l-5.23-4.65,1.91-2.15c.41-.46.84-.79,1.28-1,.44-.2.88-.27,1.32-.2.44.07.85.28,1.24.62.38.34.63.72.75,1.15s.1.87-.05,1.33-.42.93-.84,1.39l-1.43,1.61-.05-.81,1.96,1.74-.86.97ZM16.34,22.57h-.85s1.39-1.55,1.39-1.55c.38-.43.58-.83.58-1.21,0-.38-.15-.72-.48-1.01-.33-.29-.68-.41-1.05-.36s-.75.3-1.13.72l-1.39,1.56-.1-.85,3.03,2.7ZM20.37,21.77l-3.07-.37.92-1.04,3.08.36-.93,1.05Z"/>
        <path class="cls-2" d="M23.21,17.63l3.07-2.49.69.85-4.08,3.31-4.41-5.43,3.97-3.22.69.85-2.96,2.4,3.03,3.73ZM21.25,15.37l2.7-2.19.67.83-2.7,2.19-.67-.83Z"/>
        <path class="cls-2" d="M27.98,15.2l-.73-7.64,1.11-.63,6.21,4.52-1.19.68-5.47-4.14.45-.26.77,6.82-1.16.66ZM28.43,13.08l-.19-1.06,3.28-1.87.81.71-3.89,2.22Z"/>
        <path class="cls-2" d="M36.05,10.78l-2.23-6.63,1.01-.34,4.53,3.87-.53.18,1.22-5.8,1.01-.34,2.25,6.63-1.19.4-1.62-4.8.24-.08-1.04,4.87-.56.19-3.83-3.23.28-.1,1.62,4.81-1.18.4Z"/>
        <path class="cls-2" d="M52.85,7.2c-.55.03-1.05-.03-1.52-.19-.47-.15-.88-.38-1.23-.69s-.64-.67-.85-1.1c-.21-.42-.33-.9-.35-1.42-.03-.53.04-1.01.21-1.45.16-.44.41-.84.73-1.18.33-.34.71-.62,1.16-.82.45-.2.95-.31,1.51-.34.59-.03,1.12.04,1.61.21.49.17.9.43,1.25.79l-.78.84c-.29-.26-.59-.44-.92-.56-.32-.11-.67-.16-1.05-.14-.37.02-.71.1-1.01.23-.3.14-.56.32-.78.55s-.38.5-.49.81c-.11.31-.16.64-.14,1,.02.35.1.68.24.97.14.3.33.55.57.76s.51.36.83.47c.31.1.66.15,1.03.13.35-.02.68-.09,1-.22.32-.13.62-.33.9-.6l.78.93c-.34.31-.75.55-1.22.73s-.96.27-1.46.3ZM54.3,6.06l-.14-2.61,1.22-.06.14,2.78-1.23-.11Z"/>
        <path class="cls-2" d="M61.03,7.52c-.95-.12-1.65-.48-2.13-1.08s-.64-1.41-.52-2.43l.49-3.91,1.29.16-.48,3.87c-.09.71,0,1.25.27,1.62.27.36.68.58,1.24.65.56.07,1.02-.04,1.36-.32.34-.29.56-.79.65-1.5l.48-3.87,1.27.16-.49,3.91c-.13,1.02-.49,1.76-1.1,2.23-.61.47-1.39.64-2.34.52Z"/>
        <path class="cls-2" d="M66.68,8.47l1.79-6.77,1.26.33-1.79,6.77-1.26-.33Z"/>
        <path class="cls-2" d="M70.58,9.58l2.55-6.52,1.21.47-2.15,5.5,3.41,1.33-.4,1.02-4.62-1.81Z"/>
        <path class="cls-2" d="M78.08,12.93l2.91-5.13-2.02-1.14.54-.96,5.17,2.93-.54.96-2.02-1.14-2.91,5.13-1.13-.64Z"/>
        <path class="cls-2" d="M84.06,16.81l1.71-2.18-.25.81.69-5.83,1.09.85-.55,4.71-.61-.48,4.42-1.68,1.01.79-5.49,2.08.71-.44-1.7,2.18-1.02-.79Z"/>
        <path class="cls-2" d="M92.91,25.72c-.34-.42-.58-.87-.72-1.33s-.19-.93-.15-1.4.18-.91.4-1.32c.22-.42.54-.79.95-1.11.41-.33.85-.55,1.3-.68s.92-.15,1.38-.09c.47.06.91.22,1.33.46s.8.58,1.13,1c.36.45.6.92.75,1.41.14.49.16.99.06,1.48l-1.14-.17c.05-.37.03-.73-.05-1.06s-.24-.64-.47-.92c-.23-.29-.48-.51-.77-.67-.28-.16-.58-.26-.89-.3-.31-.04-.62-.01-.94.07-.31.09-.61.24-.89.47-.28.22-.5.48-.66.76-.16.29-.25.58-.28.9-.03.31,0,.62.09.94.09.31.26.61.48.9.22.28.49.5.79.66.3.16.64.25,1.02.28l-.1,1.15c-.51-.02-.98-.15-1.44-.39s-.86-.6-1.22-1.05Z"/>
        <path class="cls-2" d="M97.29,32.47c-.26-.48-.41-.96-.47-1.45-.06-.49-.03-.97.1-1.42.13-.45.34-.87.64-1.24.3-.37.67-.68,1.12-.92.46-.25.92-.39,1.4-.43.47-.04.93.01,1.38.16.45.15.86.38,1.23.7s.69.72.95,1.2c.26.48.41.96.48,1.45.06.49.03.96-.1,1.41-.13.45-.34.86-.64,1.23-.3.37-.68.68-1.14.93-.46.25-.92.39-1.4.43s-.93,0-1.38-.15c-.45-.14-.86-.38-1.23-.7-.37-.32-.69-.72-.94-1.2ZM98.3,31.93c.17.31.37.57.62.77.25.21.52.35.82.44s.61.12.93.08.64-.13.96-.3c.32-.17.58-.38.79-.63.21-.25.36-.52.44-.82s.12-.61.08-.93c-.03-.32-.14-.63-.3-.94-.17-.31-.38-.57-.62-.78-.25-.21-.52-.36-.82-.45-.3-.09-.61-.12-.93-.09-.32.03-.64.13-.96.3-.31.17-.57.38-.77.63-.2.25-.35.53-.45.83s-.12.61-.08.94c.04.32.14.64.31.95Z"/>
        <path class="cls-2" d="M100.35,39.13l5.59-1.88-.74-2.2,1.04-.35,1.9,5.63-1.04.35-.74-2.2-5.59,1.88-.42-1.23Z"/>
        <path class="cls-2" d="M102.15,45.72l5.8-1.07-.42-2.28,1.08-.2,1.07,5.84-1.08.2-.42-2.28-5.8,1.06-.23-1.28Z"/>
        <path class="cls-2" d="M102.95,54.34c0-.54.07-1.04.25-1.51.17-.47.42-.87.74-1.22.32-.35.7-.62,1.13-.81.43-.19.91-.29,1.42-.3.52,0,1,.08,1.44.26.44.18.82.44,1.15.77.33.33.59.73.77,1.19s.29.96.29,1.51c0,.54-.07,1.04-.24,1.5-.17.46-.41.87-.73,1.21s-.7.61-1.13.8c-.44.19-.92.29-1.44.3-.52,0-1-.08-1.44-.26-.44-.18-.83-.44-1.16-.77-.33-.33-.59-.73-.77-1.18s-.28-.96-.29-1.5ZM104.09,54.32c0,.35.07.68.2.97.12.29.3.55.52.77.22.22.49.38.79.5s.63.17.99.17c.36,0,.69-.07.99-.2.3-.12.56-.3.77-.53s.38-.49.5-.79.17-.62.16-.98c0-.35-.07-.68-.2-.98-.12-.3-.3-.56-.53-.78-.23-.22-.49-.39-.79-.51-.3-.12-.63-.18-.99-.17-.35,0-.68.08-.98.21-.3.13-.56.31-.78.53s-.39.49-.5.79c-.12.3-.17.63-.16.99Z"/>
        <path class="cls-2" d="M102.88,60.22l6.9,1.19-.18,1.05-6.07,3.41.09-.52,5.32.92-.22,1.26-6.9-1.19.18-1.05,6.06-3.4-.09.52-5.32-.92.22-1.27Z"/>
        <path class="cls-2" d="M100.37,74.05l-1.61,3.61-1-.45,2.14-4.8,6.39,2.85-2.08,4.67-1-.45,1.55-3.48-4.38-1.95ZM103.14,75.18l-1.42,3.18-.98-.44,1.42-3.18.98.44Z"/>
        <path class="cls-2" d="M95.38,80.95c.3-.46.64-.86,1.04-1.19s.79-.56,1.16-.68l.61.92c-.34.12-.68.31-1.03.58-.35.27-.64.58-.87.95-.2.31-.33.58-.38.81-.06.23-.05.43,0,.6.06.16.16.29.3.39.18.12.37.14.56.09.19-.06.39-.17.58-.33.2-.16.4-.35.61-.57.21-.22.44-.42.68-.62.24-.2.49-.36.74-.49s.52-.19.81-.19c.28,0,.58.11.9.31.32.21.56.48.71.82.16.34.2.74.14,1.19-.07.45-.27.95-.62,1.49-.23.35-.5.67-.81.96s-.64.51-.97.66l-.63-.89c.33-.16.62-.36.87-.59.26-.23.47-.48.63-.73.19-.3.31-.56.36-.8s.04-.44-.02-.6c-.06-.17-.17-.29-.32-.39-.18-.12-.36-.15-.55-.09-.19.06-.38.17-.58.33-.19.17-.4.36-.62.57-.22.22-.44.42-.68.62-.23.2-.48.36-.73.49s-.52.19-.8.19-.57-.1-.88-.3c-.31-.2-.55-.47-.71-.82-.16-.34-.2-.74-.13-1.2s.27-.95.62-1.49Z"/>
        <path class="cls-2" d="M91.69,86.12l4.45,3.88,1.52-1.75.83.72-3.9,4.48-.83-.72,1.52-1.75-4.45-3.88.85-.98Z"/>
        <path class="cls-2" d="M87.66,90.22c.17-.16.37-.24.59-.23.22,0,.42.1.59.28.17.18.24.38.23.6s-.11.41-.28.57c-.16.15-.35.22-.57.22s-.41-.09-.58-.27-.25-.38-.24-.61c.01-.22.1-.41.26-.56Z"/>
        <path class="cls-2" d="M82.99,94.22l.47.73-.93,3.73c-.07.31-.11.56-.12.76,0,.2.01.37.06.52.04.14.1.27.17.37.17.27.4.42.68.45.28.03.61-.07.97-.31.28-.18.51-.39.67-.64s.27-.53.31-.84l1.14.09c-.03.46-.19.89-.47,1.32-.28.42-.66.79-1.15,1.09-.43.27-.84.44-1.24.5-.4.06-.77.02-1.11-.12s-.61-.38-.83-.73c-.13-.2-.22-.41-.29-.63-.07-.22-.1-.48-.1-.78,0-.3.06-.67.17-1.1l.81-3.2.49.27-3.46,2.21-.59-.93,4.35-2.78Z"/>
        <path class="cls-2" d="M74.54,98.87c.51-.23,1.02-.3,1.54-.23.52.08,1,.31,1.45.69s.84.93,1.15,1.63.46,1.35.45,1.94-.17,1.11-.45,1.54c-.29.43-.69.77-1.2,1-.5.23-1.02.3-1.53.22-.52-.08-1-.31-1.45-.69s-.84-.93-1.15-1.63c-.31-.7-.46-1.35-.45-1.94s.17-1.11.45-1.54c.29-.44.68-.77,1.19-.99ZM75,99.9c-.29.13-.51.33-.66.58-.15.26-.21.58-.18.97.02.39.15.84.38,1.35.23.51.48.91.75,1.19.27.28.56.45.85.51.29.06.58.03.88-.1.29-.13.51-.33.66-.59.15-.26.21-.59.19-.98-.02-.39-.15-.84-.38-1.35s-.48-.91-.76-1.18-.56-.45-.86-.51c-.29-.06-.59-.03-.88.1Z"/>
        <path class="cls-2" d="M70.41,100.67l.23.84-1.98,3.29c-.16.27-.27.5-.34.7-.06.19-.1.36-.1.51s.02.28.05.41c.09.31.26.52.52.63s.6.11,1.02,0c.32-.09.6-.23.83-.42s.42-.43.54-.71l1.06.42c-.16.43-.44.8-.83,1.12-.39.32-.86.56-1.42.71-.49.14-.93.17-1.34.12-.4-.06-.75-.2-1.02-.44-.28-.23-.47-.55-.58-.94-.06-.23-.1-.45-.1-.68,0-.23.04-.49.14-.78.09-.29.25-.62.48-1l1.71-2.82.39.4-3.95,1.1-.3-1.06,4.97-1.38Z"/>
        <path class="cls-2" d="M64.18,103.96l.11.88-2.87,4.9-1.38.17,2.81-4.89.68.12-5.5.68-.13-1.08,6.28-.77ZM60.16,102.85l.2,1.59.1,1.09.17,1.4-1.22.15-.5-4.07,1.25-.15Z"/>
      </g>
    </g>
  </g>
</svg>