<?xml version="1.0" encoding="UTF-8"?>
<svg id="_レイヤー_2" data-name="レイヤー 2" xmlns="http://www.w3.org/2000/svg" viewBox="0 0 265.9 80.89">
  <defs>
    <style>
      .cls-1 {
        fill: none;
      }

      .cls-1, .cls-2, .cls-3, .cls-4 {
        stroke-width: 0px;
      }

      .cls-3 {
        fill: #191919;
      }

      .cls-4 {
        fill: #fff;
      }
    </style>
  </defs>
  <g id="_レイヤー_1-2" data-name="レイヤー 1">
    <g>
      <path class="cls-4" d="M88.07,40.5c-.31-.03-.63-.05-.99-.05l.99.05Z"/>
      <path class="cls-4" d="M127.76,42.55c.31.03.63.05.99.05l-.99-.05Z"/>
      <g>
        <path class="cls-2" d="M131.77,65.13v9.3h-1.38v-4.19h-4.85v4.19h-1.39v-9.3h1.39v4.11h4.85v-4.11h1.38Z"/>
        <path class="cls-2" d="M141.47,74.43h-1.06c-.12,0-.22-.03-.3-.09-.08-.06-.13-.14-.17-.23l-.82-2.16h-4.1l-.82,2.16c-.03.08-.09.16-.17.22-.08.07-.18.1-.3.1h-1.06l3.7-9.3h1.39l3.7,9.3ZM138.75,70.96l-1.38-3.61c-.1-.25-.2-.56-.3-.93-.05.19-.1.36-.15.52-.05.16-.1.3-.15.43l-1.37,3.59h3.34Z"/>
        <path class="cls-2" d="M149.99,65.13v9.3h-.7c-.11,0-.2-.02-.27-.06-.07-.04-.14-.1-.22-.19l-5.25-6.79c0,.12.02.23.02.34,0,.11,0,.22,0,.32v6.38h-1.21v-9.3h.71c.12,0,.21.01.27.04.06.03.13.09.2.19l5.26,6.8c-.01-.13-.02-.25-.03-.37,0-.12,0-.23,0-.33v-6.33h1.2Z"/>
        <path class="cls-2" d="M160.14,69.78c0,.69-.11,1.33-.33,1.9-.22.57-.54,1.06-.94,1.47-.41.41-.89.73-1.46.95-.56.22-1.19.34-1.88.34h-3.5v-9.3h3.5c.69,0,1.32.11,1.88.34.57.22,1.05.54,1.46.95.41.41.72.9.94,1.47.22.57.33,1.2.33,1.89ZM158.73,69.78c0-.55-.08-1.05-.23-1.49-.15-.44-.37-.81-.64-1.11s-.62-.54-1.01-.7c-.4-.16-.84-.24-1.32-.24h-2.11v7.07h2.11c.49,0,.93-.08,1.32-.24.39-.16.73-.39,1.01-.7.28-.3.49-.67.64-1.11.15-.44.23-.93.23-1.49Z"/>
        <path class="cls-2" d="M171.39,65.13v9.3h-1.2v-6.62c0-.1,0-.21,0-.32,0-.11.01-.23.02-.34l-3.1,5.68c-.11.21-.27.32-.5.32h-.19c-.22,0-.39-.11-.49-.32l-3.15-5.7c.03.24.04.47.04.68v6.62h-1.21v-9.3h1.02c.12,0,.21.01.28.04.07.02.13.09.19.2l3.11,5.57c.06.11.12.23.17.36.05.13.1.25.15.38.09-.26.2-.5.32-.74l3.05-5.56c.06-.11.12-.17.18-.2.07-.02.16-.04.28-.04h1.02Z"/>
        <path class="cls-2" d="M181.1,74.43h-1.06c-.12,0-.22-.03-.3-.09-.08-.06-.13-.14-.17-.23l-.82-2.16h-4.1l-.82,2.16c-.03.08-.09.16-.17.22-.08.07-.18.1-.3.1h-1.06l3.7-9.3h1.39l3.7,9.3ZM178.37,70.96l-1.38-3.61c-.1-.25-.2-.56-.3-.93-.05.19-.1.36-.15.52-.05.16-.1.3-.15.43l-1.37,3.59h3.34Z"/>
        <path class="cls-2" d="M190.11,69.78c0,.69-.11,1.33-.33,1.9-.22.57-.54,1.06-.94,1.47-.41.41-.89.73-1.46.95-.56.22-1.19.34-1.88.34h-3.5v-9.3h3.5c.69,0,1.32.11,1.88.34.57.22,1.05.54,1.46.95.41.41.72.9.94,1.47.22.57.33,1.2.33,1.89ZM188.7,69.78c0-.55-.08-1.05-.23-1.49-.15-.44-.37-.81-.64-1.11s-.62-.54-1.01-.7c-.4-.16-.84-.24-1.32-.24h-2.11v7.07h2.11c.49,0,.93-.08,1.32-.24.39-.16.73-.39,1.01-.7.28-.3.49-.67.64-1.11.15-.44.23-.93.23-1.49Z"/>
        <path class="cls-2" d="M197.36,73.31v1.12h-5.77v-9.3h5.76v1.12h-4.38v2.95h3.52v1.08h-3.52v3.03h4.38Z"/>
        <path class="cls-2" d="M203.2,74.43h-1.39v-9.3h1.39v9.3Z"/>
        <path class="cls-2" d="M211.72,72.43c.08,0,.14.03.2.09l.54.6c-.38.45-.84.8-1.39,1.04-.55.25-1.2.37-1.97.37-.67,0-1.28-.12-1.83-.35-.55-.23-1.01-.56-1.4-.98-.39-.42-.68-.92-.9-1.5s-.32-1.22-.32-1.92.11-1.34.33-1.92.53-1.08.94-1.5c.4-.42.88-.74,1.44-.98.56-.23,1.18-.35,1.85-.35s1.25.11,1.76.32c.51.22.96.5,1.34.86l-.45.64s-.07.09-.11.12c-.05.03-.11.05-.18.05-.08,0-.18-.04-.29-.12-.11-.08-.25-.17-.43-.28-.18-.1-.4-.19-.66-.28s-.59-.12-.98-.12c-.46,0-.89.08-1.27.24-.38.16-.72.4-.99.7-.28.3-.49.68-.65,1.12-.15.44-.23.94-.23,1.5s.08,1.07.24,1.51c.16.44.38.81.66,1.12.28.31.61.54.99.7.38.16.79.24,1.23.24.27,0,.51-.02.72-.05s.41-.08.59-.15c.18-.07.35-.15.51-.25.16-.1.32-.22.47-.37.03-.03.07-.05.11-.07.04-.02.08-.03.12-.03Z"/>
        <path class="cls-2" d="M219.37,73.31v1.12h-5.77v-9.3h5.76v1.12h-4.38v2.95h3.52v1.08h-3.52v3.03h4.38Z"/>
        <path class="cls-2" d="M230.32,72.43c.08,0,.14.03.2.09l.54.6c-.38.45-.84.8-1.39,1.04-.55.25-1.2.37-1.97.37-.67,0-1.28-.12-1.83-.35-.55-.23-1.01-.56-1.4-.98-.39-.42-.68-.92-.9-1.5s-.32-1.22-.32-1.92.11-1.34.33-1.92.53-1.08.94-1.5c.4-.42.88-.74,1.44-.98.56-.23,1.18-.35,1.85-.35s1.25.11,1.76.32c.51.22.96.5,1.34.86l-.45.64s-.07.09-.11.12c-.05.03-.11.05-.18.05-.08,0-.18-.04-.29-.12-.11-.08-.25-.17-.43-.28-.18-.1-.4-.19-.66-.28s-.59-.12-.98-.12c-.46,0-.89.08-1.27.24-.38.16-.72.4-.99.7-.28.3-.49.68-.65,1.12-.15.44-.23.94-.23,1.5s.08,1.07.24,1.51c.16.44.38.81.66,1.12.28.31.61.54.99.7.38.16.79.24,1.23.24.27,0,.51-.02.72-.05s.41-.08.59-.15c.18-.07.35-.15.51-.25.16-.1.32-.22.47-.37.03-.03.07-.05.11-.07.04-.02.08-.03.12-.03Z"/>
        <path class="cls-2" d="M239.17,74.43h-1.23c-.25,0-.42-.1-.54-.29l-2.3-3.22c-.07-.11-.15-.18-.24-.23s-.22-.07-.39-.07h-.9v3.81h-1.38v-9.3h2.68c.6,0,1.12.06,1.55.18.43.12.79.3,1.07.52.28.23.49.5.63.82s.2.68.2,1.07c0,.32-.05.63-.15.91-.1.29-.25.54-.44.77-.19.23-.43.42-.7.59-.28.16-.59.29-.94.38.17.1.32.25.45.43l2.62,3.62ZM234.83,69.61c.35,0,.67-.04.94-.13s.5-.21.68-.37c.18-.16.32-.35.41-.56.09-.22.14-.46.14-.72,0-.54-.18-.94-.53-1.21s-.88-.41-1.58-.41h-1.3v3.4h1.26Z"/>
        <path class="cls-2" d="M245.87,73.31v1.12h-5.77v-9.3h5.76v1.12h-4.38v2.95h3.52v1.08h-3.52v3.03h4.38Z"/>
        <path class="cls-2" d="M254.98,74.43h-1.06c-.12,0-.22-.03-.3-.09-.08-.06-.13-.14-.17-.23l-.82-2.16h-4.1l-.82,2.16c-.03.08-.09.16-.17.22-.08.07-.18.1-.3.1h-1.06l3.7-9.3h1.39l3.7,9.3ZM252.26,70.96l-1.38-3.61c-.1-.25-.2-.56-.3-.93-.05.19-.1.36-.15.52-.05.16-.1.3-.15.43l-1.37,3.59h3.34Z"/>
        <path class="cls-2" d="M265.66,65.13v9.3h-1.2v-6.62c0-.1,0-.21,0-.32,0-.11.01-.23.02-.34l-3.1,5.68c-.11.21-.27.32-.5.32h-.19c-.22,0-.39-.11-.49-.32l-3.15-5.7c.03.24.04.47.04.68v6.62h-1.21v-9.3h1.02c.12,0,.21.01.28.04.07.02.13.09.19.2l3.11,5.57c.06.11.12.23.17.36.05.13.1.25.15.38.09-.26.2-.5.32-.74l3.05-5.56c.06-.11.12-.17.18-.2.07-.02.16-.04.28-.04h1.02Z"/>
      </g>
      <g>
        <path class="cls-2" d="M53.78,73.51v.93h-4.81v-7.75h4.8v.93h-3.65v2.46h2.93v.9h-2.93v2.52h3.65Z"/>
        <path class="cls-2" d="M59.21,67.96c-.04.06-.07.11-.11.13-.04.03-.09.04-.15.04-.07,0-.14-.03-.22-.09-.08-.06-.19-.13-.31-.2s-.27-.14-.44-.2c-.17-.06-.38-.09-.62-.09-.23,0-.43.03-.6.09-.17.06-.31.14-.43.24-.11.1-.2.22-.26.36-.06.14-.09.29-.09.45,0,.21.05.38.16.52.11.14.25.25.42.35.17.1.37.18.59.25.22.07.44.15.67.22.23.08.46.17.67.27.22.1.42.23.59.38.17.15.31.34.42.56s.16.49.16.81c0,.34-.06.66-.17.96-.12.3-.29.56-.51.78s-.5.4-.82.53-.69.19-1.11.19c-.25,0-.49-.02-.72-.07s-.46-.12-.66-.21c-.21-.09-.4-.19-.58-.32-.18-.12-.34-.26-.49-.42l.33-.55s.07-.08.12-.11c.04-.03.1-.04.15-.04.07,0,.16.04.26.12.1.08.22.17.37.26.15.09.32.18.52.26s.45.12.74.12c.24,0,.45-.03.64-.09.19-.06.34-.15.47-.27s.23-.26.29-.42.1-.35.1-.55c0-.23-.05-.41-.16-.56-.1-.14-.24-.26-.42-.36-.17-.1-.37-.18-.59-.25-.22-.07-.44-.14-.67-.21-.23-.07-.45-.16-.67-.26-.22-.1-.42-.22-.59-.38-.17-.16-.31-.35-.42-.59-.1-.24-.16-.53-.16-.87,0-.28.05-.54.16-.8.11-.26.27-.49.47-.69s.46-.36.76-.48c.3-.12.65-.18,1.04-.18.44,0,.83.07,1.2.21.36.14.68.34.95.6l-.28.54Z"/>
        <path class="cls-2" d="M66.35,67.65h-2.46v6.79h-1.14v-6.79h-2.47v-.96h6.08v.96Z"/>
        <path class="cls-2" d="M67.08,73.81c0-.1.02-.19.05-.28s.09-.16.15-.23c.06-.07.14-.12.22-.15s.18-.06.28-.06.19.02.28.06c.09.04.16.09.23.15.07.06.12.14.15.23.04.09.06.18.06.28s-.02.19-.06.28c-.04.09-.09.16-.15.23-.06.07-.14.12-.23.15-.09.04-.18.05-.28.05s-.19-.02-.28-.05-.16-.09-.22-.15c-.06-.06-.11-.14-.15-.23s-.05-.18-.05-.28Z"/>
        <path class="cls-2" d="M77.1,73.44c.12,0,.21.03.27.1.07.07.1.15.1.26v.64h-5.2v-.36c0-.07.01-.15.04-.23.03-.08.08-.15.15-.22l2.45-2.46c.21-.2.39-.4.56-.59s.31-.38.42-.57.2-.38.27-.58c.06-.2.09-.41.09-.63s-.03-.41-.1-.57c-.07-.16-.16-.3-.28-.41-.12-.11-.26-.19-.42-.24-.16-.05-.34-.08-.52-.08s-.36.03-.52.08c-.16.05-.3.13-.42.23-.12.1-.22.21-.31.34-.08.13-.14.28-.18.43-.05.14-.11.23-.19.28-.08.05-.19.06-.34.03l-.55-.1c.05-.36.15-.68.3-.95.15-.27.33-.5.56-.69s.48-.32.77-.42c.29-.09.6-.14.94-.14s.65.05.94.15c.29.1.53.24.74.43.21.19.37.41.49.68.12.27.18.57.18.91,0,.29-.04.56-.13.8-.08.25-.2.48-.35.7-.15.22-.31.44-.51.65-.19.21-.4.42-.61.64l-1.96,2.01c.15-.04.3-.07.46-.1s.3-.04.43-.04h2.44Z"/>
        <path class="cls-2" d="M83.99,70.57c0,.68-.07,1.26-.22,1.76s-.35.91-.6,1.23c-.25.33-.55.57-.9.73-.34.16-.71.24-1.11.24s-.77-.08-1.11-.24c-.34-.16-.64-.4-.89-.73s-.45-.74-.59-1.23c-.14-.5-.22-1.08-.22-1.76s.07-1.26.22-1.76c.14-.5.34-.91.59-1.24s.55-.57.89-.73.71-.24,1.11-.24.77.08,1.11.24.64.4.9.73c.25.33.45.74.6,1.24s.22,1.09.22,1.76ZM82.9,70.57c0-.58-.05-1.07-.14-1.46-.09-.39-.22-.71-.38-.95s-.34-.41-.55-.51-.43-.15-.65-.15-.44.05-.65.15-.39.27-.55.51-.29.55-.38.95-.14.88-.14,1.46.05,1.07.14,1.46.22.71.38.94c.16.24.34.41.55.51.21.1.43.15.65.15s.44-.05.65-.15c.21-.1.39-.27.55-.51.16-.24.29-.55.38-.94.1-.39.14-.88.14-1.46Z"/>
        <path class="cls-2" d="M89.62,73.44c.12,0,.21.03.27.1.07.07.1.15.1.26v.64h-5.2v-.36c0-.07.01-.15.04-.23.03-.08.08-.15.15-.22l2.45-2.46c.21-.2.39-.4.56-.59s.31-.38.42-.57.2-.38.27-.58c.06-.2.09-.41.09-.63s-.03-.41-.1-.57c-.07-.16-.16-.3-.28-.41-.12-.11-.26-.19-.42-.24-.16-.05-.34-.08-.52-.08s-.36.03-.52.08c-.16.05-.3.13-.42.23-.12.1-.22.21-.31.34-.08.13-.14.28-.18.43-.05.14-.11.23-.19.28-.08.05-.19.06-.34.03l-.55-.1c.05-.36.15-.68.3-.95.15-.27.33-.5.56-.69s.48-.32.77-.42c.29-.09.6-.14.94-.14s.65.05.94.15c.29.1.53.24.74.43.21.19.37.41.49.68.12.27.18.57.18.91,0,.29-.04.56-.13.8-.08.25-.2.48-.35.7-.15.22-.31.44-.51.65-.19.21-.4.42-.61.64l-1.96,2.01c.15-.04.3-.07.46-.1s.3-.04.43-.04h2.44Z"/>
        <path class="cls-2" d="M96.52,71.61v.61c0,.06-.02.11-.06.16-.04.04-.09.07-.17.07h-.9v2h-.92v-2h-3.4c-.08,0-.15-.02-.2-.07-.05-.05-.09-.1-.11-.17l-.11-.54,3.75-4.98h.99v4.93h1.12ZM94.48,71.61v-3.02c0-.1,0-.21,0-.33s.02-.24.03-.36l-2.71,3.72h2.67Z"/>
      </g>
      <path class="cls-3" d="M11.42,16.74c-1.59.14-3.21.06-4.82-.25,1.23-.29,2.4-.73,3.51-1.29-.75-1.03-1.35-2.15-1.81-3.32-1.04.12-2.1.15-3.16.06,1-.13,1.98-.37,2.94-.66-1.04-3-1.18-6.33-.36-9.47-5.08,6.8-4.45,16.71.68,23.38,0,0,5.79-6.23,5.79-6.23-.57-.22-1.13-.75-1.65-1.16-.4-.33-.77-.69-1.13-1.06Z"/>
      <path class="cls-3" d="M45.44,0c.57,3.43.33,7.17-1.28,10.24,0,.01-.01.02-.02.04.89.26,1.8.47,2.72.59-1.02.08-2.03.06-3.02-.04-.63,1.12-1.39,2.19-2.28,3.13,1.2.64,2.49,1.14,3.84,1.46-1.88.37-3.77.4-5.63.15-.59.44-1.2.83-1.85,1.15,0,0,5.39,6.57,5.39,6.57,2.87-3.32,4.63-7.68,4.97-12.01.36-4.05-.79-7.9-2.84-11.28Z"/>
      <path class="cls-3" d="M119.45,34h-6.86c-3.6,0-6.53-2.93-6.53-6.53s2.93-6.53,6.53-6.53h6.86c.89,0,1.62.73,1.62,1.62s-.73,1.62-1.62,1.62h-6.86c-1.82,0-3.29,1.48-3.29,3.29s1.48,3.29,3.29,3.29h6.86c.89,0,1.62.73,1.62,1.62s-.73,1.62-1.62,1.62Z"/>
      <path class="cls-1" d="M201.93,36.12c-.28,1.25-.61,2.48-.96,3.67-.35,1.18-.72,2.29-1.1,3.3s-.75,1.9-1.12,2.65c-.31.63-.59,1.13-.86,1.5.21.7.46,1.36.73,1.97.31.67.65,1.27,1.03,1.77.36.48.76.86,1.17,1.13.8.52,1.75.53,2.72-.3.59-.5,1.14-1.11,1.65-1.8.52-.71.98-1.44,1.37-2.16h0c.32-.59.57-1.1.75-1.51-.07-.32-.14-.64-.2-.98-.37-2.03-.55-4.29-.55-6.7,0-.6,0-1.31.03-2.12.02-.81.05-1.67.11-2.58,0-.14.03-.28.04-.42h-4.31c-.14.87-.3,1.74-.49,2.59Z"/>
      <path class="cls-1" d="M209.75,38.64c0,1.3.04,2.41.11,3.28,0,.1.02.2.03.3.23-.6.45-1.23.65-1.87.44-1.36.82-2.76,1.13-4.15.2-.9.36-1.79.51-2.68h-2.26c-.1,1.46-.16,3.17-.16,5.11Z"/>
      <path class="cls-1" d="M196.77,38.64c0,1.3.04,2.41.11,3.28,0,.1.02.2.03.3.23-.6.45-1.23.65-1.87.44-1.36.82-2.76,1.13-4.15.2-.9.36-1.79.51-2.68h-2.26c-.1,1.46-.16,3.17-.16,5.11Z"/>
      <path class="cls-1" d="M90.92,38.64c0-.6,0-1.31.03-2.12.02-.81.05-1.67.11-2.58.06-.91.14-1.85.25-2.8.08-.73.19-1.44.31-2.14h-2.94c-.38,1.87-.89,3.77-1.52,5.66-.66,1.97-1.44,3.96-2.33,5.91-.86,1.89-1.79,3.75-2.77,5.54.43,2.13,1.01,3.82,1.71,5.04,1.11,1.91,2.57,2.14,3.96.96.63-.54,1.22-1.19,1.75-1.92.54-.75,1.03-1.53,1.44-2.31.31-.59.56-1.08.77-1.5-.08-.34-.15-.69-.21-1.05-.37-2.03-.55-4.29-.55-6.7Z"/>
      <path class="cls-1" d="M96.75,32.1c.14-1.1.22-2.14.25-3.1h-2.15c-.2,1.01-.37,2.23-.5,3.64-.15,1.63-.23,3.65-.23,5.99,0,1.3.04,2.41.11,3.28,0,.1.02.2.03.3.23-.6.45-1.23.65-1.87.44-1.36.82-2.76,1.13-4.15.31-1.39.55-2.77.72-4.1Z"/>
      <path class="cls-1" d="M96.54,24.95c-.03-.08-.06-.15-.09-.19-.05.05-.13.13-.23.24h0c-.13.14-.31.42-.53.96h1.11c-.07-.41-.16-.74-.26-1Z"/>
      <path class="cls-1" d="M81.6,29.01c-.09.87-.16,1.75-.22,2.66-.1,1.52-.15,3.05-.15,4.55,0,1.14.03,2.26.08,3.31.02.32.03.64.05.96.42-.89.83-1.82,1.22-2.77.68-1.63,1.28-3.3,1.8-4.97.37-1.21.7-2.44.98-3.75h-3.77Z"/>
      <path class="cls-1" d="M112.8,62.68c-.42.69-.82,1.39-1.2,2.11-.67,1.28-1.25,2.56-1.72,3.82-.48,1.26-.85,2.47-1.12,3.62-.26,1.13-.39,2.15-.39,3.02s.13,1.48.38,1.93c.2.35.5.51.97.51.41,0,.78-.22,1.13-.66.41-.53.77-1.31,1.07-2.32.31-1.05.54-2.35.7-3.85.16-1.52.24-3.25.24-5.14,0-.77-.01-1.55-.04-2.34,0-.23-.02-.46-.02-.7Z"/>
      <path class="cls-1" d="M83.41,25.95h2.49c.14-1.09.21-2.04.21-2.87,0-2.06-.16-3.53-.48-4.39-.17-.46-.46-1.01-.84-1.01-.17,0-.39.19-.62.53-.32.48-.63,1.16-.92,2.01-.3.88-.58,1.93-.82,3.14-.17.81-.32,1.68-.45,2.59h1.45Z"/>
      <path class="cls-1" d="M33.42,57.27c-.89.81-1.74,1.7-2.54,2.64-.79.93-1.49,1.9-2.09,2.91-.59.99-1.06,2.03-1.4,3.07-.33,1.03-.5,2.08-.5,3.12,0,.61.1,1.17.29,1.65.19.47.45.88.79,1.21.34.34.76.6,1.22.79.47.19,1,.28,1.58.28,2.34,0,4.13-1.23,5.46-3.75,1.38-2.61,2.08-6.51,2.08-11.59,0-.77-.02-1.55-.05-2.35-.02-.51-.05-1.02-.09-1.54-.64.39-1.3.83-1.97,1.31-.95.68-1.88,1.44-2.77,2.25Z"/>
      <path class="cls-1" d="M230.28,45.13c-.11-.36-.25-.65-.41-.86-.08-.11-.15-.15-.19-.16,0,.01-.05.04-.1.09,0,0-.08.14-.08.63,0,.3.04.62.12.95s.21.67.37,1c.17.33.38.65.63.95.02.02.03.04.05.06,0-.44-.04-.89-.1-1.36-.07-.47-.17-.91-.29-1.31Z"/>
      <path class="cls-1" d="M183.92,48.85c-.75-1.12-1.13-2.4-1.13-3.8,0-.17,0-.34.02-.5-.2.15-.44.29-.7.42-.25.13-.53.31-.82.54-.28.23-.55.52-.8.87-.25.35-.46.77-.62,1.26-.16.48-.24,1.03-.24,1.64,0,.53.08,1.03.24,1.48.15.44.38.82.67,1.13.29.31.64.56,1.03.73.4.17.85.26,1.34.26.9,0,1.66-.21,2.23-.61.45-.32.82-.7,1.11-1.15-.92-.58-1.71-1.34-2.33-2.28Z"/>
      <path class="cls-1" d="M227.46,48.85c-.75-1.12-1.13-2.4-1.13-3.8,0-.17,0-.34.02-.5-.2.15-.44.29-.7.42-.25.13-.53.31-.82.54-.28.23-.55.52-.8.87-.25.35-.46.77-.62,1.26-.16.48-.24,1.03-.24,1.64,0,.53.08,1.03.24,1.48.15.44.38.82.67,1.13.29.31.64.56,1.03.73.4.17.85.26,1.34.26.9,0,1.66-.21,2.23-.61.45-.32.82-.7,1.11-1.15-.92-.58-1.71-1.34-2.33-2.28Z"/>
      <path class="cls-1" d="M186.74,45.13c-.11-.36-.25-.65-.41-.86-.08-.11-.15-.15-.19-.16,0,.01-.05.04-.1.09,0,0-.08.14-.08.63,0,.3.04.62.12.95s.21.67.37,1c.17.33.38.65.63.95.02.02.03.04.05.06,0-.44-.04-.89-.1-1.36-.07-.47-.17-.91-.29-1.31Z"/>
      <path class="cls-3" d="M81.62,28.74c.27.18.58.27.93.27h.86v-3.06h-.86c-.22,0-.42.03-.61.1,0-.03.01-.07.02-.1h-3.23c-.03.19-.06.36-.09.55-.11.82-.21,1.66-.29,2.51h3.25c0-.09.01-.18.02-.27Z"/>
      <path class="cls-3" d="M122.57,45.31c-.26.16-.47.4-.6.7-.4.85-.87,1.67-1.38,2.43-.52.77-1.09,1.51-1.69,2.22-.6.71-1.23,1.4-1.87,2.05-.29.29-.57.58-.86.87.05-.89.12-1.77.19-2.61.11-1.29.21-2.42.31-3.4.1-.97.18-1.75.26-2.34.08-.63.11-.98.11-1.03,0-.44-.16-.83-.47-1.14-.58-.58-1.56-.62-2.17-.1-.29.24-.47.57-.52.91-.56,2.84-1.26,5.03-2.06,6.51-.72,1.32-1.49,1.99-2.29,1.99s-1.12-.33-1.28-.58c-.3-.46-.45-1.14-.45-2.02,0-.95.09-1.83.27-2.61.19-.81.39-1.5.6-2.07.21-.57.41-1,.58-1.28.09-.16.18-.3.24-.43h0c.17-.26.26-.55.26-.86,0-.41-.15-.8-.44-1.11-.3-.33-.71-.5-1.17-.5-.56,0-1.02.25-1.33.73h0c-.1.13-.21.32-.34.55-.24.4-.49.96-.76,1.69-.16.43-.32.93-.5,1.58-.2.17-.35.38-.47.65-.17.43-.46,1.02-.85,1.75-.39.73-.85,1.45-1.37,2.16-.5.69-1.06,1.3-1.65,1.8-.97.83-1.91.82-2.72.3-.41-.27-.81-.65-1.17-1.13-.38-.5-.73-1.09-1.03-1.77-.28-.6-.52-1.26-.73-1.97.27-.38.55-.87.86-1.5.37-.75.75-1.64,1.12-2.65s.75-2.12,1.1-3.3c.36-1.18.68-2.42.96-3.67.28-1.25.51-2.52.67-3.79.15-1.16.24-2.28.25-3.33h19.67c.43,0,.8-.13,1.11-.4.33-.28.5-.67.5-1.13s-.17-.85-.5-1.13c-.31-.26-.68-.4-1.11-.4h-19.85c-.07-.48-.16-.94-.26-1.35-.15-.59-.36-1.12-.62-1.57-.28-.47-.62-.85-1.03-1.12-.86-.58-2.14-.57-3.09-.02-.45.26-.86.62-1.22,1.08-.34.43-.65.95-.92,1.54-.2.45-.38.94-.54,1.45h-3.2c.11-1.02.16-1.97.16-2.9,0-1.49-.09-2.77-.28-3.82-.19-1.06-.46-1.95-.82-2.63-.38-.73-.86-1.27-1.43-1.61-.57-.33-1.21-.5-1.91-.5-.92,0-1.74.37-2.45,1.1-.64.66-1.21,1.56-1.7,2.67-.47,1.08-.89,2.34-1.23,3.77-.3,1.24-.54,2.56-.75,3.93h3.23c.13-.91.28-1.78.45-2.59.25-1.2.53-2.26.82-3.14.29-.85.6-1.53.92-2.01.23-.34.45-.53.62-.53.39,0,.67.55.84,1.01.32.85.48,2.33.48,4.39,0,.84-.07,1.78-.21,2.87h-2.49v3.06h1.96c-.28,1.31-.61,2.54-.98,3.75-.52,1.67-1.13,3.35-1.8,4.97-.39.95-.8,1.87-1.22,2.77-.02-.31-.04-.63-.05-.96-.05-1.05-.08-2.17-.08-3.31,0-1.51.05-3.04.15-4.55.06-.91.13-1.79.22-2.66h-3.25c-.08.77-.14,1.54-.19,2.32-.1,1.63-.15,3.23-.15,4.76,0,1.05.03,2.28.1,3.64.06,1.37.19,2.79.37,4.24.06.5.14,1,.22,1.49-.16.14-.28.3-.38.5-.55,1.1-1.12,2.12-1.68,3.01-.56.89-1.13,1.65-1.67,2.28-.53.61-1.06,1.09-1.56,1.42-.73.48-1.34.54-2.04.31-.24-.08-.47-.24-.7-.49-.24-.26-.45-.65-.61-1.16-.17-.53-.26-1.25-.26-2.14,0-.7.02-1.46.07-2.29.04-.84.1-1.63.16-2.37l.16-1.94c.05-.57.07-.91.07-1.03,0-.41-.14-.79-.41-1.1-.6-.68-1.69-.64-2.27-.05-.28.28-.45.61-.5,1-.17,1.34-.3,2.81-.38,4.48-.03.05-.06.1-.09.16-.14.32-.32.71-.54,1.17-.21.45-.46.92-.75,1.41-.29.49-.61.99-.95,1.47-.33.46-.69.89-1.08,1.26-.38.36-.77.65-1.18.87-.85.46-1.76.38-2.26-.16-.34-.36-.6-.81-.77-1.32-.18-.55-.31-1.12-.37-1.7-.06-.58-.07-1.04-.04-1.39l.36-4.55c0-.42-.13-.8-.4-1.14-.54-.67-1.62-.73-2.28-.13-.3.27-.48.62-.54,1.06l-.41,4.66c-.08.84-.27,1.57-.55,2.18-.28.61-.61,1.12-.97,1.5-.36.38-.72.66-1.08.84-.34.17-.64.25-.87.25-.6,0-1.03-.19-1.35-.6-.34-.45-.52-1.14-.52-2.08s.08-1.7.23-2.39c.16-.7.34-1.32.54-1.83.21-.52.4-.93.58-1.24.2-.34.35-.59.46-.78.06-.12.11-.24.17-.36.07-.18.11-.36.11-.54,0-.41-.15-.8-.44-1.11-.44-.48-1.14-.63-1.78-.38-.22.09-.42.23-.59.44-.53.72-.95,1.44-1.26,2.14-.3.69-.58,1.55-.83,2.55-.26,1.02-.38,2.2-.38,3.51,0,.87.11,1.67.34,2.37.23.72.57,1.35,1.02,1.87.45.52.99.93,1.61,1.22,1.4.65,3.28.62,4.97-.57.63-.45,1.21-1.01,1.73-1.69.35.73.8,1.34,1.34,1.81.81.7,1.83,1.05,3.04,1.05.87,0,1.69-.2,2.45-.59.73-.38,1.4-.87,2.02-1.45.55-.52,1.06-1.1,1.52-1.72,0,0,0,0,0,.01.23.85.58,1.61,1.04,2.24.47.64,1.06,1.16,1.75,1.55,1.25.7,2.99.85,4.56.07.66-.33,1.3-.77,1.89-1.29.58-.52,1.14-1.11,1.66-1.76.51-.64.98-1.29,1.4-1.93.19-.29.37-.58.55-.87.26.79.54,1.49.87,2.14.58,1.15,1.29,2.1,2.12,2.81.88.76,1.95,1.14,3.18,1.14.79,0,1.55-.17,2.25-.5.67-.32,1.31-.74,1.9-1.25.58-.5,1.12-1.08,1.61-1.71.48-.62.92-1.25,1.31-1.89.02-.03.04-.07.06-.1.02.03.03.07.05.1.73,1.54,1.64,2.76,2.7,3.62,1.1.9,2.35,1.35,3.73,1.35.8,0,1.58-.21,2.3-.62.68-.39,1.31-.87,1.9-1.45.44-.44.86-.91,1.23-1.42.22.68.53,1.27.95,1.76.89,1.06,2.13,1.59,3.67,1.59.95,0,1.84-.29,2.64-.87.25-.18.49-.39.72-.61-.01.23-.02.46-.03.7-.04.86-.08,1.7-.11,2.51-.62.74-1.24,1.55-1.84,2.44-.64.94-1.25,1.94-1.82,3-.57,1.05-1.1,2.14-1.58,3.22-.49,1.1-.91,2.2-1.26,3.27-.35,1.07-.62,2.14-.82,3.15-.2,1.03-.3,2-.3,2.91,0,1.72.39,3.09,1.15,4.08.8,1.03,1.95,1.56,3.42,1.56.89,0,1.69-.23,2.36-.68.64-.43,1.21-1.03,1.68-1.77.46-.72.84-1.58,1.14-2.55.29-.95.52-1.97.68-3.05.17-1.08.29-2.21.36-3.38.07-1.18.11-2.36.11-3.51,0-1.4-.04-2.76-.11-4.04-.07-1.16-.07-2.34-.01-3.49.69-.77,1.43-1.55,2.18-2.31.81-.83,1.63-1.69,2.43-2.57.8-.89,1.58-1.84,2.32-2.83.74-1.01,1.41-2.12,2-3.35.08-.2.13-.41.13-.63,0-.42-.14-.79-.43-1.11-.49-.56-1.37-.69-2.03-.29ZM90.91,47.89c-.41.78-.89,1.55-1.44,2.31-.53.74-1.12,1.38-1.75,1.92-1.39,1.18-2.85.95-3.96-.96-.7-1.21-1.28-2.91-1.71-5.04.98-1.79,1.91-3.66,2.77-5.54.89-1.95,1.68-3.94,2.33-5.91.63-1.89,1.14-3.79,1.52-5.66h2.94c-.12.7-.23,1.42-.31,2.14-.11.95-.19,1.89-.25,2.8-.05.9-.09,1.76-.11,2.58-.02.81-.03,1.52-.03,2.12,0,2.41.19,4.67.55,6.7.06.36.14.71.21,1.05-.21.41-.46.9-.77,1.5ZM96.22,24.99h0c.1-.11.17-.19.23-.24.03.05.06.11.09.19.1.26.19.6.26,1h-1.11c.22-.53.4-.81.53-.96ZM94.89,40.35c-.21.64-.42,1.27-.65,1.87,0-.1-.02-.2-.03-.3-.07-.87-.11-1.98-.11-3.28,0-2.34.08-4.36.23-5.99.13-1.41.3-2.63.5-3.64h2.15c-.02.95-.11,1.99-.25,3.1-.17,1.33-.41,2.71-.72,4.1-.31,1.39-.69,2.78-1.13,4.15ZM112.62,70.86c-.16,1.5-.39,2.8-.7,3.85-.3,1.01-.65,1.79-1.07,2.32-.35.45-.72.66-1.13.66-.46,0-.76-.16-.97-.51-.26-.44-.38-1.09-.38-1.93s.13-1.89.39-3.02c.26-1.15.64-2.36,1.12-3.62.48-1.26,1.06-2.54,1.72-3.82.38-.72.78-1.43,1.2-2.11,0,.24.01.47.02.7.03.79.04,1.57.04,2.34,0,1.89-.08,3.62-.24,5.14Z"/>
      <path class="cls-3" d="M78.73,25.95h-2.73c-.84,0-1.53.68-1.53,1.53s.68,1.53,1.53,1.53h2.35c.08-.84.18-1.68.29-2.51.03-.19.06-.37.09-.55Z"/>
      <path class="cls-3" d="M81.62,28.74c0,.09-.01.18-.02.27h.96c-.35,0-.66-.09-.93-.27Z"/>
      <path class="cls-3" d="M82.56,25.95h-.59s-.01.07-.02.1c.19-.07.39-.1.61-.1Z"/>
      <path class="cls-3" d="M265.48,45.62c-.49-.59-1.38-.72-2.05-.3-.27.17-.47.41-.62.73-.19.45-.49,1.05-.89,1.8-.39.73-.86,1.46-1.39,2.17-.52.69-1.1,1.3-1.71,1.8-.55.45-1.09.67-1.64.67-.25,0-.45-.05-.58-.15-.15-.11-.27-.26-.35-.46-.1-.25-.18-.54-.22-.89-.04-.38-.06-.77-.06-1.18,0-.33.01-.68.04-1.06l.16-2.22c.03-.35.04-.66.04-.9,0-1.12-.26-2.09-.77-2.87-.56-.86-1.43-1.29-2.57-1.29-.56,0-1.16.16-1.78.49-.6.32-1.19.83-1.77,1.52-.54.66-1.05,1.37-1.54,2.11-.49.73-.95,1.47-1.39,2.21-.31.53-.61,1.05-.9,1.57.04-.46.08-.92.12-1.38.07-.79.13-1.54.18-2.23.05-.71.07-1.22.07-1.56,0-.47-.05-.94-.13-1.39-.09-.47-.24-.9-.43-1.29-.21-.43-.51-.78-.87-1.04-.39-.28-.86-.42-1.4-.42-.89,0-1.76.54-2.59,1.59-.75.96-1.53,2.41-2.38,4.42l-.03.1c-.25.48-.48.87-.71,1.2-.28.4-.6.73-.94.98-.34.25-.73.44-1.15.56-.43.13-.92.19-1.48.19.07-.43.1-.86.1-1.27,0-1.15-.11-2.16-.32-2.99-.21-.85-.51-1.57-.88-2.14-.39-.58-.85-1.02-1.36-1.3-.52-.28-1.08-.42-1.66-.42-1,0-1.82.41-2.43,1.21-.13.16-.24.34-.34.52-.07-.16-.16-.31-.28-.44-.27-.28-.64-.42-1.11-.42-.37,0-.85.15-1.49.49-.6.31-1.2.78-1.78,1.39-.39.4-.76.92-1.14,1.58-.29.17-.52.44-.66.79-.17.43-.46,1.02-.85,1.75-.39.73-.85,1.45-1.37,2.16-.5.69-1.06,1.3-1.65,1.8-.97.83-1.91.82-2.72.3-.41-.27-.81-.65-1.17-1.13-.38-.5-.73-1.09-1.03-1.77-.28-.6-.52-1.26-.73-1.97.27-.38.55-.87.86-1.5.37-.75.75-1.64,1.12-2.65s.75-2.12,1.1-3.3c.36-1.18.68-2.42.96-3.67.19-.85.35-1.72.49-2.59h-3.23c-.14.88-.31,1.77-.51,2.68-.31,1.39-.69,2.78-1.13,4.15-.21.64-.42,1.27-.65,1.87,0-.1-.02-.2-.03-.3-.07-.87-.11-1.98-.11-3.28,0-1.94.06-3.65.16-5.11h-3.18c-.01.14-.03.28-.04.42-.05.9-.09,1.76-.11,2.58-.02.81-.03,1.52-.03,2.12,0,2.41.19,4.67.55,6.7.06.34.13.66.2.98-.18.41-.43.92-.75,1.51h0c-.39.73-.85,1.45-1.37,2.16-.5.69-1.06,1.3-1.65,1.8-.97.83-1.91.82-2.72.3-.41-.27-.81-.65-1.17-1.13-.38-.5-.73-1.09-1.03-1.77-.28-.6-.52-1.26-.73-1.97.27-.38.55-.87.86-1.5.37-.75.75-1.64,1.12-2.65s.75-2.12,1.1-3.3c.36-1.18.68-2.42.96-3.67.19-.85.35-1.72.49-2.59h-3.23c-.14.88-.31,1.77-.51,2.68-.31,1.39-.69,2.78-1.13,4.15-.21.64-.42,1.27-.65,1.87,0-.1-.02-.2-.03-.3-.07-.87-.11-1.98-.11-3.28,0-1.94.06-3.65.16-5.11h-3.18c-.01.14-.03.28-.04.42-.05.9-.09,1.76-.11,2.58-.02.81-.03,1.52-.03,2.12,0,2.41.19,4.67.55,6.7.07.37.14.72.22,1.07-.21.38-.39.69-.57.94-.28.4-.6.73-.94.98-.34.25-.73.44-1.15.56-.43.13-.92.19-1.48.19.07-.43.1-.86.1-1.27,0-1.15-.11-2.16-.32-2.99-.21-.85-.51-1.57-.88-2.14-.39-.58-.85-1.02-1.36-1.3-.52-.28-1.08-.42-1.66-.42-1,0-1.82.41-2.43,1.21-.13.16-.24.34-.34.52-.07-.16-.16-.31-.28-.44-.27-.28-.64-.42-1.11-.42-.37,0-.85.15-1.49.49-.6.31-1.2.78-1.78,1.39-.58.61-1.1,1.38-1.54,2.29-.45.94-.68,2.04-.68,3.28,0,.97.16,1.88.47,2.69.32.82.77,1.54,1.35,2.13.58.59,1.26,1.05,2.03,1.38,1.43.6,3.28.64,4.75.17.67-.22,1.28-.52,1.82-.89.54-.37,1.02-.82,1.43-1.32.32-.38.6-.8.85-1.24.27.03.56.05.86.05h0c.92.01,1.75-.09,2.5-.33.74-.23,1.41-.55,2.01-.95.36-.24.7-.51,1.01-.81.08.18.16.36.24.54.73,1.54,1.64,2.76,2.7,3.62,1.1.9,2.35,1.35,3.73,1.35.8,0,1.58-.21,2.3-.62.68-.39,1.31-.87,1.9-1.45.58-.57,1.11-1.21,1.57-1.9.26-.39.5-.77.73-1.14.02.04.04.09.06.13.73,1.54,1.64,2.76,2.7,3.62,1.1.9,2.35,1.35,3.73,1.35.8,0,1.58-.21,2.3-.62.68-.39,1.31-.87,1.9-1.45.43-.42.82-.87,1.19-1.36.31.71.73,1.34,1.24,1.86.58.59,1.26,1.05,2.03,1.38.78.33,1.64.49,2.56.49.78,0,1.52-.11,2.19-.33.67-.22,1.28-.52,1.82-.89.54-.37,1.02-.82,1.43-1.32.32-.38.6-.8.85-1.24.27.03.56.05.86.05h0c.91.01,1.75-.09,2.5-.33.74-.23,1.41-.55,2.01-.95.6-.4,1.12-.88,1.56-1.42.42-.52.8-1.07,1.14-1.67.08-.15.15-.32.24-.52l.02-.05c.64-1.54,1.16-2.61,1.55-3.2.02-.03.04-.06.06-.09.01.26.02.54.02.81,0,.33-.02.75-.05,1.24-.04.5-.08,1.05-.13,1.63l-.16,1.78c-.05.59-.11,1.15-.16,1.66-.05.52-.1.96-.14,1.34-.04.4-.06.67-.06.8,0,.74.22,1.33.64,1.75.74.74,2.04.93,3.13.14.45-.32.86-.9,1.27-1.76.18-.39.42-.88.73-1.48.32-.6.66-1.24,1.03-1.9.37-.66.76-1.33,1.18-2,.42-.67.83-1.27,1.22-1.79.38-.51.75-.92,1.09-1.24.35-.32.54-.35.52-.37.01,0,.06.04.13.13,0,0,.13.16.13.8,0,.33-.01.68-.04,1.05-.03.37-.06.74-.11,1.11-.05.39-.08.76-.11,1.11-.03.36-.04.68-.04.97,0,.66.05,1.33.16,1.98.11.69.33,1.33.65,1.9.34.6.81,1.09,1.39,1.46.6.37,1.37.56,2.29.56.82,0,1.61-.21,2.36-.61.7-.38,1.36-.87,1.97-1.45.59-.56,1.14-1.2,1.63-1.89.48-.67.9-1.31,1.26-1.91.36-.6.66-1.14.88-1.61.21-.45.36-.75.44-.92.09-.2.13-.4.13-.61,0-.39-.14-.76-.42-1.09ZM185.14,52.28c-.58.41-1.33.61-2.23.61-.5,0-.95-.09-1.34-.26-.4-.17-.74-.42-1.03-.73-.29-.31-.51-.69-.67-1.13-.16-.45-.24-.95-.24-1.48,0-.61.08-1.16.24-1.64.16-.49.37-.91.62-1.26.25-.35.52-.64.8-.87.29-.23.57-.42.82-.54.27-.13.5-.28.7-.42-.01.16-.02.33-.02.5,0,1.4.38,2.67,1.13,3.8.63.94,1.41,1.71,2.33,2.28-.29.45-.66.83-1.11,1.15ZM187.08,47.74c-.25-.3-.46-.62-.63-.95-.17-.33-.29-.66-.37-1s-.12-.66-.12-.95c0-.49.08-.63.08-.63.05-.05.09-.07.1-.09.04.01.11.05.19.16.16.21.3.5.41.86.13.4.22.83.29,1.31.07.46.1.92.1,1.36-.02-.02-.03-.04-.05-.06ZM228.68,52.28c-.58.41-1.33.61-2.23.61-.5,0-.95-.09-1.34-.26-.4-.17-.74-.42-1.03-.73-.29-.31-.51-.69-.67-1.13-.16-.45-.24-.95-.24-1.48,0-.61.08-1.16.24-1.64.16-.49.37-.91.62-1.26.25-.35.52-.64.8-.87.29-.23.57-.42.82-.54.27-.13.5-.28.7-.42-.01.16-.02.33-.02.5,0,1.4.38,2.67,1.13,3.8.63.94,1.41,1.71,2.33,2.28-.29.45-.66.83-1.11,1.15ZM230.62,47.74c-.25-.3-.46-.62-.63-.95-.17-.33-.29-.66-.37-1s-.12-.66-.12-.95c0-.49.08-.63.08-.63.05-.05.09-.07.1-.09.04.01.11.05.19.16.16.21.3.5.41.86.13.4.22.83.29,1.31.07.46.1.92.1,1.36-.02-.02-.03-.04-.05-.06Z"/>
      <path class="cls-3" d="M173.06,42.65c-.27.13-.48.34-.61.58-.75,1.2-1.77,2.41-3.05,3.6-1.28,1.2-2.78,2.29-4.45,3.25-1.66.96-3.5,1.75-5.46,2.34-3.42,1.03-7.19,1.11-10.93.47-1.6-.27-3.16-.7-4.63-1.27-1.46-.57-2.85-1.3-4.12-2.18-1.26-.87-2.37-1.91-3.31-3.1-.93-1.18-1.67-2.56-2.2-4.08-.53-1.52-.8-3.26-.8-5.16,0-2.09.33-4.04.98-5.8.65-1.76,1.54-3.38,2.64-4.8,1.1-1.43,2.4-2.69,3.86-3.76,1.47-1.08,3.04-1.99,4.66-2.71,1.62-.72,3.29-1.27,4.95-1.63,3.89-.84,7.38-.65,10.47.12,1.76.44,3.31,1.06,4.61,1.85,1.28.78,2.31,1.73,3.06,2.82.73,1.06,1.09,2.26,1.09,3.55,0,1.18-.3,2.33-.88,3.42-.6,1.11-1.42,2.1-2.47,2.95-1.05.86-2.29,1.56-3.7,2.08-2.16.79-4.67,1.02-7.14.51-.84-.17-1.61-.47-2.29-.88-.66-.4-1.21-.92-1.62-1.54-.4-.61-.6-1.38-.6-2.29,0-.58.09-1.11.27-1.58.19-.5.41-.94.64-1.29.24-.36.45-.64.64-.84.15-.16.24-.27.22-.25l.14-.1c.35-.33.54-.75.54-1.24,0-.45-.17-.84-.49-1.13-.41-.37-.96-.51-1.59-.37-.23.05-.43.17-.63.37l-.47.47c-.33.33-.68.78-1.03,1.33-.36.55-.68,1.22-.98,1.99-.3.8-.46,1.68-.46,2.64,0,1.15.23,2.23.68,3.23.45,1,1.12,1.88,2,2.62.87.73,1.96,1.32,3.24,1.73,1.26.41,2.73.61,4.36.61,2.02,0,3.94-.33,5.73-.99,1.78-.65,3.37-1.55,4.71-2.68,1.35-1.13,2.42-2.46,3.2-3.97.78-1.52,1.18-3.14,1.18-4.81,0-1.82-.48-3.51-1.44-5-.94-1.47-2.22-2.74-3.82-3.79-1.58-1.03-3.45-1.85-5.56-2.41-4-1.07-8.76-1.14-13.09-.1-2.06.5-4.05,1.22-5.91,2.15-1.86.93-3.6,2.08-5.17,3.4-1.57,1.33-2.95,2.84-4.09,4.5-1.15,1.66-2.05,3.48-2.69,5.43-.64,1.95-.97,4.04-.97,6.21s.32,4.28.94,6.11c.62,1.83,1.5,3.48,2.6,4.92,1.1,1.43,2.41,2.69,3.89,3.75,1.47,1.05,3.09,1.92,4.79,2.61,1.7.68,3.5,1.2,5.35,1.53,1.85.33,3.72.5,5.58.5,2.38,0,4.72-.34,6.96-1.02,2.22-.67,4.31-1.57,6.19-2.66s3.59-2.34,5.06-3.72c1.48-1.38,2.67-2.79,3.55-4.21.09-.15.15-.3.18-.46.03-.13.04-.26.04-.38,0-.4-.14-.76-.42-1.07-.46-.52-1.28-.66-1.94-.33Z"/>
      <path class="cls-3" d="M45.87,26.66c-.1-.54-.26-1.17-.48-1.88-.22-.72-.52-1.47-.89-2.24-.44-.89-1.06-1.85-1.84-2.85-.79-1.01-1.82-1.96-3.06-2.81-1.25-.85-2.78-1.56-4.54-2.11-1.77-.55-3.87-.83-6.26-.83s-4.93.37-7.3,1.1c-2.36.73-4.64,1.74-6.76,3.02-2.12,1.28-4.1,2.81-5.89,4.55-1.79,1.74-3.36,3.67-4.66,5.74-1.31,2.07-2.34,4.28-3.08,6.57-.74,2.3-1.11,4.67-1.11,7.04s.32,4.27.96,6.01c.64,1.76,1.57,3.25,2.77,4.45,1.19,1.19,2.64,2.11,4.31,2.73,3.45,1.28,7.94,1.19,12.2-.1,2.22-.67,4.41-1.69,6.51-3.01,2.09-1.32,4.12-2.97,6.04-4.92,1.52-1.54,2.95-3.29,4.27-5.22.05,1.09.12,2.2.21,3.3.14,1.63.31,3.3.52,4.96-.78.42-1.62.94-2.52,1.56-1.04.72-2.1,1.55-3.16,2.49-1.07.94-2.12,1.98-3.11,3.07-1.02,1.12-1.93,2.32-2.71,3.57-.79,1.26-1.43,2.59-1.9,3.95-.48,1.38-.73,2.79-.73,4.21,0,1.03.18,2,.53,2.87.35.87.85,1.64,1.49,2.27.63.63,1.39,1.13,2.25,1.48.86.35,1.81.53,2.83.53,2.02,0,3.75-.53,5.15-1.57,1.38-1.02,2.49-2.42,3.31-4.14.81-1.69,1.4-3.67,1.75-5.89.35-2.2.52-4.53.52-6.94,0-1.02-.03-2.05-.08-3.05-.05-.87-.11-1.73-.18-2.59.8-.39,1.45-.68,1.95-.88.59-.23.92-.36.91-.36h0c.33-.11.6-.3.8-.57.2-.27.3-.58.3-.93,0-.47-.17-.88-.5-1.17-.31-.29-.7-.44-1.16-.44-.15-.03-.33,0-.64.1-.21.07-.54.19-.98.37-.29.12-.65.28-1.09.49-.2-1.61-.35-3.15-.45-4.6-.12-1.68-.17-3.25-.17-4.66,0-.91.02-1.78.07-2.59.62-1.2,1.09-2.27,1.39-3.18.33-.99.49-1.8.49-2.46s-.19-1.25-.55-1.7c-.39-.48-.91-.73-1.49-.73-.7,0-1.66.37-2.22,2.16-.38,1.2-.64,2.86-.79,5.07-1.27,2.26-2.72,4.44-4.32,6.48-1.61,2.07-3.42,3.9-5.38,5.45-1.95,1.54-4.09,2.79-6.37,3.69-2.26.9-4.74,1.36-7.35,1.36-1.49,0-2.9-.21-4.19-.61-1.26-.4-2.37-1.03-3.3-1.9-.93-.86-1.66-1.99-2.19-3.36-.53-1.39-.8-3.08-.8-5.05,0-2.19.35-4.35,1.04-6.42.7-2.08,1.66-4.06,2.87-5.9,1.21-1.84,2.66-3.54,4.3-5.07,1.64-1.53,3.44-2.87,5.33-3.97,1.89-1.1,3.89-1.97,5.94-2.58,2.05-.61,4.11-.91,6.12-.91,2.28,0,4.23.28,5.81.84,1.58.55,2.89,1.25,3.92,2.08,1.02.82,1.83,1.72,2.41,2.69.6.99,1.04,1.92,1.32,2.77.28.85.46,1.57.52,2.14.09.9.12,1.04.12,1.04.05.45.24.82.54,1.09.64.58,1.68.55,2.25-.1.28-.33.43-.7.43-1.11,0-.02-.01-.17-.04-.56-.03-.34-.09-.79-.2-1.34ZM38.16,53.7c.04.52.07,1.04.09,1.54.03.8.05,1.58.05,2.35,0,5.08-.7,8.98-2.08,11.59-1.34,2.52-3.12,3.75-5.46,3.75-.58,0-1.11-.1-1.58-.28-.47-.19-.88-.45-1.22-.79-.34-.33-.6-.74-.79-1.21-.19-.48-.29-1.04-.29-1.65,0-1.04.17-2.09.5-3.12.34-1.05.81-2.08,1.4-3.07.6-1.01,1.3-1.98,2.09-2.91.8-.94,1.66-1.83,2.54-2.64.89-.81,1.82-1.57,2.77-2.25.67-.48,1.33-.92,1.97-1.31Z"/>
      <path class="cls-3" d="M69.08,36.4c.84,0,1.57-.3,2.16-.89.59-.59.89-1.32.89-2.16,0-.42-.08-.82-.24-1.19-.15-.36-.37-.69-.65-.97-.28-.28-.61-.5-.97-.65-.74-.31-1.64-.31-2.38,0-.37.16-.69.38-.97.65-.28.28-.5.6-.65.97-.16.37-.24.77-.24,1.19,0,.85.3,1.57.89,2.16.59.59,1.32.89,2.16.89ZM68.85,33.08h0c.07-.08.14-.11.23-.11.07,0,.15.01.26.12s.11.19.11.26c0,.08-.02.15-.1.23-.16.15-.36.16-.51.01-.07-.07-.1-.14-.1-.24s.03-.18.11-.27Z"/>
      <path class="cls-3" d="M69.35,33.58c.09-.08.1-.15.1-.23,0-.07-.01-.15-.11-.26s-.18-.12-.26-.12c-.09,0-.16.03-.23.1h0c-.08.08-.11.16-.11.27s.03.17.1.24c.15.15.35.14.51-.01Z"/>
      <path class="cls-3" d="M225.6,35.02h-41.41c-1.79,0-3.26-1.43-3.26-3.18,0-4.68,3.61-8.51,8.18-8.86,2.02-3.26,5.51-5.31,9.35-5.47,2.67-3.1,6.5-4.87,10.61-4.87,6.94,0,12.76,4.97,13.84,11.82.01.08.11.17.23.22,2.83,1.01,4.94,3.36,5.64,6.27.24,1,.02,2.03-.62,2.84-.62.79-1.56,1.24-2.56,1.24ZM189.79,25.92c-3.25,0-5.89,2.64-5.89,5.89,0,.12.14.23.29.23h41.41c.09,0,.17-.04.22-.11.04-.05.1-.15.06-.3-.47-1.93-1.87-3.49-3.75-4.16-1.16-.41-1.99-1.39-2.17-2.56-.85-5.39-5.44-9.31-10.9-9.31-3.43,0-6.61,1.56-8.73,4.29l-.46.59-.93-.02h0c-3.23,0-6.16,1.79-7.65,4.66l-.43.83-1.07-.04h0Z"/>
      <g>
        <path class="cls-3" d="M202.55,23.34c-.34-.65-.77-1.14-1.28-1.44-.51-.3-1.08-.45-1.71-.45-.82,0-1.56.33-2.2.99-.58.59-1.09,1.4-1.53,2.39-.42.96-.8,2.1-1.1,3.37-.11.47-.21.95-.31,1.44-.1.51-.19,1.04-.28,1.57,1.38-.18,2.22-.64,3.09-1.09.02-.11.04-.23.06-.33.02-.13.05-.27.07-.39.22-1.08.47-2.02.74-2.81.26-.76.54-1.37.83-1.8.2-.3.41-.48.56-.48.35,0,.6.49.76.9.29.77.43,2.09.43,3.93,0,0,0,0,0,0,0,.26-.03.54-.04.81l2.88.15c0-.23.02-.46.02-.69,0-.1,0-.2,0-.3,0-1.34-.08-2.49-.25-3.43-.17-.96-.42-1.75-.73-2.36Z"/>
        <path class="cls-3" d="M216.37,25.7c-.17-.96-.42-1.75-.73-2.36-.34-.65-.77-1.14-1.28-1.44-.51-.3-1.08-.45-1.71-.45-.82,0-1.56.33-2.2.99-.58.59-1.09,1.4-1.53,2.39-.42.96-.8,2.1-1.1,3.37-.16.68-.31,1.39-.44,2.11-.04.23-.07.46-.11.69.61.17,1.34.29,2.29.29.2,0,.38,0,.56-.02.04-.28.09-.54.14-.81.06-.36.12-.72.19-1.06.22-1.08.47-2.02.74-2.81.26-.76.54-1.37.83-1.8.2-.3.41-.48.56-.48.35,0,.6.49.76.9.29.77.43,2.09.43,3.93,0,.35-.04.71-.05,1.07,0,.14-.01.28-.02.42l2.87.15c.04-.53.06-1.06.06-1.58,0-.03,0-.06,0-.09,0-1.34-.08-2.49-.25-3.43Z"/>
      </g>
    </g>
  </g>
</svg>