<?xml version="1.0" encoding="UTF-8"?>
<svg id="_レイヤー_2" data-name="レイヤー 2" xmlns="http://www.w3.org/2000/svg" viewBox="0 0 1127.59 51.58">
  <defs>
    <style>
      .cls-1 {
        fill: #fdbfb0;
        stroke-width: 0px;
      }
    </style>
  </defs>
  <g id="_レイヤー_1-2" data-name="レイヤー 1">
    <path class="cls-1" d="M103.71,51.58c43.06,0,59.76-31.05,97.55-31.05s27.54,23.15,71.49,23.15c28.71,0,27.83-26.66,49.81-26.66s23.72,24.62,54.48,24.62,93.16-29.01,159.94-29.01c42.96,0,48.34,30.61,87,30.61s41.5-24.47,100.1-24.47c46.87,0,66,30.76,116.99,30.76s86.13-36.92,133.58-36.92,29.11,37.79,69.42,37.79c34.27,0,52.58-30.76,78.95-30.76h4.57V0H0v19.63h6.83c62.98.02,47.43,31.95,96.88,31.95Z"/>
  </g>
</svg>