<?xml version="1.0" encoding="UTF-8"?>
<svg id="_レイヤー_1" data-name="レイヤー_1" xmlns="http://www.w3.org/2000/svg" version="1.1" viewBox="0 0 200 200">
  <!-- Generator: Adobe Illustrator 29.8.2, SVG Export Plug-In . SVG Version: 2.1.1 Build 3)  -->
  <defs>
    <style>
      .st0 {
        fill: #fff;
      }
    </style>
  </defs>
  <path class="st0" d="M100,0C44.8,0,0,44.8,0,100s44.8,100,100,100,100-44.8,100-100S155.2,0,100,0h0ZM96.2,40.3c3,0,5.8,1,8,3.1l51.7,48.7c4.4,4.2,4.6,11.1.4,15.5-.2.2-.3.3-.5.5l-51.8,48.4c-4.4,4.1-11.4,3.9-15.5-.5-4.1-4.4-3.9-11.4.5-15.5l31.6-29.6H48.4c-6.1,0-11-4.9-11-11s4.9-11,11-11h72.2l-31.4-29.6c-4.5-4.1-4.8-11.1-.7-15.5,2-2.2,4.8-3.5,7.8-3.6h0Z"/>
</svg>