<?xml version="1.0" encoding="UTF-8"?>
<svg id="_レイヤー_2" data-name="レイヤー_2" xmlns="http://www.w3.org/2000/svg" width="991" height="1092.69" viewBox="0 0 991 1092.69">
  <defs>
    <style>
      .cls-1 {
        fill: #f93827;
      }

      .cls-2 {
        fill: #16c47f;
      }

      .cls-3 {
        fill: #ff9d23;
      }
    </style>
  </defs>
  <g id="_コンテンツ背景" data-name="コンテンツ背景">
    <g>
      <g>
        <ellipse class="cls-2" cx="70.12" cy="349.14" rx="70.12" ry="78.1"/>
        <ellipse class="cls-2" cx="155.2" cy="349.14" rx="70.12" ry="78.1"/>
        <ellipse class="cls-2" cx="240.27" cy="349.14" rx="70.12" ry="78.1"/>
        <ellipse class="cls-2" cx="325.35" cy="349.14" rx="70.12" ry="78.1"/>
        <ellipse class="cls-2" cx="410.42" cy="349.14" rx="70.12" ry="78.1"/>
        <ellipse class="cls-2" cx="495.5" cy="349.14" rx="70.12" ry="78.1"/>
        <ellipse class="cls-2" cx="580.58" cy="349.14" rx="70.12" ry="78.1"/>
        <ellipse class="cls-2" cx="665.65" cy="349.14" rx="70.12" ry="78.1"/>
        <ellipse class="cls-2" cx="750.73" cy="349.14" rx="70.12" ry="78.1"/>
        <ellipse class="cls-2" cx="835.8" cy="349.14" rx="70.12" ry="78.1"/>
        <ellipse class="cls-2" cx="920.88" cy="349.14" rx="70.12" ry="78.1"/>
      </g>
      <g>
        <ellipse class="cls-2" cx="70.12" cy="849.44" rx="70.12" ry="65.8"/>
        <ellipse class="cls-2" cx="155.2" cy="849.44" rx="70.12" ry="65.8"/>
        <ellipse class="cls-2" cx="240.27" cy="849.44" rx="70.12" ry="65.8"/>
        <ellipse class="cls-2" cx="325.35" cy="849.44" rx="70.12" ry="65.8"/>
        <ellipse class="cls-2" cx="410.42" cy="849.44" rx="70.12" ry="65.8"/>
        <ellipse class="cls-2" cx="495.5" cy="849.44" rx="70.12" ry="65.8"/>
        <ellipse class="cls-2" cx="580.58" cy="849.44" rx="70.12" ry="65.8"/>
        <ellipse class="cls-2" cx="665.65" cy="849.44" rx="70.12" ry="65.8"/>
        <ellipse class="cls-2" cx="750.73" cy="849.44" rx="70.12" ry="65.8"/>
        <ellipse class="cls-2" cx="835.8" cy="849.44" rx="70.12" ry="65.8"/>
        <ellipse class="cls-2" cx="920.88" cy="849.44" rx="70.12" ry="65.8"/>
      </g>
      <path class="cls-3" d="M990.8,349.62c.04,1-.07,1.96-.3,2.88-1.11,4.3-5.03,7.5-9.7,7.5H10.2c-4.67,0-8.59-3.2-9.7-7.5-.23-.92-.34-1.88-.3-2.88.08-1.93.17-3.86.3-5.79,3.12-51.44,21.11-100.07,50.92-143.69C132.46,81.53,300.88,0,495.5,0s363.04,81.53,444.08,200.14c29.81,43.62,47.8,92.25,50.92,143.69.13,1.93.22,3.86.3,5.79Z"/>
      <path class="cls-3" d="M990.57,847.45c-.15,1.87-.34,3.74-.57,5.61-6.94,56.85-49.82,108.67-117.02,149.46-.07.04-.13.08-.2.12-90.88,55.11-226.18,90.05-377.28,90.05s-286.4-34.94-377.28-90.05c-29.45-17.85-54.24-37.82-73.39-59.4-.02-.02-.04-.04-.05-.06-2.04-2.3-4.01-4.61-5.91-6.94-1.28-1.56-2.53-3.14-3.75-4.72-.62-.79-1.22-1.58-1.81-2.37-1.2-1.59-2.36-3.19-3.49-4.8-2.26-3.2-4.41-6.44-6.43-9.71-.5-.82-1-1.64-1.49-2.46-3.42-5.74-6.47-11.57-9.12-17.48h-.01c-3.02-6.76-5.52-13.6-7.5-20.54.01-.01,0-.01,0-.01-.73-2.6-1.4-5.21-1.99-7.83-.97-4.39-1.74-8.82-2.28-13.27-.23-1.86-.42-3.73-.57-5.6-.12-1.48.1-2.9.57-4.2,1.4-3.81,5.07-6.56,9.41-6.56h970.18c4.34,0,8.01,2.75,9.41,6.56.47,1.3.69,2.72.57,4.2Z"/>
      <g>
        <path class="cls-1" d="M136.11,749.2h-41.6l-19-50.73c-.18-.86-.51-2-.97-3.41-.46-1.41-1.03-3.1-1.71-5.07l.28,9.41v49.81h-38.28v-142.41h39.38c17.34,0,30.31,3.41,38.92,10.24,10.94,8.73,16.42,21.15,16.42,37.26,0,17.22-7.35,29.12-22.04,35.69l28.59,59.21ZM73.3,672.74h2.58c4.43,0,8.12-1.69,11.07-5.07,2.95-3.38,4.43-7.69,4.43-12.91,0-10.64-5.57-15.96-16.69-15.96h-1.38v33.94Z"/>
        <path class="cls-1" d="M148.84,749.2v-142.41h71.48v33.48h-33.02v20.75h29.61v32.19h-29.61v21.77h33.02v34.22h-71.48Z"/>
        <path class="cls-1" d="M316.8,705.39l-2.21,41.14c-8.55,3.44-16.2,5.17-22.97,5.17-15.93,0-29.33-5.84-40.21-17.52-12.17-13.1-18.26-31.64-18.26-55.62,0-22.44,5.72-40.46,17.16-54.05,11.44-13.53,26.72-20.29,45.84-20.29,6.21,0,12.54,1.17,19,3.5v40.67c-5.72-5.72-11.59-8.58-17.62-8.58-7.87,0-14.02,3.35-18.45,10.05-4.43,6.77-6.64,16.11-6.64,28.04,0,5.78.55,10.95,1.66,15.5,1.11,4.55,2.69,8.39,4.75,11.53,2.06,3.14,4.6,5.53,7.61,7.19,3.01,1.66,6.46,2.49,10.33,2.49,6.64,0,13.31-3.07,20.01-9.22Z"/>
        <path class="cls-1" d="M389.94,606.79h38.46v100.72c0,8.42-1.32,15.25-3.97,20.48-2.58,5.47-6.89,10.42-12.91,14.85-8.12,5.9-17.99,8.85-29.61,8.85-13.16,0-24.2-3.26-33.11-9.78-11.31-8.3-16.97-21.58-16.97-39.84v-95.28h38.46v91.86c0,6.21.75,10.61,2.26,13.19,1.51,2.58,4.04,3.87,7.61,3.87s6.24-1.2,7.66-3.6c1.41-2.52,2.12-6.98,2.12-13.37v-91.96Z"/>
        <path class="cls-1" d="M549.6,749.2h-41.6l-19-50.73c-.18-.86-.51-2-.97-3.41-.46-1.41-1.03-3.1-1.71-5.07l.28,9.41v49.81h-38.28v-142.41h39.38c17.34,0,30.31,3.41,38.92,10.24,10.94,8.73,16.42,21.15,16.42,37.26,0,17.22-7.35,29.12-22.04,35.69l28.59,59.21ZM486.78,672.74h2.58c4.43,0,8.12-1.69,11.07-5.07,2.95-3.38,4.43-7.69,4.43-12.91,0-10.64-5.57-15.96-16.69-15.96h-1.38v33.94Z"/>
        <path class="cls-1" d="M663.6,749.2h-41.6l-19-50.73c-.18-.86-.51-2-.97-3.41-.46-1.41-1.03-3.1-1.71-5.07l.28,9.41v49.81h-38.28v-142.41h39.38c17.34,0,30.31,3.41,38.92,10.24,10.94,8.73,16.42,21.15,16.42,37.26,0,17.22-7.35,29.12-22.04,35.69l28.59,59.21ZM600.78,672.74h2.58c4.43,0,8.12-1.69,11.07-5.07,2.95-3.38,4.43-7.69,4.43-12.91,0-10.64-5.57-15.96-16.69-15.96h-1.38v33.94Z"/>
        <path class="cls-1" d="M676.32,749.2v-142.41h71.48v33.48h-33.02v20.75h29.61v32.19h-29.61v21.77h33.02v34.22h-71.48Z"/>
        <path class="cls-1" d="M764.22,749.2v-142.41h36.71l19.28,49.99c1.04,2.95,2.23,6.33,3.55,10.15,1.32,3.81,2.78,8.21,4.38,13.19l3.97,12.54c-1.42-12.36-2.49-22.93-3.23-31.73-.74-8.79-1.11-16.17-1.11-22.14v-32h36.71v142.41h-36.71l-19.37-52.39c-2.03-5.59-3.86-10.84-5.49-15.73-1.63-4.89-3.06-9.55-4.29-13.97.8,10.02,1.38,18.76,1.75,26.19.37,7.44.55,13.96.55,19.55v36.34h-36.71Z"/>
        <path class="cls-1" d="M934.11,749.2h-38.46v-108.28h-21.21v-34.13h81.72v34.13h-22.04v108.28Z"/>
      </g>
      <g>
        <path class="cls-1" d="M35,566.32v-116.21h36.5c13.65,0,23.76,3.01,30.33,9.03,6.67,6.17,10.01,14.15,10.01,23.93,0,14.55-7.23,22.43-21.68,23.63,8.23,1.2,14.26,3.91,18.1,8.13,3.84,4.21,5.76,10.29,5.76,18.21,0,9.98-3.24,18.01-9.71,24.08-6.42,6.12-14.88,9.18-25.36,9.18h-43.95ZM66.38,495.27h2.11c3.76,0,6.74-.88,8.92-2.63,2.18-1.76,3.27-4.21,3.27-7.38,0-6.72-3.69-10.09-11.06-10.09-.35,0-.79.01-1.32.04-.53.03-1.17.06-1.92.11v19.94ZM66.38,541.1c.6.05,1.13.09,1.58.11.45.03.83.04,1.13.04,3.91,0,7.04-1.03,9.37-3.09,2.33-2.06,3.5-4.82,3.5-8.28s-1.17-6.17-3.5-8.13c-2.33-1.96-5.53-2.94-9.6-2.94h-2.48v22.28Z"/>
        <path class="cls-1" d="M174.84,450.11h31.38v82.19c0,6.87-1.08,12.44-3.24,16.71-2.11,4.47-5.62,8.5-10.54,12.12-6.62,4.82-14.68,7.23-24.16,7.23-10.74,0-19.75-2.66-27.02-7.98-9.23-6.77-13.85-17.61-13.85-32.51v-77.75h31.38v74.96c0,5.07.61,8.66,1.84,10.76,1.23,2.11,3.3,3.16,6.21,3.16s5.09-.98,6.25-2.94c1.15-2.06,1.73-5.69,1.73-10.91v-75.04Z"/>
        <path class="cls-1" d="M305.12,566.32h-33.94l-15.5-41.4c-.15-.7-.41-1.63-.79-2.78-.38-1.15-.84-2.53-1.39-4.14l.23,7.68v40.64h-31.23v-116.21h32.14c14.15,0,24.74,2.78,31.76,8.35,8.93,7.13,13.4,17.26,13.4,30.41,0,14.05-6,23.76-17.99,29.13l23.33,48.32ZM253.87,503.92h2.11c3.61,0,6.62-1.38,9.03-4.14,2.41-2.76,3.61-6.27,3.61-10.54,0-8.68-4.54-13.02-13.62-13.02h-1.13v27.7Z"/>
        <path class="cls-1" d="M355.92,499.11h43.8v4.82c0,22.38-3.34,38.49-10.01,48.32-7.28,10.74-18.04,16.11-32.29,16.11s-24.99-5.27-32.96-15.81c-7.93-10.64-11.89-25.24-11.89-43.8s3.99-33.64,11.97-44.48c7.98-10.84,18.89-16.26,32.74-16.26,18.36,0,31.69,9.58,39.96,28.75l-30.41,11.14c-.45-3.66-1.49-6.56-3.12-8.69-1.63-2.13-3.68-3.2-6.13-3.2-8.63,0-12.94,11.87-12.94,35.6,0,10.09.95,17.41,2.86,21.98,1.91,4.57,4.94,6.85,9.11,6.85,1.66,0,3.16-.4,4.52-1.2,1.35-.8,2.5-1.93,3.43-3.39.93-1.45,1.65-3.22,2.18-5.31.53-2.08.79-4.4.79-6.96h-11.59v-24.46Z"/>
        <path class="cls-1" d="M413.12,566.32v-116.21h58.33v27.32h-26.94v16.93h24.16v26.27h-24.16v17.76h26.94v27.92h-58.33Z"/>
        <path class="cls-1" d="M567.49,566.32h-33.94l-15.5-41.4c-.15-.7-.41-1.63-.79-2.78-.38-1.15-.84-2.53-1.39-4.14l.23,7.68v40.64h-31.23v-116.21h32.14c14.15,0,24.74,2.78,31.76,8.35,8.93,7.13,13.4,17.26,13.4,30.41,0,14.05-6,23.76-17.99,29.13l23.33,48.32ZM516.23,503.92h2.11c3.61,0,6.62-1.38,9.03-4.14,2.41-2.76,3.61-6.27,3.61-10.54,0-8.68-4.54-13.02-13.62-13.02h-1.13v27.7Z"/>
        <path class="cls-1" d="M607.53,536.14h-37.78v-23.26h37.78v23.26Z"/>
        <path class="cls-1" d="M613.18,563.46v-36.5c6.17,8.43,12.84,12.64,20.02,12.64,2.71,0,4.92-.71,6.62-2.14s2.56-3.22,2.56-5.38c0-3.11-1.86-6.15-5.57-9.11l-5.12-3.99c-3.41-2.56-6.32-5.1-8.73-7.64-2.41-2.53-4.37-5.14-5.87-7.83-1.51-2.68-2.61-5.46-3.31-8.32-.7-2.86-1.05-5.87-1.05-9.03,0-5.42,1.25-11.09,3.76-17.01,1.25-2.76,2.71-5.28,4.37-7.56,1.66-2.28,3.56-4.3,5.72-6.06,5.92-5.02,13.07-7.53,21.45-7.53,7.48,0,15,1.98,22.58,5.95v35.52c-2.56-3.96-5.47-7.09-8.73-9.37-3.26-2.28-6.47-3.42-9.63-3.42-2.41,0-4.39.7-5.95,2.11-1.61,1.35-2.41,2.99-2.41,4.89,0,3.11,2.13,6.2,6.4,9.26l4.97,3.69c6.62,4.77,11.36,9.66,14.22,14.68,2.91,5.02,4.37,10.89,4.37,17.61,0,11.44-3.49,20.87-10.46,28.3-6.97,7.43-15.81,11.14-26.49,11.14-7.38,0-15.28-1.63-23.71-4.89Z"/>
        <path class="cls-1" d="M763.85,566.32h-31.38v-46.74h-14.98v46.74h-31.38v-116.21h31.38v41.09h14.98v-41.09h31.38v116.21Z"/>
        <path class="cls-1" d="M865.53,508.59c0,17.71-4.04,32.11-12.12,43.2-8.03,11.04-18.49,16.56-31.38,16.56-11.44,0-21.25-4.24-29.43-12.72-10.29-10.74-15.43-26.84-15.43-48.32s5.37-36.3,16.11-47.19c7.98-8.08,17.43-12.12,28.37-12.12,13.4,0,24.06,5.47,31.99,16.41,7.93,10.94,11.89,25.67,11.89,44.18ZM832.94,508.82c0-21.02-3.71-31.54-11.14-31.54-3.71,0-6.67,2.76-8.88,8.28-2.16,5.12-3.24,12.64-3.24,22.58s1.02,17.37,3.05,22.77c2.03,5.39,4.85,8.09,8.47,8.09s6.57-2.66,8.58-7.98c2.11-5.32,3.16-12.72,3.16-22.2Z"/>
        <path class="cls-1" d="M910.31,566.32h-31.38v-116.21h30.41c15.15,0,26.39,3.09,33.72,9.26,8.63,7.28,12.94,17.39,12.94,30.33,0,14.1-4.59,24.61-13.77,31.54-6.27,4.67-15.28,7-27.02,7h-4.89v38.08ZM910.31,502.12l1.43.08c3.81,0,6.85-1.17,9.11-3.5s3.39-5.53,3.39-9.6-1.1-7.27-3.31-9.78c-2.21-2.56-5.02-3.84-8.43-3.84h-2.18v26.64Z"/>
      </g>
    </g>
  </g>
</svg>