<svg width="286" height="175" viewBox="0 0 286 175" fill="none" xmlns="http://www.w3.org/2000/svg">
<path d="M64.9272 96.9572C64.045 95.8939 63.0062 94.682 61.8107 93.3215C60.6343 91.9515 59.3723 90.5047 58.0249 88.9812C56.6967 87.4483 55.3445 85.9152 53.9686 84.3821C52.6117 82.8395 51.2879 81.3638 49.9972 79.9551C48.7256 78.5369 47.5536 77.248 46.4811 76.0884C45.4086 74.9288 44.502 73.9847 43.7614 73.256L46.2053 70.978C46.7938 71.5915 47.5769 72.4301 48.5544 73.4938C49.5225 74.5385 50.6186 75.7459 51.8427 77.1161C53.0574 78.4672 54.3432 79.9141 55.7 81.4567C57.0666 82.9707 58.4377 84.5182 59.8134 86.0991C61.2083 87.6705 62.5462 89.1987 63.827 90.6837C65.1078 92.1687 66.2795 93.5291 67.342 94.765L64.9272 96.9572ZM91.5389 75.1015C92.6414 75.9796 93.8729 76.7976 95.2333 77.5556C96.5894 78.2926 98.0029 78.9411 99.474 79.501C100.966 80.0566 102.442 80.4846 103.901 80.7853C103.609 81.1528 103.305 81.6209 102.989 82.1895C102.669 82.7372 102.364 83.3036 102.074 83.8886C101.805 84.4692 101.589 84.9948 101.428 85.4653C99.5215 84.9105 97.6336 84.1338 95.764 83.135C93.8899 82.1154 92.1063 80.9567 90.4131 79.6588L92.301 88.5485L87.4492 89.5789L85.5879 80.8144C84.5594 82.6467 83.3814 84.3908 82.0537 86.0467C80.7217 87.6818 79.2871 89.1423 77.7501 90.4283C77.4155 90.085 76.9967 89.7051 76.4939 89.2884C76.0163 88.8883 75.5097 88.5051 74.974 88.1391C74.4547 87.7478 73.9844 87.4333 73.5632 87.1956C75.4221 85.8848 77.1526 84.3287 78.7547 82.5273C80.3523 80.705 81.6504 78.859 82.6492 76.9894L73.0395 79.0303L72.0822 74.5228L83.7265 72.0499L83.0418 68.8258L73.8078 70.7868L72.8505 66.2794L82.0846 64.3183L81.1339 59.8421L85.9857 58.8117L86.9364 63.2879L96.3895 61.2803L97.3468 65.7878L87.8936 67.7954L88.5783 71.0195L100.41 68.5066L101.368 73.0141L91.5389 75.1015ZM125.292 72.0375C126.731 73.4196 128.384 74.6773 130.252 75.8107C132.139 76.9212 134.061 77.7934 136.017 78.4275C135.701 78.7526 135.349 79.1663 134.961 79.6684C134.574 80.1705 134.208 80.6816 133.865 81.2016C133.543 81.7198 133.281 82.1904 133.08 82.6133C131.22 81.8431 129.417 80.8436 127.669 79.6148C125.943 78.3843 124.345 77.0044 122.873 75.4752L123.583 84.2786L118.639 84.6776L117.929 75.8742C116.698 77.6001 115.309 79.2104 113.76 80.7052C112.21 82.1787 110.578 83.4447 108.866 84.5032C108.601 84.1393 108.257 83.7283 107.835 83.2701C107.413 82.8119 106.97 82.3661 106.507 81.9326C106.065 81.4974 105.652 81.1455 105.266 80.877C107.115 79.9145 108.892 78.733 110.599 77.3326C112.305 75.9321 113.768 74.4442 114.99 72.8689L105.676 73.6205L105.318 69.1869L110.836 68.7416C110.606 68.0111 110.252 67.2049 109.774 66.3232C109.296 65.4414 108.803 64.6358 108.295 63.9063L111.171 62.5506L106.323 62.9418L105.965 58.5082L116.459 57.6614L116.194 54.3761L121.138 53.9771L121.403 57.2624L132.12 56.3975L132.478 60.8311L127.981 61.1941L131.277 61.8591C130.824 62.8801 130.369 63.8693 129.911 64.8266C129.473 65.7608 129.058 66.5862 128.666 67.3027L134.184 66.8574L134.542 71.291L125.292 72.0375ZM112.639 62.4322C113.212 63.1778 113.749 63.9906 114.248 64.8706C114.745 65.7294 115.107 66.5028 115.334 67.1908L112.431 68.6129L117.311 68.2191L116.817 62.095L112.639 62.4322ZM121.761 61.696L122.255 67.8201L126.976 67.4391L124.259 66.7916C124.624 66.013 124.981 65.1281 125.329 64.1369C125.677 63.1457 125.955 62.2137 126.163 61.3408L121.761 61.696ZM154.248 81.488L150.726 79.1035C151.719 78.5939 152.609 77.964 153.395 77.2139C154.196 76.4478 154.823 75.6013 155.273 74.6744C155.739 73.7315 155.973 72.7561 155.976 71.7481C155.964 70.1481 155.519 68.795 154.642 67.6889C153.78 66.5828 152.574 65.8599 151.023 65.5202C151.038 65.7762 151.046 66.0322 151.045 66.2882C151.041 68.0322 150.797 69.6796 150.313 71.2305C149.845 72.7813 149.25 74.1639 148.527 75.3782C148.045 76.177 147.451 76.9116 146.746 77.5819C146.056 78.2522 145.311 78.7864 144.51 79.1845C143.725 79.5826 142.94 79.7807 142.156 79.7788C141.164 79.7764 140.333 79.4944 139.662 78.9328C138.992 78.3712 138.49 77.626 138.156 76.6972C137.838 75.7524 137.681 74.72 137.683 73.6C137.685 72.832 137.807 71.9443 138.05 70.9369C138.308 69.9135 138.711 68.8825 139.257 67.8438C139.82 66.7892 140.542 65.8229 141.424 64.945C142.306 64.0511 143.372 63.3337 144.621 62.7927C145.887 62.2358 147.359 61.9593 149.039 61.9634C151.199 61.9686 153.086 62.3731 154.7 63.177C156.315 63.9809 157.568 65.1519 158.46 66.6901C159.352 68.2122 159.796 70.0693 159.791 72.2613C159.788 73.3973 159.561 74.5328 159.11 75.6677C158.66 76.8026 158.017 77.8731 157.183 78.879C156.364 79.8691 155.386 80.7387 154.248 81.488ZM141.283 73.6327C141.282 74.1927 141.361 74.7049 141.52 75.1693C141.678 75.6177 141.95 75.8423 142.334 75.8432C142.526 75.8437 142.798 75.7804 143.15 75.6532C143.503 75.5261 143.903 75.239 144.352 74.7921C144.802 74.3452 145.267 73.6423 145.75 72.6835C146.312 71.5648 146.707 70.4458 146.934 69.3263C147.176 68.2069 147.299 67.1992 147.301 66.3032C147.302 66.0472 147.294 65.7992 147.279 65.5591C146.334 65.8129 145.485 66.2428 144.732 66.849C143.978 67.4392 143.344 68.1257 142.831 68.9084C142.253 69.739 141.851 70.5941 141.624 71.4735C141.398 72.337 141.285 73.0567 141.283 73.6327ZM174.772 69.5077L192.053 70.9858L190.785 85.8117L186.321 85.4299L186.42 84.2821L177.843 83.5484L177.745 84.6962L173.504 84.3335L174.511 72.5685L172.766 74.5711C172.563 74.1897 172.309 73.7719 172.006 73.3177C171.702 72.8635 171.388 72.4084 171.063 71.9524L170.021 84.1319L165.493 83.7446L166.336 73.8926C165.876 74.2601 165.408 74.6054 164.931 74.9286C164.455 75.2305 163.981 75.5112 163.51 75.7706C163.44 75.3364 163.302 74.8214 163.096 74.2257C162.892 73.6087 162.675 73.0121 162.446 72.4358C162.217 71.8595 161.997 71.4232 161.787 71.1269C163.371 70.3845 164.883 69.3576 166.322 68.0462C167.762 66.7348 169 65.2776 170.036 63.6748L163.691 63.1321L164.046 58.9872L167.585 59.2899L168.084 53.4552L172.612 53.8425L172.113 59.6772L172.718 59.729L173.497 59.6351L175.909 61.4793C174.953 63.6457 173.749 65.7053 172.297 67.658C172.635 67.9652 173.032 68.331 173.488 68.7554C173.944 69.1799 174.359 69.59 174.731 69.9859L174.772 69.5077ZM193.331 56.8031L193.001 60.661L175.465 59.161L175.795 55.3031L193.331 56.8031ZM191.524 61.4018L190.801 69.851L176.422 68.621L177.145 60.1719L191.524 61.4018ZM186.957 64.4798L180.931 63.9644L180.798 65.5267L186.824 66.0421L186.957 64.4798ZM178.699 73.537L178.574 75.0036L180.806 75.1945L180.931 73.7279L178.699 73.537ZM187.276 74.2706L185.044 74.0797L184.919 75.5464L187.151 75.7373L187.276 74.2706ZM186.733 80.6154L186.861 79.1169L184.63 78.926L184.501 80.4245L186.733 80.6154ZM178.157 79.8818L180.388 80.0727L180.517 78.5742L178.285 78.3833L178.157 79.8818ZM222.255 87.673C222.025 88.7147 221.729 89.5124 221.367 90.0662C221 90.6407 220.455 91.034 219.731 91.2459C219.028 91.4625 218.23 91.5161 217.337 91.4067C216.46 91.3228 215.427 91.15 214.24 90.8885C214.289 90.266 214.26 89.5059 214.152 88.6083C214.065 87.7153 213.935 86.9658 213.762 86.3599C214.357 86.5346 214.986 86.7058 215.648 86.8735C216.315 87.0203 216.765 87.1085 216.999 87.1382C217.249 87.1932 217.425 87.1882 217.526 87.1233C217.653 87.042 217.744 86.8764 217.8 86.6264L222.032 67.4069L218.407 66.6086L220.13 67.414C219.578 68.0352 219.033 68.6251 218.495 69.1838C217.978 69.7471 217.493 70.2629 217.04 70.7312L220.322 71.4538L219.51 75.1414L213.072 73.7237L211.647 80.1927L213.179 80.5299L214.342 75.2485L218.185 76.095L215.956 86.2204L212.112 85.3739L212.366 84.2176L205.241 82.6485L204.863 84.3673L201.081 83.5346L203.435 72.8467L207.216 73.6794L206.053 78.9609L207.553 79.2912L208.978 72.8222L202.884 71.4802L203.696 67.7926L206.54 68.4188C206.513 67.845 206.431 67.2262 206.293 66.5624C206.16 65.8777 206.003 65.2532 205.821 64.689L208.406 64.4064L203.844 63.4016L198.558 87.4026L194.152 86.4322L200.38 58.1498L227.444 64.1096L222.255 87.673ZM213.286 69.4784C213.655 68.9918 214.051 68.4345 214.473 67.8066C214.895 67.1788 215.259 66.5707 215.563 65.9823L209.875 64.7298C210.101 65.3912 210.286 66.0873 210.431 66.8182C210.576 67.5492 210.654 68.1888 210.664 68.7372L209.04 68.9694L214.603 70.1944L213.286 69.4784ZM232.355 97.5797L230.001 95.3222C231.097 94.1159 232.306 92.788 233.627 91.3386C234.948 89.8892 236.318 88.3931 237.736 86.8505C239.173 85.3178 240.586 83.8085 241.975 82.3224C243.392 80.8275 244.727 79.4213 245.978 78.1039C247.239 76.7677 248.368 75.5907 249.364 74.573C250.37 73.5364 251.176 72.7195 251.781 72.1224L254.162 74.4663C253.401 75.1745 252.469 76.0935 251.366 77.2233C250.262 78.3531 249.045 79.6045 247.717 80.9774C246.407 82.3602 245.043 83.7991 243.626 85.2941C242.227 86.799 240.834 88.2945 239.445 89.7805C238.075 91.2765 236.784 92.6932 235.57 94.0305C234.357 95.3678 233.285 96.5509 232.355 97.5797Z" fill="white"/>
<path d="M8.33093 52.5623C3.25676 46.5736 6.14399 36.6398 12.5756 30.7205C21.9566 22.0882 39.0899 21.7978 61.0094 21.4265C71.1575 21.2545 73.0203 22.0736 81.7318 21.2019C88.75 20.4999 95.3341 18.7104 103.197 20.2764C106.189 20.8722 108.814 21.8215 110.385 23.8087C110.545 24.0107 112.245 26.2269 111.679 28.777C110.295 35.0115 96.4951 38.1303 93.8347 38.7544C85.748 40.6511 81.7539 39.6844 75.5181 40.1087C53.1438 41.6322 48.2118 57.9186 27.7758 58.5392C25.7485 58.6008 13.6239 58.8102 8.33093 52.5623Z" fill="white"/>
<path d="M24.6428 38.0353C24.6135 38.461 24.5711 38.899 24.5157 39.3491C24.458 39.7916 24.3838 40.2348 24.293 40.6788L26.7271 48.6807L25.0354 49.1808L23.3871 43.7619C23.3407 43.8841 23.2892 44.0036 23.2328 44.1203C23.1816 44.2272 23.1267 44.3352 23.0679 44.4444C22.98 44.3202 22.8474 44.1592 22.6701 43.9613C22.4929 43.7634 22.308 43.5678 22.1154 43.3745C21.9281 43.1713 21.7637 43.0155 21.622 42.9072C21.8572 42.4707 22.0606 41.9851 22.2325 41.4505C22.412 40.9136 22.5542 40.3502 22.659 39.7603C22.7716 39.1681 22.8396 38.5808 22.8631 37.9982L24.6428 38.0353ZM29.3595 39.7693L29.6493 40.7222L32.4573 39.8923L32.9182 41.4077L30.1103 42.2377L30.4246 43.2709L33.3821 42.3968L33.8536 43.9467L30.8961 44.8208L31.6329 47.2432L29.9067 47.7534L27.6333 40.2796L27.4147 40.3442C27.3102 40.8255 27.19 41.2823 27.0539 41.7146C26.9178 42.1469 26.7674 42.5459 26.6027 42.9116C26.4857 42.8293 26.3246 42.7393 26.1192 42.6415C25.9192 42.5338 25.7166 42.4311 25.5112 42.3333C25.3059 42.2355 25.129 42.1626 24.9807 42.1147C25.2158 41.6782 25.4131 41.186 25.5726 40.6384C25.7298 40.0831 25.8508 39.5051 25.9357 38.9044C26.0259 38.2938 26.0727 37.6919 26.0762 37.0986L27.8165 37.0471C27.8028 37.5517 27.7652 38.0467 27.7038 38.532L31.9962 37.2632L32.4781 38.8476L29.3595 39.7693ZM42.4682 37.3838L35.4024 39.4723L34.0754 35.1096L41.1412 33.0212L42.4682 37.3838ZM39.9119 35.1238L36.1719 36.2292L36.5316 37.4117L40.2716 36.3063L39.9119 35.1238ZM34.1198 40.7398L38.6884 39.3894L40.2844 44.636L38.6157 45.1292L38.4621 44.6241L37.1387 45.0153L37.3063 45.5663L35.7297 46.0323L34.1198 40.7398ZM44.1892 37.7635L45.7851 43.0102L44.105 43.5068L43.9513 43.0016L42.5473 43.4166L42.715 43.9677L41.1154 44.4405L39.5055 39.1479L44.1892 37.7635ZM36.1818 41.8696L36.6532 43.4195L37.9766 43.0283L37.5052 41.4784L36.1818 41.8696ZM43.4659 41.4058L42.9944 39.8559L41.5905 40.2709L42.0619 41.8208L43.4659 41.4058ZM45.9913 34.3279L45.2083 32.6198C45.6734 32.3072 46.2511 32.0071 46.9413 31.7197C47.6292 31.4246 48.3452 31.1671 49.0894 30.9472C49.8029 30.7363 50.505 30.5705 51.1957 30.4497C51.8918 30.319 52.4986 30.2523 53.0162 30.2495L53.2548 32.1059C52.7909 32.0929 52.2289 32.1422 51.5689 32.2539C50.9089 32.3655 50.2336 32.5234 49.5431 32.7275C48.845 32.9339 48.1788 33.1766 47.5446 33.4558C46.9081 33.7274 46.3903 34.0181 45.9913 34.3279ZM49.3684 41.5131L47.8594 40.0572C48.933 39.573 49.6901 38.9697 50.1309 38.2471C50.5693 37.5169 50.7439 36.7437 50.6545 35.9276C49.8022 36.2046 48.9781 36.519 48.1822 36.8711C47.3939 37.2209 46.7027 37.5878 46.1088 37.9719L45.0922 36.3204C45.9223 35.8331 46.8685 35.37 47.9306 34.9309C48.9904 34.4842 50.0689 34.0987 51.166 33.7744C51.8334 33.5771 52.4925 33.4073 53.1433 33.265C53.7994 33.1128 54.4302 33.0014 55.0359 32.9309L55.2414 34.8847C54.8445 34.9269 54.4243 34.9886 53.9807 35.0696C53.5371 35.1507 53.0816 35.2478 52.6143 35.3609C52.764 36.2926 52.7551 37.1294 52.5878 37.8713C52.4181 38.6055 52.0689 39.2718 51.5402 39.8701C51.0168 40.4586 50.2929 41.0063 49.3684 41.5131ZM57.9053 35.1484L56.9099 33.2779C57.2839 33.0505 57.7317 32.8181 58.2531 32.5806C58.7798 32.3331 59.3523 32.0847 59.9704 31.8352C60.5886 31.5858 61.2229 31.3482 61.8734 31.1226C62.5315 30.8947 63.1751 30.6878 63.8042 30.5018C64.395 30.3272 64.9558 30.1781 65.4868 30.0546C66.0178 29.931 66.4921 29.8408 66.9097 29.7842L67.3057 31.8694C66.9418 31.9102 66.5224 31.9883 66.0474 32.1036C65.5778 32.2091 65.0745 32.3412 64.5374 32.4999C63.939 32.6768 63.3222 32.8758 62.6871 33.0969C62.0597 33.3157 61.4445 33.5475 60.8417 33.7924C60.2443 34.0274 59.6925 34.2614 59.1864 34.4944C58.6804 34.7274 58.2533 34.9454 57.9053 35.1484ZM76.5779 33.5708C76.2209 33.3593 75.8132 33.1462 75.3548 32.9313C74.9041 32.7141 74.4278 32.5087 73.9257 32.3151C73.4213 32.1139 72.9239 31.9355 72.4335 31.7802C71.9431 31.6248 71.4885 31.5048 71.0697 31.42L71.8049 29.7137C72.1207 29.7622 72.4749 29.841 72.8677 29.9501C73.2681 30.057 73.682 30.1807 74.1094 30.3213C74.4145 29.9225 74.6782 29.5109 74.9003 29.0866C75.12 28.6546 75.2973 28.2476 75.432 27.8658C75.572 27.4741 75.6689 27.1326 75.7225 26.8415C75.7737 26.5427 75.7807 26.3321 75.7435 26.2096C75.676 25.9877 75.5093 25.8659 75.2436 25.8444C74.9755 25.8152 74.6419 25.8595 74.243 25.9774C73.8594 26.0908 73.4338 26.2583 72.966 26.48C72.496 26.694 72.0084 26.9466 71.5033 27.2377C70.9981 27.5288 70.4977 27.8352 70.0019 28.157C69.506 28.4787 69.0394 28.8001 68.602 29.1213L67.3158 27.4494C68.0305 26.9128 68.7681 26.4237 69.5284 25.982C70.2865 25.5327 71.0454 25.1416 71.8054 24.8085C72.573 24.4732 73.3097 24.2012 74.0155 23.9926C74.3914 23.8815 74.7782 23.7922 75.1757 23.7247C75.571 23.6496 75.9507 23.6333 76.3148 23.6759C76.6766 23.7107 76.9941 23.8338 77.2674 24.045C77.546 24.2462 77.754 24.5726 77.8914 25.0242C78.0031 25.3916 78.0333 25.8206 77.9819 26.3113C77.9305 26.802 77.8135 27.3246 77.631 27.879C77.4561 28.4312 77.2317 28.9856 76.9578 29.542C76.6892 30.0885 76.3937 30.6013 76.0712 31.0804C76.3695 31.2091 76.6564 31.3412 76.9317 31.4767C77.2071 31.6122 77.4609 31.7457 77.6932 31.8772L76.5779 33.5708Z" fill="#E95513"/>
</svg>
