<svg width="375" height="576" viewBox="0 0 375 576" fill="none" xmlns="http://www.w3.org/2000/svg">
<path d="M373.601 171.965C378.329 180.927 367.955 188.467 368.837 201.896C369.764 216.073 382.033 218.593 381.49 231.846C381.186 239.242 376.989 247.647 370.631 250.152C360.178 254.267 346.887 241.257 336.981 231.56C332.197 226.876 328.966 222.76 324.383 216.924C317.202 207.78 313.114 202.573 309.802 194.665C306.533 186.859 303.437 179.476 305.291 171.366C306.772 164.896 313.201 159.672 325.997 149.481C341.218 137.363 345.417 137.183 348.384 137.879C353.102 138.994 358.506 143.241 358.951 148.056C359.58 154.826 349.991 158.004 350.791 165.653C351.108 168.666 353.02 172.195 355.49 172.814C359.638 173.859 362.557 166.01 367.582 166.664C371.045 167.117 373.263 171.32 373.601 171.953L373.601 171.965Z" fill="#E60019"/>
<path d="M75.8306 178.271C79.3298 181.033 79.7709 188.961 77.0484 193.394C73.2941 199.51 65.1808 196.282 58.4252 204.224C56.9297 205.981 54.5407 208.789 54.1187 212.868C53.2177 221.584 62.3884 225.823 61.4982 233.737C61.0348 237.863 57.9702 241.771 54.8581 243.319C43.3384 249.041 23.3165 226.274 11.4754 212.805C-0.889884 198.748 -18.9431 178.219 -13.3803 166.242C-11.9057 163.068 -8.61524 160.167 -5.04358 159.619C5.08899 158.071 13.0667 176.103 17.752 173.832C20.4593 172.52 18.2698 166.262 22.4336 152.857C23.6405 148.971 25.0202 145.648 27.862 142.744C29.315 141.259 32.2234 138.293 36.0571 138.305C40.569 138.317 45.3724 142.457 46.7839 147.376C49.1345 155.582 40.3388 160.069 40.3563 173.622C40.3594 177.874 40.368 183.253 43.4903 185.722C51.228 191.845 68.5248 172.519 75.8267 178.285L75.8306 178.271Z" fill="#0054A7"/>
<path d="M44.8572 95.7332C47.2468 100.546 48.2763 101.038 51.2873 107.038C52.61 109.675 55.1414 114.714 56.1434 118.475C58.8585 128.655 53.29 140.429 48.8081 146.258C37.9302 160.398 14.668 163.909 0.6651 148.897C-12.0177 135.298 -10.6897 113.372 -10.5087 110.892C-10.0404 104.486 -8.34652 99.1245 -7.84981 97.6229C-6.55915 93.7032 -4.30321 86.8024 1.33589 81.1353C9.93425 72.4966 19.9667 72.7674 22.1835 72.8923C26.3021 73.123 34.236 73.5666 38.9146 80.1306C41.9705 84.4177 40.3726 86.7269 44.8513 95.7395L44.8572 95.7332Z" fill="#F7B52C"/>
<path d="M27.4047 101.563C28.2843 101.918 33.5331 104.191 34.9191 111.511C34.9915 111.895 36.3466 119.635 32.0586 125.474C28.262 130.638 23.2568 129.945 22.591 129.836C17.8671 129.071 15.4733 124.453 15.0948 123.691C12.8709 119.231 13.3303 114.517 13.4679 113.256C13.6323 111.741 14.1533 107.004 17.1729 103.704C21.223 99.2804 26.3793 101.147 27.4081 101.562L27.4047 101.563Z" fill="white"/>
<path d="M382.415 68.4996C387.159 94.02 381.896 122.31 374.419 123.574C368.309 124.604 363.914 107.051 355.465 107.417C346.331 107.812 345.019 128.586 337.664 128.601C329.776 128.617 320.066 104.742 317.222 82.8798C313.434 53.7558 319.625 11.2439 337.667 7.19091C355.416 3.20261 376.777 38.1822 382.415 68.4996Z" fill="#E60019"/>
<path d="M359.841 54.5219C361.377 61.177 360.916 70.2873 357.565 72.5594C355.274 74.1088 353.557 71.1801 349.156 72.1091C344.432 73.1035 343.784 77.0306 341.058 76.5158C337.069 75.7611 333.337 66.3681 332.867 58.3668C332.382 50.0575 335.11 38.0236 342.468 36.2034C350.32 34.2619 357.727 45.3516 359.84 54.516L359.841 54.5219Z" fill="white"/>
<mask id="mask0_324_46" style="mask-type:luminance" maskUnits="userSpaceOnUse" x="286" y="70" width="78" height="100">
<path d="M362.879 119.277C363.147 123.834 365.302 160.716 347.358 168.287C331.848 174.833 313.921 154.158 308.098 147.446C307.052 146.242 282.017 116.881 287.108 98.4667C289.419 90.1087 297.806 84.5087 304.12 88.1621C313.6 93.6459 312.994 116.84 322.349 121.418C326.967 123.679 332.674 120.748 334.769 115.438C339.329 103.877 324.791 86.0524 329.128 75.7789C331.687 69.7206 339.654 69.0127 345.376 72.2242C360.324 80.6151 362.77 117.375 362.879 119.277Z" fill="white"/>
</mask>
<g mask="url(#mask0_324_46)">
<mask id="mask1_324_46" style="mask-type:luminance" maskUnits="userSpaceOnUse" x="329" y="-2" width="98" height="136">
<path d="M388.518 -1.26102L329.728 22.3198L367.219 133.795L426.009 110.215L388.518 -1.26102Z" fill="white"/>
</mask>
<g mask="url(#mask1_324_46)">
<path d="M361.413 112.032C364.122 110.944 365.159 106.611 363.729 102.356C362.3 98.0996 358.946 95.5317 356.237 96.62C353.529 97.7083 352.492 102.041 353.921 106.297C355.35 110.553 358.705 113.12 361.413 112.032Z" fill="#F7B52C"/>
<path d="M364.858 85.1647C367.567 84.0765 368.604 79.7441 367.174 75.4882C365.745 71.2322 362.391 68.6643 359.683 69.7526C356.974 70.8409 355.937 75.1733 357.366 79.4292C358.796 83.6851 362.15 86.253 364.858 85.1647Z" fill="#F7B52C"/>
</g>
<mask id="mask2_324_46" style="mask-type:luminance" maskUnits="userSpaceOnUse" x="272" y="20" width="97" height="136">
<path d="M331.473 20.3676L272.683 43.9485L310.174 155.424L368.964 131.843L331.473 20.3676Z" fill="white"/>
</mask>
<g mask="url(#mask2_324_46)">
<path d="M357.966 138.894C360.674 137.806 361.711 133.473 360.282 129.217C358.853 124.961 355.499 122.393 352.79 123.482C350.082 124.57 349.045 128.902 350.474 133.158C351.903 137.414 355.257 139.982 357.966 138.894Z" fill="#F7B52C"/>
<path d="M338.952 146.103C341.661 145.015 342.698 140.682 341.268 136.426C339.839 132.17 336.485 129.603 333.776 130.691C331.068 131.779 330.031 136.111 331.46 140.367C332.89 144.623 336.244 147.191 338.952 146.103Z" fill="#F7B52C"/>
<path d="M319.937 153.313C322.645 152.224 323.682 147.892 322.253 143.636C320.824 139.38 317.469 136.812 314.761 137.901C312.052 138.989 311.015 143.321 312.445 147.577C313.874 151.833 317.228 154.401 319.937 153.313Z" fill="#F7B52C"/>
<path d="M361.411 112.033C364.12 110.944 365.157 106.612 363.727 102.356C362.298 98.1001 358.944 95.5322 356.235 96.6205C353.527 97.7088 352.49 102.041 353.919 106.297C355.348 110.553 358.703 113.121 361.411 112.033Z" fill="#F7B52C"/>
<path d="M342.397 119.242C345.106 118.154 346.143 113.821 344.714 109.566C343.284 105.31 339.93 102.742 337.222 103.83C334.513 104.918 333.476 109.251 334.906 113.507C336.335 117.762 339.689 120.33 342.397 119.242Z" fill="#F7B52C"/>
<path d="M323.384 126.451C326.092 125.363 327.129 121.03 325.7 116.774C324.271 112.519 320.917 109.951 318.208 111.039C315.5 112.127 314.463 116.46 315.892 120.716C317.321 124.971 320.675 127.539 323.384 126.451Z" fill="#F7B52C"/>
<path d="M304.368 133.661C307.077 132.572 308.114 128.24 306.684 123.984C305.255 119.728 301.901 117.16 299.193 118.249C296.484 119.337 295.447 123.669 296.876 127.925C298.306 132.181 301.66 134.749 304.368 133.661Z" fill="#F7B52C"/>
<path d="M345.843 92.3743C348.551 91.286 349.588 86.9537 348.159 82.6978C346.73 78.4418 343.375 75.8739 340.667 76.9622C337.958 78.0505 336.921 82.3829 338.351 86.6388C339.78 90.8947 343.134 93.4626 345.843 92.3743Z" fill="#F7B52C"/>
<path d="M326.827 99.584C329.535 98.4958 330.572 94.1634 329.143 89.9075C327.714 85.6515 324.36 83.0837 321.651 84.1719C318.943 85.2602 317.906 89.5926 319.335 93.8485C320.764 98.1044 324.119 100.672 326.827 99.584Z" fill="#F7B52C"/>
<path d="M307.813 106.793C310.522 105.705 311.559 101.373 310.13 97.1168C308.7 92.8608 305.346 90.2929 302.638 91.3812C299.929 92.4695 298.892 96.8019 300.321 101.058C301.751 105.314 305.105 107.882 307.813 106.793Z" fill="#F7B52C"/>
<path d="M330.274 72.7225C332.983 71.6342 334.02 67.3018 332.591 63.0459C331.161 58.79 327.807 56.2221 325.099 57.3104C322.39 58.3987 321.353 62.731 322.783 66.9869C324.212 71.2429 327.566 73.8108 330.274 72.7225Z" fill="#F7B52C"/>
<path d="M311.259 79.9321C313.967 78.8438 315.004 74.5115 313.575 70.2556C312.146 65.9996 308.792 63.4317 306.083 64.52C303.375 65.6083 302.338 69.9407 303.767 74.1966C305.196 78.4525 308.551 81.0204 311.259 79.9321Z" fill="#F7B52C"/>
<path d="M292.245 87.1414C294.954 86.0531 295.991 81.7208 294.561 77.4649C293.132 73.2089 289.778 70.641 287.07 71.7293C284.361 72.8176 283.324 77.1499 284.753 81.4059C286.183 85.6618 289.537 88.2297 292.245 87.1414Z" fill="#F7B52C"/>
</g>
<mask id="mask3_324_46" style="mask-type:luminance" maskUnits="userSpaceOnUse" x="312" y="133" width="97" height="136">
<path d="M371.286 133.045L312.496 156.626L349.986 268.102L408.776 244.521L371.286 133.045Z" fill="white"/>
</mask>
<g mask="url(#mask3_324_46)">
<path d="M370.086 185.407C372.795 184.318 373.832 179.986 372.403 175.73C370.973 171.474 367.619 168.906 364.911 169.995C362.202 171.083 361.165 175.415 362.595 179.671C364.024 183.927 367.378 186.495 370.086 185.407Z" fill="#F7B52C"/>
<path d="M354.518 165.755C357.227 164.666 358.264 160.334 356.834 156.078C355.405 151.822 352.051 149.254 349.342 150.343C346.634 151.431 345.597 155.763 347.026 160.019C348.455 164.275 351.81 166.843 354.518 165.755Z" fill="#F7B52C"/>
<path d="M335.502 172.964C338.211 171.876 339.248 167.544 337.819 163.288C336.389 159.032 333.035 156.464 330.327 157.552C327.618 158.64 326.581 162.973 328.011 167.229C329.44 171.485 332.794 174.053 335.502 172.964Z" fill="#F7B52C"/>
<path d="M316.489 180.174C319.198 179.085 320.235 174.753 318.805 170.497C317.376 166.241 314.022 163.673 311.314 164.762C308.605 165.85 307.568 170.182 308.997 174.438C310.427 178.694 313.781 181.262 316.489 180.174Z" fill="#F7B52C"/>
<path d="M357.963 138.894C360.672 137.805 361.709 133.473 360.28 129.217C358.85 124.961 355.496 122.393 352.788 123.482C350.079 124.57 349.042 128.902 350.472 133.158C351.901 137.414 355.255 139.982 357.963 138.894Z" fill="#F7B52C"/>
<path d="M338.948 146.103C341.656 145.015 342.693 140.683 341.264 136.427C339.835 132.171 336.481 129.603 333.772 130.691C331.064 131.779 330.027 136.112 331.456 140.368C332.885 144.624 336.239 147.191 338.948 146.103Z" fill="#F7B52C"/>
<path d="M319.934 153.312C322.643 152.224 323.68 147.892 322.25 143.636C320.821 139.38 317.467 136.812 314.758 137.9C312.05 138.989 311.013 143.321 312.442 147.577C313.871 151.833 317.226 154.401 319.934 153.312Z" fill="#F7B52C"/>
</g>
<mask id="mask4_324_46" style="mask-type:luminance" maskUnits="userSpaceOnUse" x="215" y="41" width="97" height="137">
<path d="M274.43 41.9957L215.64 65.5765L253.131 177.052L311.921 153.471L274.43 41.9957Z" fill="white"/>
</mask>
<g mask="url(#mask4_324_46)">
<path d="M300.923 160.522C303.631 159.434 304.668 155.101 303.239 150.846C301.81 146.59 298.456 144.022 295.747 145.11C293.039 146.198 292.002 150.531 293.431 154.787C294.86 159.042 298.215 161.61 300.923 160.522Z" fill="#F7B52C"/>
<path d="M281.909 167.731C284.618 166.643 285.655 162.311 284.225 158.055C282.796 153.799 279.442 151.231 276.733 152.319C274.025 153.407 272.988 157.74 274.417 161.996C275.846 166.252 279.201 168.819 281.909 167.731Z" fill="#F7B52C"/>
<path d="M304.368 133.66C307.077 132.572 308.114 128.24 306.684 123.984C305.255 119.728 301.901 117.16 299.192 118.248C296.484 119.337 295.447 123.669 296.876 127.925C298.305 132.181 301.66 134.749 304.368 133.66Z" fill="#F7B52C"/>
<path d="M285.355 140.87C288.063 139.782 289.1 135.45 287.671 131.194C286.242 126.938 282.887 124.37 280.179 125.458C277.471 126.546 276.434 130.879 277.863 135.135C279.292 139.391 282.646 141.959 285.355 140.87Z" fill="#F7B52C"/>
<path d="M288.8 114.002C291.508 112.914 292.545 108.582 291.116 104.326C289.687 100.07 286.333 97.5021 283.624 98.5903C280.916 99.6786 279.879 104.011 281.308 108.267C282.737 112.523 286.092 115.091 288.8 114.002Z" fill="#F7B52C"/>
<path d="M292.245 87.1411C294.953 86.0528 295.99 81.7204 294.561 77.4645C293.132 73.2086 289.778 70.6407 287.069 71.7289C284.361 72.8172 283.324 77.1496 284.753 81.4055C286.182 85.6615 289.537 88.2293 292.245 87.1411Z" fill="#F7B52C"/>
</g>
<mask id="mask5_324_46" style="mask-type:luminance" maskUnits="userSpaceOnUse" x="255" y="154" width="97" height="136">
<path d="M314.243 154.673L255.453 178.254L292.943 289.73L351.733 266.149L314.243 154.673Z" fill="white"/>
</mask>
<g mask="url(#mask5_324_46)">
<path d="M316.491 180.174C319.2 179.085 320.237 174.753 318.807 170.497C317.378 166.241 314.024 163.673 311.315 164.761C308.607 165.85 307.57 170.182 308.999 174.438C310.428 178.694 313.783 181.262 316.491 180.174Z" fill="#F7B52C"/>
<path d="M300.923 160.522C303.631 159.433 304.668 155.101 303.239 150.845C301.81 146.589 298.456 144.021 295.747 145.11C293.039 146.198 292.002 150.53 293.431 154.786C294.86 159.042 298.214 161.61 300.923 160.522Z" fill="#F7B52C"/>
<path d="M281.907 167.731C284.616 166.643 285.653 162.311 284.223 158.055C282.794 153.799 279.44 151.231 276.731 152.319C274.023 153.407 272.986 157.74 274.415 161.996C275.844 166.252 279.199 168.819 281.907 167.731Z" fill="#F7B52C"/>
</g>
</g>
<path d="M347.841 169.104C332.622 174.874 314.696 154.017 308.772 147.125C308.705 147.045 301.784 138.966 295.718 128.718C292.307 122.958 289.796 117.597 288.249 112.78C286.326 106.788 285.894 101.611 286.971 97.3977C288.007 93.3482 290.479 89.8604 293.755 87.8432C297.094 85.7814 300.723 85.6312 303.713 87.4286C308.477 90.2936 310.847 97.575 313.141 104.617C315.518 111.917 317.765 118.815 322.442 121.213C326.921 123.517 332.601 120.856 334.593 115.521C336.776 109.691 334.004 102.076 331.326 94.7069C328.695 87.468 326.205 80.6269 328.231 75.5961C329.36 72.7866 331.779 70.9676 335.042 70.4631C338.055 69.9969 341.447 70.6979 344.339 72.3913C347.781 74.4051 350.875 78.0723 353.532 83.3C355.674 87.5047 357.543 92.7353 359.087 98.8364C361.838 109.7 362.628 119.673 362.663 120.09C363.416 129.873 364.601 162.299 348.188 168.973C348.073 169.016 347.956 169.061 347.841 169.104ZM295.839 86.9899C295.158 87.248 294.482 87.5817 293.818 87.9957C290.61 89.973 288.088 93.5288 287.074 97.4926C286.005 101.667 286.431 106.804 288.345 112.758C289.885 117.557 292.392 122.905 295.79 128.641C301.85 138.871 308.755 146.941 308.826 147.02C314.733 153.89 332.627 174.704 347.789 168.955C347.903 168.912 348.017 168.868 348.131 168.825C364.487 162.172 363.308 129.822 362.556 120.067C362.525 119.649 361.734 109.698 358.989 98.8524C357.448 92.7713 355.585 87.5594 353.454 83.3719C350.813 78.18 347.742 74.5395 344.328 72.5434C341.454 70.8643 338.084 70.1623 335.088 70.629C331.85 71.131 329.451 72.9352 328.332 75.7126C326.333 80.684 328.808 87.4817 331.426 94.6832C334.12 102.088 336.904 109.748 334.7 115.643C333.748 118.195 331.876 120.293 329.569 121.393C327.202 122.53 324.667 122.519 322.439 121.376C317.699 118.946 315.336 111.683 313.048 104.66C310.767 97.6545 308.413 90.4166 303.704 87.5869C301.337 86.1594 298.558 85.9728 295.843 87.0024L295.839 86.9899Z" fill="#F7B52C"/>
<path d="M111.553 488.163C114.98 497.699 103.654 503.713 102.647 517.133C101.581 531.3 113.377 535.512 110.984 548.558C109.647 555.84 104.316 563.574 97.6701 565.165C86.7435 567.776 75.4042 553.034 66.9528 542.046C62.8721 536.739 60.2491 532.212 56.5279 525.791C50.6971 515.732 47.378 510.004 45.2056 501.711C43.0607 493.525 41.0286 485.78 43.9999 478.01C46.3709 471.811 53.4677 467.538 67.5644 459.239C84.3312 449.37 88.5151 449.779 91.355 450.884C95.8708 452.648 100.627 457.609 100.394 462.439C100.069 469.23 90.1298 471.036 89.8516 478.721C89.7437 481.748 91.1422 485.51 93.5013 486.469C97.4627 488.084 101.451 480.721 106.336 482.072C109.701 483.005 111.309 487.477 111.555 488.152L111.553 488.163Z" fill="#F7E92C"/>
<path d="M191.369 477.168C195.295 479.279 197.108 487.01 195.197 491.849C192.564 498.525 184.013 496.756 178.74 505.752C177.573 507.742 175.709 510.922 176.002 515.013C176.63 523.753 186.398 526.333 186.898 534.282C187.158 538.425 184.82 542.806 182.024 544.872C171.675 552.509 148 533.569 133.997 522.365C119.377 510.671 98.0295 493.593 101.425 480.832C102.326 477.449 105.062 474.02 108.484 472.86C118.193 469.574 129.184 485.945 133.403 482.893C135.841 481.131 132.597 475.349 134.367 461.425C134.88 457.387 135.661 453.876 137.954 450.521C139.127 448.806 141.476 445.38 145.253 444.726C149.698 443.953 155.148 447.194 157.394 451.794C161.135 459.466 153.253 465.414 155.627 478.757C156.369 482.944 157.312 488.24 160.817 490.128C169.501 494.812 183.175 472.774 191.367 477.182L191.369 477.168Z" fill="#0054A7"/>
<path d="M342.616 353.895C340.142 350.541 320.136 323.386 330.21 308.009C338.915 294.716 363.025 301.022 370.855 303.069C372.26 303.435 406.172 312.618 411.404 329.463C413.779 337.109 410.096 345.879 403.409 346.442C393.37 347.288 382.301 329.166 372.809 330.641C368.123 331.369 365.18 336.66 366.204 341.853C368.438 353.156 388.515 359.083 390.281 369.279C391.32 375.293 385.528 380.084 379.518 380.67C363.815 382.202 343.645 355.297 342.616 353.895Z" fill="#E60019"/>
<path d="M250.858 477.733C253.247 482.545 254.277 483.038 257.288 489.037C258.61 491.674 261.142 496.714 262.144 500.475C264.859 510.655 259.29 522.429 254.808 528.258C243.931 542.398 220.668 545.909 206.665 530.897C193.983 517.298 195.311 495.371 195.492 492.892C195.96 486.485 197.654 481.124 198.151 479.623C199.441 475.703 201.697 468.802 207.336 463.135C215.935 454.496 225.967 454.767 228.184 454.892C232.302 455.123 240.236 455.566 244.915 462.13C247.971 466.417 246.373 468.727 250.852 477.739L250.858 477.733Z" fill="#D5F72C"/>
<path d="M238.199 484.563C239.078 484.918 244.327 487.19 245.713 494.51C245.786 494.895 247.141 502.635 242.853 508.473C239.056 513.638 234.051 512.945 233.385 512.836C228.661 512.071 226.267 507.452 225.889 506.69C223.665 502.23 224.125 497.517 224.262 496.256C224.427 494.741 224.948 490.004 227.967 486.704C232.017 482.28 237.173 484.147 238.202 484.562L238.199 484.563Z" fill="white"/>
<path d="M370.971 471.1C387.457 491.15 396.52 518.461 390.585 523.181C385.734 527.035 373.404 513.792 366.184 518.195C358.378 522.955 367.268 541.776 360.837 545.343C353.938 549.169 333.9 532.959 320.845 515.194C303.454 491.527 288.331 451.317 302.168 439.049C315.779 426.981 351.384 447.282 370.971 471.1Z" fill="#E60019"/>
<path d="M354.722 489.233C359.283 494.317 363.281 502.516 361.445 506.125C360.189 508.588 357.27 506.854 353.866 509.794C350.211 512.948 351.541 516.699 348.906 517.566C345.048 518.833 337.243 512.412 332.964 505.635C328.524 498.595 325.097 486.741 330.659 481.592C336.595 476.097 348.439 482.227 354.718 489.229L354.722 489.233Z" fill="white"/>
<path d="M53.7294 305.142C70.7446 320.001 81.23 342.276 75.9332 347.264C71.6038 351.338 58.9994 341.742 52.4626 346.652C45.3961 351.958 55.128 366.907 49.2808 370.972C43.0091 375.333 22.894 364.338 9.2887 350.936C-8.8349 333.082 -25.959 300.558 -13.6984 287.834C-1.63769 275.317 33.5132 287.491 53.7294 305.142Z" fill="#F7B52C"/>
<path d="M28.6128 307.901C33.289 311.609 37.6482 318.098 36.1574 321.501C35.1373 323.823 32.2499 322.766 29.227 325.828C25.9805 329.112 27.5018 332.157 25.0632 333.308C21.4942 334.99 13.6495 330.619 9.12371 325.402C4.4263 319.983 0.355831 310.243 5.27193 304.941C10.5186 299.284 22.1714 302.79 28.6089 307.897L28.6128 307.901Z" fill="white"/>
<mask id="mask6_324_46" style="mask-type:luminance" maskUnits="userSpaceOnUse" x="257" y="447" width="69" height="92">
<path d="M324.272 496.547C323.76 500.724 319.601 534.527 302.074 538.418C286.925 541.784 274.095 520.064 269.927 513.012C269.178 511.747 251.341 480.972 259.01 465.118C262.491 457.922 271.024 454.233 276.145 458.593C283.833 465.137 279.439 486.07 287.164 491.772C290.977 494.587 296.637 492.875 299.418 488.407C305.469 478.679 295.24 460.106 300.875 451.508C304.2 446.439 311.542 447.117 316.198 450.978C328.363 461.064 324.489 494.804 324.272 496.547Z" fill="white"/>
</mask>
<g mask="url(#mask6_324_46)">
<mask id="mask7_324_46" style="mask-type:luminance" maskUnits="userSpaceOnUse" x="310" y="391" width="74" height="120">
<path d="M367.5 391.49L310.28 403.13L325.801 510.432L383.021 498.792L367.5 391.49Z" fill="white"/>
</mask>
<g mask="url(#mask7_324_46)">
<path d="M324.142 489.734C326.778 489.196 328.437 485.439 327.846 481.343C327.255 477.247 324.639 474.362 322.003 474.9C319.366 475.438 317.708 479.195 318.299 483.291C318.889 487.388 321.505 490.272 324.142 489.734Z" fill="#F7B52C"/>
<path d="M331.718 465.941C334.355 465.403 336.013 461.646 335.422 457.55C334.832 453.454 332.216 450.569 329.579 451.107C326.943 451.645 325.284 455.402 325.875 459.498C326.466 463.595 329.082 466.479 331.718 465.941Z" fill="#F7B52C"/>
</g>
<mask id="mask8_324_46" style="mask-type:luminance" maskUnits="userSpaceOnUse" x="254" y="401" width="74" height="120">
<path d="M312.185 401.648L254.965 413.288L270.487 520.59L327.707 508.95L312.185 401.648Z" fill="white"/>
</mask>
<g mask="url(#mask8_324_46)">
<path d="M316.563 513.522C319.2 512.984 320.858 509.227 320.268 505.131C319.677 501.034 317.061 498.15 314.424 498.688C311.788 499.226 310.13 502.983 310.72 507.079C311.311 511.175 313.927 514.06 316.563 513.522Z" fill="#F7B52C"/>
<path d="M298.127 516.908C300.763 516.37 302.422 512.613 301.831 508.517C301.24 504.42 298.624 501.536 295.988 502.074C293.351 502.612 291.693 506.369 292.284 510.465C292.874 514.561 295.49 517.446 298.127 516.908Z" fill="#F7B52C"/>
<path d="M279.688 520.294C282.325 519.756 283.983 515.999 283.392 511.903C282.802 507.807 280.186 504.922 277.549 505.46C274.913 505.998 273.254 509.755 273.845 513.851C274.436 517.947 277.052 520.832 279.688 520.294Z" fill="#F7B52C"/>
<path d="M324.14 489.734C326.776 489.196 328.435 485.44 327.844 481.343C327.253 477.247 324.637 474.363 322.001 474.901C319.364 475.439 317.706 479.195 318.297 483.292C318.887 487.388 321.503 490.272 324.14 489.734Z" fill="#F7B52C"/>
<path d="M305.703 493.121C308.34 492.583 309.998 488.826 309.407 484.73C308.817 480.633 306.201 477.749 303.564 478.287C300.928 478.825 299.269 482.582 299.86 486.678C300.451 490.774 303.067 493.659 305.703 493.121Z" fill="#F7B52C"/>
<path d="M287.266 496.507C289.903 495.969 291.561 492.212 290.97 488.116C290.38 484.019 287.764 481.135 285.127 481.673C282.491 482.211 280.832 485.968 281.423 490.064C282.014 494.16 284.63 497.045 287.266 496.507Z" fill="#F7B52C"/>
<path d="M268.828 499.893C271.464 499.355 273.122 495.598 272.532 491.502C271.941 487.406 269.325 484.521 266.689 485.059C264.052 485.597 262.394 489.354 262.984 493.45C263.575 497.546 266.191 500.431 268.828 499.893Z" fill="#F7B52C"/>
<path d="M313.279 469.327C315.916 468.789 317.574 465.033 316.984 460.936C316.393 456.84 313.777 453.956 311.14 454.494C308.504 455.032 306.846 458.788 307.436 462.885C308.027 466.981 310.643 469.865 313.279 469.327Z" fill="#F7B52C"/>
<path d="M294.841 472.714C297.477 472.176 299.136 468.419 298.545 464.323C297.954 460.226 295.338 457.342 292.702 457.88C290.065 458.418 288.407 462.175 288.998 466.271C289.588 470.367 292.204 473.252 294.841 472.714Z" fill="#F7B52C"/>
<path d="M276.404 476.1C279.04 475.562 280.699 471.805 280.108 467.709C279.518 463.613 276.901 460.728 274.265 461.266C271.629 461.804 269.97 465.561 270.561 469.657C271.152 473.753 273.768 476.638 276.404 476.1Z" fill="#F7B52C"/>
<path d="M302.419 448.926C305.056 448.388 306.714 444.632 306.123 440.535C305.533 436.439 302.916 433.555 300.28 434.093C297.644 434.631 295.985 438.387 296.576 442.484C297.167 446.58 299.783 449.464 302.419 448.926Z" fill="#F7B52C"/>
<path d="M283.98 452.313C286.617 451.775 288.275 448.018 287.685 443.922C287.094 439.825 284.478 436.941 281.841 437.479C279.205 438.017 277.547 441.774 278.137 445.87C278.728 449.966 281.344 452.851 283.98 452.313Z" fill="#F7B52C"/>
<path d="M265.544 455.699C268.18 455.161 269.838 451.404 269.248 447.308C268.657 443.212 266.041 440.327 263.405 440.865C260.768 441.403 259.11 445.16 259.7 449.256C260.291 453.352 262.907 456.237 265.544 455.699Z" fill="#F7B52C"/>
</g>
<mask id="mask9_324_46" style="mask-type:luminance" maskUnits="userSpaceOnUse" x="272" y="510" width="74" height="120">
<path d="M329.614 510.425L272.394 522.065L287.916 629.367L345.136 617.727L329.614 510.425Z" fill="white"/>
</mask>
<g mask="url(#mask9_324_46)">
<path d="M327.424 533.922C330.061 533.384 331.719 529.628 331.128 525.531C330.538 521.435 327.921 518.551 325.285 519.089C322.649 519.626 320.99 523.383 321.581 527.48C322.172 531.576 324.788 534.46 327.424 533.922Z" fill="#F7B52C"/>
<path d="M308.987 537.308C311.624 536.77 313.282 533.014 312.691 528.917C312.101 524.821 309.485 521.937 306.848 522.474C304.212 523.012 302.553 526.769 303.144 530.866C303.735 534.962 306.351 537.846 308.987 537.308Z" fill="#F7B52C"/>
<path d="M290.549 540.695C293.185 540.157 294.844 536.4 294.253 532.304C293.662 528.207 291.046 525.323 288.41 525.861C285.773 526.399 284.115 530.155 284.706 534.252C285.296 538.348 287.912 541.233 290.549 540.695Z" fill="#F7B52C"/>
<path d="M272.112 544.081C274.748 543.543 276.407 539.786 275.816 535.69C275.225 531.594 272.609 528.709 269.973 529.247C267.336 529.785 265.678 533.542 266.269 537.638C266.859 541.735 269.475 544.619 272.112 544.081Z" fill="#F7B52C"/>
<path d="M316.564 513.521C319.2 512.983 320.859 509.226 320.268 505.13C319.677 501.034 317.061 498.149 314.425 498.687C311.788 499.225 310.13 502.982 310.721 507.078C311.311 511.175 313.927 514.059 316.564 513.521Z" fill="#F7B52C"/>
<path d="M298.125 516.907C300.761 516.369 302.42 512.613 301.829 508.516C301.238 504.42 298.622 501.536 295.986 502.073C293.35 502.611 291.691 506.368 292.282 510.465C292.872 514.561 295.489 517.445 298.125 516.907Z" fill="#F7B52C"/>
<path d="M279.688 520.294C282.325 519.756 283.983 515.999 283.392 511.903C282.802 507.806 280.186 504.922 277.549 505.46C274.913 505.998 273.254 509.755 273.845 513.851C274.436 517.947 277.052 520.832 279.688 520.294Z" fill="#F7B52C"/>
</g>
<mask id="mask10_324_46" style="mask-type:luminance" maskUnits="userSpaceOnUse" x="199" y="411" width="74" height="120">
<path d="M256.873 411.807L199.653 423.447L215.174 530.749L272.395 519.109L256.873 411.807Z" fill="white"/>
</mask>
<g mask="url(#mask10_324_46)">
<path d="M261.251 523.68C263.887 523.142 265.546 519.386 264.955 515.289C264.364 511.193 261.748 508.309 259.112 508.847C256.475 509.385 254.817 513.141 255.408 517.238C255.998 521.334 258.614 524.218 261.251 523.68Z" fill="#F7B52C"/>
<path d="M268.827 499.893C271.464 499.355 273.122 495.598 272.531 491.502C271.941 487.406 269.325 484.521 266.688 485.059C264.052 485.597 262.393 489.354 262.984 493.45C263.575 497.546 266.191 500.431 268.827 499.893Z" fill="#F7B52C"/>
<path d="M257.967 479.486C260.603 478.948 262.262 475.191 261.671 471.095C261.08 466.999 258.464 464.114 255.828 464.652C253.191 465.19 251.533 468.947 252.124 473.043C252.714 477.139 255.33 480.024 257.967 479.486Z" fill="#F7B52C"/>
<path d="M265.543 455.699C268.18 455.161 269.838 451.404 269.247 447.308C268.657 443.212 266.04 440.327 263.404 440.865C260.768 441.403 259.109 445.16 259.7 449.256C260.291 453.352 262.907 456.237 265.543 455.699Z" fill="#F7B52C"/>
</g>
<mask id="mask11_324_46" style="mask-type:luminance" maskUnits="userSpaceOnUse" x="217" y="520" width="73" height="120">
<path d="M274.301 520.584L217.081 532.224L232.603 639.526L289.823 627.886L274.301 520.584Z" fill="white"/>
</mask>
<g mask="url(#mask11_324_46)">
<path d="M272.111 544.081C274.748 543.543 276.406 539.786 275.816 535.69C275.225 531.594 272.609 528.709 269.972 529.247C267.336 529.785 265.678 533.542 266.268 537.638C266.859 541.735 269.475 544.619 272.111 544.081Z" fill="#F7B52C"/>
<path d="M253.673 547.467C256.309 546.929 257.968 543.172 257.377 539.076C256.786 534.98 254.17 532.095 251.534 532.633C248.897 533.171 247.239 536.928 247.83 541.024C248.42 545.121 251.036 548.005 253.673 547.467Z" fill="#F7B52C"/>
<path d="M261.251 523.68C263.887 523.142 265.546 519.385 264.955 515.289C264.364 511.193 261.748 508.308 259.112 508.846C256.476 509.384 254.817 513.141 255.408 517.237C255.998 521.334 258.615 524.218 261.251 523.68Z" fill="#F7B52C"/>
</g>
</g>
<path d="M302.375 539.238C287.618 541.949 274.819 520.064 270.589 512.832C270.541 512.748 265.604 504.276 261.802 493.977C259.664 488.189 258.275 482.911 257.671 478.286C256.92 472.533 257.386 467.767 259.061 464.125C260.672 460.625 263.492 457.872 266.797 456.586C270.166 455.269 273.482 455.735 275.895 457.86C279.74 461.248 280.683 468.243 281.596 475.01C282.541 482.023 283.436 488.651 287.28 491.601C290.96 494.432 296.551 492.961 299.241 488.453C302.188 483.528 300.936 476.163 299.729 469.037C298.543 462.036 297.419 455.42 300.089 451.194C301.579 448.833 304.074 447.584 307.117 447.668C309.927 447.744 312.886 448.942 315.228 450.957C318.015 453.354 320.213 457.192 321.757 462.373C323.001 466.541 323.83 471.594 324.218 477.382C324.913 487.69 323.976 496.865 323.939 497.248C323 506.244 318.701 535.845 302.711 539.177C302.6 539.197 302.486 539.218 302.375 539.238ZM268.827 456.157C268.167 456.278 267.499 456.469 266.828 456.734C263.591 457.996 260.715 460.802 259.139 464.229C257.477 467.837 257.012 472.566 257.761 478.282C258.363 482.889 259.749 488.154 261.88 493.919C265.679 504.2 270.604 512.663 270.655 512.746C274.873 519.955 287.65 541.795 302.352 539.095C302.463 539.074 302.573 539.054 302.684 539.034C318.619 535.712 322.91 506.18 323.846 497.21C323.887 496.826 324.819 487.67 324.127 477.381C323.738 471.611 322.912 466.576 321.674 462.425C320.14 457.28 317.958 453.469 315.193 451.093C312.865 449.094 309.925 447.899 307.131 447.826C304.111 447.744 301.637 448.983 300.162 451.316C297.525 455.493 298.643 462.067 299.823 469.032C301.039 476.193 302.294 483.601 299.319 488.581C298.032 490.737 295.987 492.329 293.713 492.945C291.378 493.583 289.081 493.153 287.25 491.748C283.355 488.759 282.415 481.781 281.505 475.033C280.597 468.302 279.662 461.348 275.861 458.002C273.951 456.315 271.462 455.686 268.829 456.169L268.827 456.157Z" fill="#F7B52C"/>
<mask id="mask12_324_46" style="mask-type:luminance" maskUnits="userSpaceOnUse" x="322" y="366" width="77" height="95">
<path d="M393.638 412.928C399.579 417.173 399.641 429.301 397.328 437.001C393.196 450.751 378.438 460.495 365.049 460.899C342.421 461.583 330.666 435.375 328.469 430.478C327.415 428.124 314.775 398.931 329.207 381.142C335.537 373.337 344.822 370.506 351.565 368.448C357.302 366.698 365.043 364.452 373.168 367.623C375.683 368.603 380.104 370.402 382.713 375.155C385.942 381.039 384.339 387.7 384.097 388.653C382.721 394.045 379.995 394.771 379.964 399.072C379.929 403.805 383.198 407.194 383.953 407.976C387.52 411.673 390.623 410.785 393.635 412.937L393.638 412.928Z" fill="white"/>
</mask>
<g mask="url(#mask12_324_46)">
<mask id="mask13_324_46" style="mask-type:luminance" maskUnits="userSpaceOnUse" x="345" y="316" width="80" height="86">
<path d="M414.161 316.315L345.073 331.2L355.691 401.937L424.78 387.052L414.161 316.315Z" fill="white"/>
</mask>
<g mask="url(#mask13_324_46)">
<path d="M374.385 396.506C377.194 395.901 379.12 393.079 378.688 390.201C378.256 387.324 375.628 385.481 372.819 386.086C370.01 386.69 368.083 389.513 368.516 392.39C368.948 395.268 371.576 397.11 374.385 396.506Z" fill="#0054A7"/>
<path d="M360.883 399.105C363.692 398.501 365.619 395.678 365.186 392.801C364.754 389.923 362.126 388.081 359.317 388.685C356.508 389.29 354.581 392.113 355.014 394.99C355.446 397.867 358.074 399.71 360.883 399.105Z" fill="#0054A7"/>
<path d="M380.049 380.422C382.858 379.817 384.785 376.994 384.352 374.117C383.92 371.24 381.292 369.397 378.483 370.002C375.674 370.606 373.747 373.429 374.18 376.306C374.612 379.184 377.24 381.026 380.049 380.422Z" fill="#0054A7"/>
<path d="M366.547 383.021C369.356 382.417 371.283 379.594 370.85 376.717C370.418 373.839 367.79 371.997 364.981 372.601C362.172 373.206 360.246 376.028 360.678 378.906C361.11 381.783 363.738 383.626 366.547 383.021Z" fill="#0054A7"/>
<path d="M353.047 385.621C355.856 385.016 357.783 382.194 357.35 379.316C356.918 376.439 354.29 374.596 351.481 375.201C348.672 375.805 346.745 378.628 347.178 381.505C347.61 384.383 350.238 386.225 353.047 385.621Z" fill="#0054A7"/>
<path d="M372.205 366.934C375.014 366.329 376.941 363.507 376.508 360.629C376.076 357.752 373.448 355.909 370.639 356.514C367.83 357.118 365.904 359.941 366.336 362.818C366.768 365.696 369.396 367.538 372.205 366.934Z" fill="#0054A7"/>
<path d="M358.705 369.533C361.514 368.929 363.441 366.106 363.008 363.229C362.576 360.351 359.948 358.509 357.139 359.113C354.33 359.718 352.404 362.541 352.836 365.418C353.268 368.295 355.896 370.138 358.705 369.533Z" fill="#0054A7"/>
</g>
<mask id="mask14_324_46" style="mask-type:luminance" maskUnits="userSpaceOnUse" x="357" y="388" width="80" height="87">
<path d="M426.361 388.938L357.272 403.823L367.891 474.56L436.98 459.675L426.361 388.938Z" fill="white"/>
</mask>
<g mask="url(#mask14_324_46)">
<path d="M373.082 471.724C375.891 471.12 377.818 468.297 377.386 465.419C376.953 462.542 374.325 460.7 371.516 461.304C368.707 461.909 366.781 464.731 367.213 467.609C367.646 470.486 370.273 472.329 373.082 471.724Z" fill="#0054A7"/>
<path d="M378.746 455.64C381.555 455.036 383.482 452.213 383.049 449.336C382.617 446.458 379.989 444.616 377.18 445.22C374.371 445.825 372.445 448.647 372.877 451.525C373.31 454.402 375.937 456.245 378.746 455.64Z" fill="#0054A7"/>
<path d="M365.244 458.24C368.053 457.635 369.98 454.813 369.548 451.935C369.115 449.058 366.487 447.215 363.678 447.82C360.869 448.424 358.943 451.247 359.375 454.124C359.808 457.002 362.435 458.844 365.244 458.24Z" fill="#0054A7"/>
<path d="M370.904 442.157C373.714 441.552 375.64 438.729 375.208 435.852C374.775 432.974 372.148 431.132 369.339 431.736C366.529 432.341 364.603 435.164 365.035 438.041C365.468 440.919 368.095 442.761 370.904 442.157Z" fill="#0054A7"/>
<path d="M376.569 426.073C379.378 425.468 381.304 422.645 380.872 419.768C380.439 416.89 377.812 415.048 375.003 415.652C372.194 416.257 370.267 419.08 370.699 421.957C371.132 424.835 373.76 426.677 376.569 426.073Z" fill="#0054A7"/>
<path d="M363.063 428.673C365.872 428.068 367.798 425.246 367.366 422.368C366.933 419.491 364.306 417.648 361.497 418.253C358.688 418.857 356.761 421.68 357.193 424.557C357.626 427.435 360.254 429.277 363.063 428.673Z" fill="#0054A7"/>
<path d="M368.727 412.589C371.536 411.984 373.462 409.162 373.03 406.284C372.598 403.407 369.97 401.564 367.161 402.169C364.352 402.773 362.425 405.596 362.858 408.473C363.29 411.351 365.918 413.193 368.727 412.589Z" fill="#0054A7"/>
<path d="M355.225 415.188C358.034 414.584 359.961 411.761 359.528 408.884C359.096 406.006 356.468 404.164 353.659 404.768C350.85 405.373 348.923 408.196 349.356 411.073C349.788 413.95 352.416 415.793 355.225 415.188Z" fill="#0054A7"/>
</g>
<mask id="mask15_324_46" style="mask-type:luminance" maskUnits="userSpaceOnUse" x="277" y="329" width="81" height="86">
<path d="M346.652 329.313L277.563 344.199L288.182 414.936L357.271 400.05L346.652 329.313Z" fill="white"/>
</mask>
<g mask="url(#mask15_324_46)">
<path d="M360.883 399.105C363.692 398.501 365.619 395.678 365.186 392.8C364.754 389.923 362.126 388.08 359.317 388.685C356.508 389.29 354.581 392.112 355.014 394.99C355.446 397.867 358.074 399.71 360.883 399.105Z" fill="#0054A7"/>
<path d="M347.383 401.705C350.192 401.1 352.119 398.278 351.686 395.4C351.254 392.523 348.626 390.68 345.817 391.285C343.008 391.889 341.081 394.712 341.514 397.589C341.946 400.467 344.574 402.309 347.383 401.705Z" fill="#0054A7"/>
<path d="M333.881 404.304C336.69 403.7 338.617 400.877 338.184 398C337.752 395.122 335.124 393.28 332.315 393.884C329.506 394.489 327.579 397.311 328.012 400.189C328.444 403.066 331.072 404.909 333.881 404.304Z" fill="#0054A7"/>
<path d="M320.381 406.904C323.19 406.299 325.117 403.477 324.684 400.599C324.252 397.722 321.624 395.879 318.815 396.484C316.006 397.088 314.079 399.911 314.512 402.789C314.944 405.666 317.572 407.509 320.381 406.904Z" fill="#0054A7"/>
<path d="M353.045 385.621C355.854 385.016 357.781 382.194 357.348 379.316C356.916 376.439 354.288 374.596 351.479 375.201C348.67 375.805 346.743 378.628 347.176 381.505C347.608 384.383 350.236 386.225 353.045 385.621Z" fill="#0054A7"/>
<path d="M339.545 388.22C342.354 387.616 344.281 384.793 343.848 381.916C343.416 379.038 340.788 377.196 337.979 377.8C335.17 378.405 333.243 381.228 333.676 384.105C334.108 386.982 336.736 388.825 339.545 388.22Z" fill="#0054A7"/>
<path d="M326.039 390.821C328.848 390.216 330.775 387.393 330.342 384.516C329.91 381.639 327.282 379.796 324.473 380.401C321.664 381.005 319.738 383.828 320.17 386.705C320.602 389.583 323.23 391.425 326.039 390.821Z" fill="#0054A7"/>
<path d="M345.203 372.133C348.012 371.528 349.939 368.706 349.506 365.828C349.074 362.951 346.446 361.108 343.637 361.713C340.828 362.317 338.902 365.14 339.334 368.017C339.766 370.895 342.394 372.737 345.203 372.133Z" fill="#0054A7"/>
<path d="M331.701 374.732C334.51 374.128 336.437 371.305 336.004 368.428C335.572 365.55 332.944 363.708 330.135 364.312C327.326 364.917 325.4 367.74 325.832 370.617C326.264 373.494 328.892 375.337 331.701 374.732Z" fill="#0054A7"/>
<path d="M318.201 377.332C321.01 376.728 322.937 373.905 322.504 371.027C322.072 368.15 319.444 366.307 316.635 366.912C313.826 367.517 311.9 370.339 312.332 373.217C312.764 376.094 315.392 377.937 318.201 377.332Z" fill="#0054A7"/>
</g>
<mask id="mask16_324_46" style="mask-type:luminance" maskUnits="userSpaceOnUse" x="289" y="401" width="81" height="87">
<path d="M358.851 401.937L289.762 416.822L300.381 487.559L369.47 472.674L358.851 401.937Z" fill="white"/>
</mask>
<g mask="url(#mask16_324_46)">
<path d="M373.082 471.724C375.891 471.12 377.818 468.297 377.385 465.42C376.953 462.542 374.325 460.7 371.516 461.304C368.707 461.909 366.781 464.731 367.213 467.609C367.645 470.486 370.273 472.329 373.082 471.724Z" fill="#0054A7"/>
<path d="M365.244 458.24C368.053 457.635 369.98 454.813 369.548 451.935C369.115 449.058 366.487 447.215 363.678 447.82C360.869 448.424 358.943 451.247 359.375 454.124C359.808 457.002 362.435 458.844 365.244 458.24Z" fill="#0054A7"/>
<path d="M351.742 460.84C354.551 460.235 356.478 457.412 356.046 454.535C355.613 451.657 352.985 449.815 350.176 450.419C347.367 451.024 345.441 453.847 345.873 456.724C346.306 459.602 348.933 461.444 351.742 460.84Z" fill="#0054A7"/>
<path d="M338.238 463.44C341.047 462.835 342.974 460.013 342.542 457.135C342.109 454.258 339.482 452.415 336.673 453.02C333.863 453.624 331.937 456.447 332.369 459.324C332.802 462.202 335.429 464.044 338.238 463.44Z" fill="#0054A7"/>
<path d="M324.737 466.039C327.546 465.435 329.472 462.612 329.04 459.735C328.607 456.857 325.98 455.015 323.171 455.619C320.362 456.224 318.435 459.047 318.867 461.924C319.3 464.801 321.927 466.644 324.737 466.039Z" fill="#0054A7"/>
<path d="M357.402 444.756C360.211 444.152 362.138 441.329 361.706 438.451C361.273 435.574 358.645 433.732 355.836 434.336C353.027 434.941 351.101 437.763 351.533 440.641C351.966 443.518 354.593 445.361 357.402 444.756Z" fill="#0054A7"/>
<path d="M343.901 447.356C346.71 446.751 348.636 443.929 348.204 441.051C347.771 438.174 345.144 436.331 342.335 436.936C339.526 437.54 337.599 440.363 338.031 443.24C338.464 446.118 341.092 447.96 343.901 447.356Z" fill="#0054A7"/>
<path d="M330.4 449.955C333.209 449.351 335.136 446.528 334.704 443.651C334.271 440.773 331.643 438.931 328.834 439.535C326.025 440.14 324.099 442.962 324.531 445.84C324.964 448.717 327.591 450.56 330.4 449.955Z" fill="#0054A7"/>
<path d="M363.063 428.673C365.872 428.068 367.798 425.246 367.366 422.368C366.933 419.491 364.306 417.648 361.497 418.253C358.688 418.857 356.761 421.68 357.194 424.558C357.626 427.435 360.254 429.278 363.063 428.673Z" fill="#0054A7"/>
<path d="M349.561 431.272C352.37 430.668 354.296 427.845 353.864 424.968C353.432 422.09 350.804 420.248 347.995 420.852C345.186 421.457 343.259 424.28 343.692 427.157C344.124 430.034 346.752 431.877 349.561 431.272Z" fill="#0054A7"/>
<path d="M336.061 433.872C338.87 433.268 340.796 430.445 340.364 427.568C339.932 424.69 337.304 422.848 334.495 423.452C331.686 424.057 329.759 426.879 330.192 429.757C330.624 432.634 333.252 434.477 336.061 433.872Z" fill="#0054A7"/>
<path d="M322.559 436.472C325.368 435.867 327.294 433.044 326.862 430.167C326.429 427.29 323.802 425.447 320.993 426.052C318.184 426.656 316.257 429.479 316.689 432.356C317.122 435.234 319.75 437.076 322.559 436.472Z" fill="#0054A7"/>
<path d="M355.225 415.189C358.034 414.584 359.96 411.761 359.528 408.884C359.096 406.006 356.468 404.164 353.659 404.768C350.85 405.373 348.923 408.196 349.356 411.073C349.788 413.951 352.416 415.793 355.225 415.189Z" fill="#0054A7"/>
<path d="M341.723 417.788C344.532 417.184 346.458 414.361 346.026 411.483C345.594 408.606 342.966 406.763 340.157 407.368C337.348 407.973 335.421 410.795 335.854 413.673C336.286 416.55 338.914 418.393 341.723 417.788Z" fill="#0054A7"/>
<path d="M328.223 420.388C331.032 419.783 332.958 416.96 332.526 414.083C332.094 411.206 329.466 409.363 326.657 409.968C323.848 410.572 321.921 413.395 322.354 416.272C322.786 419.15 325.414 420.992 328.223 420.388Z" fill="#0054A7"/>
</g>
</g>
<path d="M371.014 460.744C369.17 461.115 367.32 461.322 365.487 461.351C360.326 461.44 355.318 460.087 350.609 457.337C346.744 455.078 343.043 451.859 339.606 447.768C333.543 440.551 330.043 432.748 328.891 430.183C328.23 428.713 324.865 420.883 323.306 411.078C322.399 405.384 322.289 400.1 322.971 395.372C323.816 389.53 325.883 384.505 329.121 380.443C335.32 372.657 344.477 369.934 351.161 367.944C356.399 366.385 364.319 364.033 372.585 367.409C374.813 368.32 379.445 370.215 382.142 375.147C385.319 380.964 383.964 387.54 383.659 388.799C383.051 391.317 382.147 392.81 381.347 394.13C380.447 395.622 379.668 396.912 379.675 399.219C379.684 401.382 380.386 404.699 383.704 408.205C385.809 410.43 387.728 411.037 389.585 411.621C390.882 412.031 392.109 412.42 393.341 413.326C395.233 414.714 397.635 417.737 398.368 424.25C398.85 428.562 398.438 433.584 397.267 437.679C395.403 444.197 391 450.21 384.877 454.613C380.619 457.674 375.843 459.772 371.022 460.743L371.014 460.744ZM357.231 366.47C354.975 366.924 352.929 367.532 351.183 368.053C344.509 370.036 335.373 372.755 329.194 380.515C325.971 384.566 323.909 389.568 323.069 395.391C322.389 400.106 322.502 405.381 323.402 411.063C324.959 420.855 328.322 428.673 328.979 430.139C330.13 432.7 333.625 440.495 339.677 447.701C347.364 456.853 356.046 461.409 365.482 461.248C372.073 461.137 378.937 458.749 384.806 454.532C390.91 450.141 395.296 444.148 397.156 437.658C398.326 433.576 398.736 428.571 398.255 424.273C397.529 417.802 395.147 414.801 393.274 413.423C392.052 412.527 390.834 412.141 389.546 411.734C387.679 411.142 385.747 410.533 383.623 408.291C380.284 404.759 379.574 401.417 379.566 399.232C379.557 396.89 380.343 395.591 381.257 394.083C382.05 392.769 382.946 391.281 383.553 388.785C383.856 387.535 385.205 380.995 382.045 375.215C379.366 370.313 374.755 368.427 372.537 367.523C367.056 365.285 361.721 365.575 357.224 366.48L357.231 366.47Z" fill="#0054A7"/>
<path d="M368.582 387.211C368.802 388.793 366.781 391.097 362.739 395.714C360.306 398.488 359.061 399.896 357.545 400.693C354.447 402.322 349.281 403.066 346.428 400.225C342.589 396.405 344.106 387.277 348.686 383.167C355.441 377.106 367.964 382.78 368.589 387.209L368.582 387.211Z" fill="white"/>
<path d="M386.599 427.809C386.82 429.391 384.798 431.695 380.757 436.312C378.324 439.086 377.078 440.494 375.563 441.291C372.464 442.92 367.299 443.664 364.445 440.823C360.607 437.003 362.123 427.875 366.704 423.765C373.459 417.704 385.981 423.378 386.607 427.807L386.599 427.809Z" fill="white"/>
<mask id="mask17_324_46" style="mask-type:luminance" maskUnits="userSpaceOnUse" x="-26" y="360" width="90" height="84">
<path d="M46.3664 388.081C56.684 382.215 59.3145 379.363 61.0793 380.411C63.6453 381.937 63.0377 390.947 57.8956 396.27C53.7998 400.509 50.3321 398.778 43.373 404.693C39.2671 408.18 37.8305 411.033 37.18 413.367C36.5836 415.522 36.5414 417.652 36.7441 418.868C38.3466 428.498 63.4937 430.703 63.5198 434.577C63.5501 439.059 29.8954 451.213 2.0675 436.252C-10.1284 429.695 -26.6152 415.024 -25.7133 397.798C-25.1892 387.821 -18.9784 379.77 -17.1121 377.349C-14.5919 374.086 -9.6092 367.802 -0.419029 364.253C3.27993 362.825 15.3287 358.177 22.5907 363.281C32.8515 370.491 25.3909 391.405 32.635 394.003C34.6101 394.71 38.5558 392.507 46.3611 388.071L46.3664 388.081Z" fill="white"/>
</mask>
<g mask="url(#mask17_324_46)">
<mask id="mask18_324_46" style="mask-type:luminance" maskUnits="userSpaceOnUse" x="-81" y="333" width="143" height="147">
<path d="M-0.77171 333.667L-80.1497 435.967L-18.057 479.789L61.3209 377.489L-0.77171 333.667Z" fill="white"/>
</mask>
<g mask="url(#mask18_324_46)">
<path d="M96.5345 325.565L19.7742 427.983L21.7982 429.448L98.5586 327.03L96.5345 325.565Z" fill="#E60019"/>
<path d="M20.056 428.117L-56.7043 530.535L-54.6803 532L22.08 429.582L20.056 428.117Z" fill="#E60019"/>
<path d="M51.9329 372.212L-24.8274 474.63L-22.8033 476.095L53.957 373.677L51.9329 372.212Z" fill="#E60019"/>
<path d="M83.8021 316.311L7.04175 418.73L9.06579 420.195L85.8261 317.776L83.8021 316.311Z" fill="#E60019"/>
<path d="M7.32358 418.863L-69.4368 521.282L-67.4127 522.747L9.34762 420.328L7.32358 418.863Z" fill="#E60019"/>
<path d="M39.2025 362.958L-37.5579 465.377L-35.5338 466.842L41.2265 364.423L39.2025 362.958Z" fill="#E60019"/>
<path d="M71.0697 307.054L-5.69067 409.472L-3.66663 410.937L73.0937 308.518L71.0697 307.054Z" fill="#E60019"/>
<path d="M26.4662 353.702L-50.2942 456.121L-48.2701 457.586L28.4902 355.167L26.4662 353.702Z" fill="#E60019"/>
<path d="M58.3412 297.8L-18.4192 400.219L-16.3951 401.684L60.3652 299.265L58.3412 297.8Z" fill="#E60019"/>
<path d="M13.7376 344.449L-63.0227 446.867L-60.9987 448.332L15.7617 345.913L13.7376 344.449Z" fill="#E60019"/>
<path d="M45.6068 288.548L-31.1536 390.967L-29.1295 392.432L47.6308 290.013L45.6068 288.548Z" fill="#E60019"/>
<path d="M1.00716 335.195L-75.7532 437.614L-73.7291 439.079L3.03121 336.66L1.00716 335.195Z" fill="#E60019"/>
</g>
<mask id="mask19_324_46" style="mask-type:luminance" maskUnits="userSpaceOnUse" x="-17" y="379" width="142" height="148">
<path d="M62.8826 379.939L-16.4954 482.239L45.5973 526.06L124.975 423.76L62.8826 379.939Z" fill="white"/>
</mask>
<g mask="url(#mask19_324_46)">
<path d="M115.589 418.486L38.8289 520.904L40.8529 522.369L117.613 419.951L115.589 418.486Z" fill="#E60019"/>
<path d="M102.855 409.23L26.0945 511.648L28.1185 513.113L104.879 410.695L102.855 409.23Z" fill="#E60019"/>
<path d="M134.728 353.328L57.9675 455.746L59.9916 457.211L136.752 354.793L134.728 353.328Z" fill="#E60019"/>
<path d="M90.1244 399.976L13.364 502.395L15.3881 503.86L92.1484 401.441L90.1244 399.976Z" fill="#E60019"/>
<path d="M121.997 344.076L45.2371 446.494L47.2611 447.959L124.021 345.541L121.997 344.076Z" fill="#E60019"/>
<path d="M77.3939 390.723L0.633545 493.141L2.65759 494.606L79.4179 392.188L77.3939 390.723Z" fill="#E60019"/>
<path d="M109.263 334.818L32.5027 437.237L34.5267 438.702L111.287 336.283L109.263 334.818Z" fill="#E60019"/>
<path d="M32.7845 437.37L-43.9758 539.789L-41.9518 541.254L34.8086 438.835L32.7845 437.37Z" fill="#E60019"/>
<path d="M64.6595 381.465L-12.1008 483.883L-10.0768 485.348L66.6836 382.93L64.6595 381.465Z" fill="#E60019"/>
</g>
</g>
<path d="M63.3857 436.045C62.8909 436.701 61.9317 437.432 60.5678 438.185C58.1707 439.501 54.7405 440.755 50.9107 441.714C46.4623 442.825 41.5561 443.522 36.715 443.729C28.05 444.099 15.0845 443.102 2.55642 436.234C-4.50142 432.363 -11.3964 426.724 -16.359 420.754C-22.7054 413.119 -25.9005 405.011 -25.5933 397.305C-25.4256 393.034 -24.2056 388.629 -21.9675 384.204C-20.1654 380.64 -18.2087 378.054 -17.2709 376.82C-14.9419 373.75 -10.1025 367.36 -0.79629 363.807C1.06755 363.095 4.9389 361.617 9.29927 360.949C14.7111 360.122 19.031 360.828 22.1542 363.053C27.7559 367.043 28.2108 374.949 28.6138 381.92C28.949 387.746 29.236 392.778 32.5127 393.992C34.4993 394.73 38.6 392.399 46.0434 388.167C49.6646 386.112 52.3562 384.405 54.3246 383.159C57.9694 380.85 59.4793 379.894 60.6511 380.605C61.3477 381.029 61.839 381.973 62.0677 383.342C62.6648 386.917 61.3354 392.779 57.6953 396.592C55.7744 398.607 53.9774 399.265 51.896 400.025C49.5718 400.876 46.936 401.84 43.3458 404.918C38.9876 408.654 37.8165 411.63 37.3113 413.544C36.7196 415.786 36.7442 417.907 36.9448 419.039C37.9773 424.867 47.3943 428.02 54.9627 430.553C59.8752 432.198 63.7546 433.497 63.7873 435.075C63.794 435.375 63.6591 435.699 63.397 436.047L63.3857 436.045ZM-17.3954 377.182C-18.3967 378.509 -20.1949 380.962 -21.8564 384.254C-24.0826 388.663 -25.298 393.053 -25.4652 397.306C-25.7703 404.984 -22.5874 413.065 -16.2602 420.675C-11.3073 426.632 -4.42485 432.262 2.62041 436.123C25.6399 448.744 52.0131 442.749 60.508 438.075C62.5227 436.966 63.6677 435.868 63.6509 435.067C63.6231 433.577 59.5884 432.227 54.9172 430.665C47.3178 428.121 37.8541 424.953 36.8121 419.052C36.6091 417.906 36.5848 415.768 37.18 413.503C37.6898 411.575 38.8714 408.576 43.2515 404.82C46.8576 401.73 49.5036 400.761 51.8378 399.905C53.9049 399.146 55.6919 398.493 57.5951 396.502C61.2074 392.717 62.53 386.898 61.938 383.351C61.7163 382.041 61.2363 381.099 60.5846 380.702C59.4828 380.035 57.9918 380.974 54.3963 383.253C52.4279 384.499 49.7291 386.206 46.1091 388.269C38.0666 392.84 34.4257 394.827 32.4672 394.104C29.1087 392.861 28.8184 387.791 28.4786 381.919C28.0806 374.976 27.6278 367.102 22.0763 363.147C18.9868 360.947 14.6937 360.248 9.32049 361.066C4.97734 361.729 1.11019 363.21 -0.747764 363.914C-10.0195 367.456 -14.8513 373.827 -17.1673 376.888C-17.2351 376.978 -17.3117 377.08 -17.3912 377.185L-17.3954 377.182Z" fill="#E60019"/>
<path d="M14.653 378.896C15.4636 381.058 15.5279 383.248 14.8549 388.138C14.1151 393.526 13.7438 396.222 13.0675 397.364C9.60024 403.195 -1.08539 406.75 -5.55567 402.432C-9.17094 398.94 -7.17988 391.796 -6.7143 390.129C-5.44735 385.581 -2.77275 382.62 -0.119772 379.679C3.32116 375.864 5.44869 375.183 6.07248 374.946C8.08366 374.187 10.4773 374.27 12.2215 375.424C13.6922 376.397 14.2587 377.835 14.6572 378.899L14.653 378.896Z" fill="white"/>
<path d="M343.095 256.43C360.902 246.431 350.874 197.071 366.46 188.115C373.68 183.967 385.573 188.957 389.787 197.893C399.177 217.826 367.999 252.343 378.609 271.645C382.326 278.403 388.667 278.752 389.751 286.88C390.751 294.409 386.591 303.744 380.569 307.591C375.492 310.837 371.546 308.608 354.03 302.132C329.496 293.062 324.8 292.823 322.187 286.12C319.238 278.559 320.867 267.759 325.755 262.081C331.084 255.89 336.62 260.076 343.101 256.431L343.095 256.43Z" fill="#1B66B0"/>
<path d="M14.8292 500.108C23.5718 504.966 41.5482 490.029 54.9806 466.747C68.413 443.464 72.2149 420.652 63.4723 415.795C54.7297 410.938 36.7533 425.874 23.3209 449.156C9.88853 472.439 6.08667 495.251 14.8292 500.108Z" fill="#F7B52C"/>
<path d="M66.1785 249.907C66.8164 252.338 66.201 255.239 64.8714 257.313C63.3179 259.732 61.5501 259.829 59.1527 261.842C55.7439 264.702 54.8618 268.24 53.5021 271.273C50.1911 278.66 44.011 283.136 39.6571 286.284C38.0744 287.43 25.5412 296.279 14.1348 293.622C-2.23518 289.812 -11.3492 263.458 -4.62103 241.838C0.383089 225.762 13.4061 214.898 24.5521 210.554C26.0263 209.979 43.3527 203.422 48.4697 211.148C50.5463 214.278 50.6342 219.784 48.2385 223.128C45.3595 227.156 41.0185 225.078 35.7551 229.734C35.0878 230.326 29.5585 235.34 30.2441 240.899C30.9866 246.932 38.6391 250.354 41.0487 248.481C42.8878 247.05 40.9225 243.11 43.6037 240.145C45.6218 237.915 48.7266 237.942 49.4209 237.945C51.9228 237.966 52.8664 239.129 57.8954 242.763C64.1947 247.312 65.5547 247.534 66.1729 249.901L66.1785 249.907Z" fill="#E60019"/>
</svg>
